<?xml version="1.0" standalone="no"?>
<!DOCTYPE svg PUBLIC "-//W3C//DTD SVG 1.1//EN" "http://www.w3.org/Graphics/SVG/1.1/DTD/svg11.dtd" >
<svg xmlns="http://www.w3.org/2000/svg" xmlns:xlink="http://www.w3.org/1999/xlink" version="1.1">
<metadata>
Created by FontForge 20160405 at Fri Jul 14 09:18:20 2017
 By www-data
Copyright (c) 2017 by Misti's Fonts. All rights reserved.
</metadata>
<defs>
<font id="LoveandSunshine" horiz-adv-x="445" >
  <font-face 
    font-family="Love &#38; Sunshine"
    font-weight="400"
    font-stretch="normal"
    units-per-em="1000"
    panose-1="0 0 0 0 0 0 0 0 0 0"
    ascent="800"
    descent="-200"
    x-height="490"
    cap-height="694"
    bbox="-66.4706 -533 1196.11 900"
    underline-thickness="50"
    underline-position="-150"
    unicode-range="U+000D-20AC"
  />
<missing-glyph horiz-adv-x="500" 
 />
    <glyph glyph-name=".notdef" horiz-adv-x="500" 
 />
    <glyph glyph-name=".null" horiz-adv-x="0" 
 />
    <glyph glyph-name="nonmarkingreturn" unicode="&#xd;" horiz-adv-x="500" 
 />
    <glyph glyph-name="NULL" horiz-adv-x="0" 
 />
    <glyph glyph-name="NULL" horiz-adv-x="0" 
 />
    <glyph glyph-name="space" unicode=" " horiz-adv-x="500" 
 />
    <glyph glyph-name="exclam" unicode="!" horiz-adv-x="211" 
d="M55 665q-1 13 7.5 22t21.5 10h1q12 0 20.5 -8.5t9.5 -20.5q0 -1 1 -20.5t2 -52t2.5 -75t2.5 -88t2 -90.5t1 -84q0 -13 -8.5 -21.5t-21.5 -8.5q-12 0 -21 8.5t-9 21.5q0 38 -1 83l-2 90t-2.5 87t-2.5 74.5t-2 52t-1 20.5zM99 -3q-24 44 -39 79q-13 30 -18 57t10 34
q13 5 24 -2.5t19 -18.5q10 -13 17 -31q4 20 12 33q7 11 17.5 18.5t25.5 -0.5q10 -5 10 -18.5t-6 -31t-17 -37t-22 -37t-20 -30t-13 -15.5z" />
    <glyph glyph-name="quotedbl" unicode="&#x22;" horiz-adv-x="257" 
d="M33 604q-1 13 7.5 22t22.5 10l1 1q11 -1 20 -9.5t10 -19.5q-1 -2 2.5 -40.5t3.5 -104.5q0 -13 -8 -21.5t-22 -9.5q-11 0 -21 9t-8 21q0 41 -1 68t-2.5 43t-3 23t-1.5 8zM153 604q-1 13 7.5 22t22.5 10l1 1q11 -1 20 -9.5t10 -19.5q-1 -2 2.5 -40.5t3.5 -104.5
q0 -13 -8 -21.5t-22 -9.5q-11 0 -21 9t-8 21q0 41 -1 68t-2.5 43t-3 23t-1.5 8z" />
    <glyph glyph-name="numbersign" unicode="#" horiz-adv-x="440" 
d="M194 44q6 19 12 44q5 20 12.5 48.5t16.5 62.5l-109 -3q-9 -36 -17 -66.5t-14 -53.5q-7 -26 -12 -48q-2 -11 -13 -18t-22 -5h-1q-13 3 -19 14t-4 25q6 19 12 43q5 20 12.5 48t15.5 61h-15q-13 0 -21.5 8t-9.5 22q0 11 9 21t21 8h31l31 121h-61q-13 0 -21.5 8t-9.5 22
q0 11 9 21t21 8q16 0 35.5 -0.5t41.5 0.5q10 39 18.5 75.5t16 68t12.5 56.5l8 40q2 11 12.5 17.5t21.5 4.5q13 -2 20.5 -13t5.5 -22q-3 -12 -8 -34t-12.5 -51.5t-16 -65.5t-18.5 -75l111 3q9 39 18 75t16 66.5t12 55t8 39.5q2 11 12.5 17.5t21.5 4.5q13 -2 20.5 -13t5.5 -22
q-3 -12 -8 -33.5t-12 -50.5t-16 -64t-18 -73q15 1 23.5 1.5t9.5 0.5q13 1 22 -7.5t10 -22.5l1 -1q-1 -11 -9.5 -20t-19.5 -10h-14.5t-36.5 -1l-31 -121q34 1 55.5 1.5t22.5 1.5q13 1 22 -7.5t10 -22.5l1 -1q-1 -11 -9.5 -20t-19.5 -10q-1 0 -28 -0.5t-69 -1.5
q-9 -37 -17 -68t-14 -54q-7 -27 -12 -50q-2 -11 -13 -18t-22 -5h-1q-13 3 -19 14t-4 25zM171 377q-8 -31 -15.5 -61.5t-15.5 -60.5l110 3l31 122z" />
    <glyph glyph-name="dollar" unicode="$" 
d="M187 6q-30 0 -54 9q-49 19 -61 62q-4 12 2 23t18 14q12 4 22.5 -2t14.5 -18q5 -16 25 -23q22 -9 56 -4l-16 233q-31 14 -60.5 31t-54.5 40q-63 60 -60 147q1 39 14 71.5t36 56.5q38 37 93 46q-1 5 -1 12v4q-1 13 7.5 22t22.5 10l1 1q11 -1 20 -9.5t10 -19.5v-6v-6t1 -8
q63 -11 114 -54q38 -32 61 -77t31 -100q2 -12 -5.5 -21.5t-20.5 -11.5q-12 -2 -22 5.5t-12 19.5q-11 75 -52 119.5t-90 56.5q5 -54 10.5 -130t11.5 -159q20 -10 39 -20.5t36 -23.5q51 -41 54 -96q6 -77 -45 -133q-26 -27 -62 -43q1 -18 1.5 -32t0.5 -22q0 -13 -8 -21.5
t-22 -9.5q-11 0 -21 9t-8 21v17t-1 21q-7 -1 -13 -1h-13zM168 632q-17 -3 -32.5 -11.5t-28 -22.5t-20 -34t-8.5 -48q-1 -29 7.5 -51t23.5 -39.5t35.5 -30.5t43.5 -25zM255 270q3 -50 6 -95.5t6 -84.5q23 15 38.5 41t13.5 65q-3 30 -33 53q-7 5 -15 10.5t-16 10.5z" />
    <glyph glyph-name="percent" unicode="%" horiz-adv-x="309" 
d="M45 44q1 0 11 39t26 100t34.5 135.5t36 144.5t30.5 127.5t18 84.5q2 11 12.5 17.5t21.5 4.5q13 -2 20.5 -13t5.5 -22q-4 -16 -12.5 -52t-20 -83.5t-25 -103t-27.5 -110.5t-27 -106.5t-23 -91t-16 -63.5l-6 -24q-2 -11 -13 -18t-22 -5h-1q-13 3 -19 14t-4 25zM89 588
q-3 3 -14 18.5t-20.5 33.5t-14 34t5.5 21q9 5 15.5 1t11.5 -12q5 -9 8 -21q5 12 11 20q5 7 12 11.5t15 1.5q9 -5 5.5 -21.5t-11.5 -36.5q-10 -23 -24 -50zM234 5q-3 3 -14 18.5t-20.5 33.5t-14 34t5.5 21q9 5 15.5 1t11.5 -12q5 -9 8 -21q5 12 11 20q5 7 12 11.5t15 1.5
q9 -5 5.5 -21.5t-11.5 -36.5q-10 -23 -24 -50z" />
    <glyph glyph-name="ampersand" unicode="&#x26;" horiz-adv-x="721" 
d="M696 378q0 -81 -48 -126q-15 -14 -32.5 -22t-34 -12.5t-30.5 -5.5t-23 -1h-13q-16 2 -18 19q0 2 -1 26.5t-1.5 59t-0.5 73.5t3 72q2 12 13 17q1 1 16 5.5t36.5 7.5t46 0.5t45.5 -16.5q42 -29 42 -97zM275 211q-17 0 -20 17q-3 23 -3.5 61.5t0.5 75.5t2 64.5t1 30.5
q2 14 15 19q15 3 22 -10l106 -175q1 20 3 43t3.5 45.5t2.5 42.5t1 34q0 8 6 14t14 6t14 -6t6 -14q0 -25 -2.5 -63t-5.5 -74.5t-5.5 -63.5t-2.5 -29q-2 -15 -16 -18t-21 9l-102 171q-1 -20 -1.5 -42t-0.5 -43.5t1 -40.5t3 -32q2 -8 -3.5 -14.5t-13.5 -7.5h-3zM676 89
q8 0 14.5 -5.5t6.5 -13.5q0 -9 -5.5 -15t-13.5 -6q-1 0 -24.5 -0.5t-62.5 -2t-89.5 -2.5t-106.5 -2.5t-113 -2t-109 -0.5h-69.5t-58.5 2q-8 0 -14 6.5t-5 14.5q0 8 6.5 13.5t14.5 5.5q44 -2 107.5 -2t133 1t138.5 2.5t124 3t90 2.5t36 1zM46 615q-8 0 -14 5.5t-6 13.5
q-1 8 5 14t14 7q1 0 36 1t90.5 2.5t124.5 3t139 2.5t133.5 1t108.5 -2q8 -1 14 -7t5 -14q0 -8 -6.5 -14t-14.5 -5q-44 2 -107.5 2t-133 -1t-138.5 -2.5t-124 -3t-90 -2.5t-36 -1zM38 212q-8 3 -11 10.5t0 15.5q5 12 11.5 34t14.5 48t15 51.5t15 46.5l15 37q3 5 9.5 14.5
t19.5 9.5q8 0 14 -4t10.5 -9.5t7 -11t4.5 -9.5q5 -10 9.5 -24t9.5 -32q8 -32 15 -68t12 -62l4 -24q2 -8 -2.5 -15t-12.5 -9t-15 3t-9 13l-5 25q-2 11 -4.5 24t-4.5 27l-72 -6q-7 -23 -13 -42.5t-11 -31.5t-18 -12q-5 0 -8 1zM69 136q0 8 6 14t14 5q1 0 25 -0.5t64.5 -1
t94 -1t112.5 -0.5t120 1t118 3h1q8 0 13.5 -5.5t6.5 -13.5q0 -8 -5.5 -14.5t-13.5 -6.5q-60 -2 -124.5 -3t-126.5 -1q-58 0 -109.5 0.5t-90.5 1t-62 1t-24 0.5q-8 1 -14 7t-5 14zM622 548q-1 0 -25 0.5t-64.5 1t-93.5 1.5t-112 1t-120.5 -1t-118.5 -3q-8 0 -14 5.5t-6 13.5
q-1 8 5 14t14 7q57 2 118.5 3t121 1t113 -1t94 -1.5t64.5 -1t25 -0.5q8 0 14 -6t6 -14t-6.5 -14t-14.5 -6zM621 282q35 33 35 96q0 47 -24 64q-10 7 -22.5 9t-26 1.5t-26 -2.5t-21.5 -5q-2 -25 -2 -53v-54.5t1 -49.5t1 -37q16 1 40.5 7t44.5 24zM118 395q-5 -13 -9 -27.5
t-9 -29.5l51 5l-2 12t-3 12q-5 23 -9.5 36.5t-8.5 21.5q-2 -5 -4.5 -12t-5.5 -18z" />
    <glyph glyph-name="quotesingle" unicode="'" horiz-adv-x="126" 
d="M24 604q-1 13 7.5 22t22.5 10l1 1q11 -1 20 -9.5t10 -19.5q-1 -2 2.5 -40.5t3.5 -104.5q0 -13 -8 -21.5t-22 -9.5q-11 0 -21 9t-8 21q0 41 -1 68t-2.5 43t-3 23t-1.5 8z" />
    <glyph glyph-name="parenleft" unicode="(" horiz-adv-x="283" 
d="M171 -113q-10 0 -20 8q-29 25 -51 54t-39 64q-45 94 -45 228q0 81 32 163q26 64 69 125q38 52 68.5 81t32.5 31q10 8 22.5 7t20.5 -11t6.5 -22t-10.5 -20q-1 -1 -29.5 -27.5t-62.5 -74.5q-15 -21 -31 -48.5t-29 -59.5t-21 -68.5t-8 -75.5q0 -202 114 -301
q10 -8 10.5 -20.5t-7.5 -21.5q-9 -11 -22 -11z" />
    <glyph glyph-name="parenright" unicode=")" horiz-adv-x="283" 
d="M112 -113q-13 0 -22 11q-8 9 -7.5 21.5t10.5 20.5q114 99 114 301q0 39 -8 75.5t-21 68.5t-29 59.5t-31 48.5q-34 48 -62.5 74.5t-29.5 27.5q-9 8 -10.5 20t6.5 22t20.5 11t22.5 -7q2 -2 32.5 -31t68.5 -81q43 -61 69 -125q32 -82 32 -163q0 -134 -45 -228
q-17 -35 -39 -64t-51 -54q-10 -8 -20 -8z" />
    <glyph glyph-name="asterisk" unicode="*" horiz-adv-x="372" 
d="M205 348q-7 6 -24 29t-36.5 54t-39 66.5t-31 67.5t-11.5 56t19 33q27 13 45.5 1t30.5 -33q14 -25 23 -60q14 32 32 56q15 20 35 34t43 5q13 -6 16.5 -22.5t0 -39t-12.5 -50t-20 -54.5q-27 -64 -70 -143z" />
    <glyph glyph-name="plus" unicode="+" horiz-adv-x="317" 
d="M191 200q1 -13 -7.5 -22t-22.5 -10l-1 -1q-11 1 -20 9.5t-10 19.5q0 1 -1 27t-2 64q-24 -1 -47 -1h-43q-13 0 -21.5 8t-9.5 22q0 11 9 21t21 8q22 -1 44.5 -0.5t44.5 0.5q-1 26 -1 50.5v45.5q0 13 8 21.5t22 9.5q11 0 21 -9t8 -21q-1 -23 -0.5 -47.5t1.5 -47.5
q40 2 66.5 3.5t27.5 2.5q13 1 22 -7.5t10 -22.5l1 -1q-1 -11 -9.5 -20t-19.5 -10q-1 0 -29 -1t-67 -2q2 -38 3 -63t2 -26z" />
    <glyph glyph-name="comma" unicode="," horiz-adv-x="168" 
d="M133 43q9 -18 10 -41t-5 -48t-18.5 -50t-31.5 -46q-9 -11 -23 -11q-10 0 -20 8q-9 8 -10 20t7 22q30 34 37.5 69t-0.5 50q-3 7 -12 6q-12 -1 -21.5 7t-10.5 21q-1 12 7 21.5t21 10.5q23 2 41 -8.5t29 -30.5z" />
    <glyph glyph-name="hyphen" unicode="-" horiz-adv-x="264" 
d="M199 263q13 1 22 -7.5t10 -22.5l1 -1q-1 -11 -9.5 -20t-19.5 -10q-2 1 -40.5 -2.5t-104.5 -3.5q-13 0 -21.5 8t-9.5 22q0 11 9 21t21 8q41 0 68 1t43 2.5t23 3t8 1.5z" />
    <glyph glyph-name="period" unicode="." horiz-adv-x="140" 
d="M76 5q-3 3 -14 18.5t-20.5 33.5t-14 34t5.5 21q9 5 15.5 1t11.5 -12q5 -9 8 -21q5 12 11 20q5 7 12 11.5t15 1.5q9 -5 5.5 -21.5t-11.5 -36.5q-10 -23 -24 -50z" />
    <glyph glyph-name="slash" unicode="/" horiz-adv-x="230" 
d="M7 44l10.5 39t26.5 100t34.5 135.5t36 144.5t30.5 127.5t18 84.5q2 11 12.5 17.5t21.5 4.5q13 -2 20.5 -13t5.5 -22q-4 -16 -12.5 -52t-20 -83.5t-25 -103t-27.5 -110.5t-27 -106.5t-23 -91t-16 -63.5l-6 -24q-2 -11 -13 -18t-22 -5h-1q-13 3 -19 14t-4 25z" />
    <glyph glyph-name="zero" unicode="0" horiz-adv-x="462" 
d="M235 652q101 0 156 -96q13 -24 21.5 -50t13.5 -52t6.5 -50.5t1.5 -44.5q1 -64 -12 -126t-37 -113q-28 -60 -66.5 -92t-83.5 -32q-105 0 -160 96q-26 44 -37.5 103t-7.5 127q4 65 20 124.5t42 104.5q28 46 60 71q39 30 83 30zM331 146q21 45 32.5 100t10.5 113
q0 51 -9 93.5t-27 74.5q-36 65 -103 65q-15 0 -28.5 -6.5t-25 -17t-21 -23t-16.5 -24.5q-23 -39 -37 -92t-17 -110q-3 -59 6.5 -110.5t30.5 -86.5q37 -66 108 -66q18 0 33 9.5t27 23t21 29t15 28.5z" />
    <glyph glyph-name="one" unicode="1" horiz-adv-x="128" 
d="M60 652q13 1 22 -7.5t10 -20.5q2 -37 3 -94.5t1 -122.5t-0.5 -131t-1.5 -120t-1.5 -90t-0.5 -40q0 -13 -9 -21.5t-21 -8.5q-13 1 -21.5 9.5t-8.5 20.5v1q0 1 0.5 35t1.5 88t1.5 120.5t0.5 132t-1 123t-3 94.5q-1 12 7 21t21 11z" />
    <glyph glyph-name="two" unicode="2" horiz-adv-x="555" 
d="M492 103q11 6 23 3t18 -14t2.5 -23t-14.5 -18q-47 -26 -121 -39.5t-175 -15.5h-21q-33 0 -61.5 1t-50 2.5t-34 3t-13.5 1.5q-18 2 -25 20q-6 18 7 31l14 14t36 37t50 55t57 68q34 42 60.5 81t45.5 74q46 82 46 136t-26 68q-11 6 -26.5 3.5t-30.5 -13.5
q-23 -16 -40.5 -50.5t-11.5 -86.5q2 -12 -5.5 -21.5t-20.5 -11.5q-12 -2 -21.5 5.5t-11.5 20.5q-5 31 -0.5 60.5t15.5 56.5q22 49 62 77q29 20 60.5 24t57.5 -10q8 -5 18.5 -13.5t19.5 -22.5t15 -35t6 -51q0 -122 -166 -329q-32 -40 -62 -74t-53 -58q37 -2 87 -2.5t103 3.5
t102.5 14t84.5 29z" />
    <glyph glyph-name="three" unicode="3" horiz-adv-x="467" 
d="M279 406q67 -23 107.5 -69.5t51.5 -112.5q14 -79 -38 -138q-45 -53 -120 -74q-21 -7 -42.5 -10t-42.5 -3q-31 0 -63 8q-40 11 -68.5 34t-42.5 55q-5 12 -0.5 23.5t16.5 16.5q11 5 22.5 0t16.5 -16q11 -26 32 -38t39 -17q26 -7 56.5 -5.5t59.5 9.5q23 7 46 19.5t40 30.5
t26 42t4 53q-17 99 -120 136q-20 7 -39 10.5t-33 5.5q-17 2 -32 1q-9 0 -17 5t-12 13q-8 19 6 33l159 166q-32 2 -74 1.5t-84 -8.5q-13 -2 -23.5 4.5t-12.5 18.5q-2 13 4.5 23t19.5 13q42 9 83.5 10t75.5 -1t56 -5.5t24 -3.5q18 -3 23 -20q5 -18 -7 -30l-157 -164
q14 -2 29 -6t31 -10z" />
    <glyph glyph-name="four" unicode="4" horiz-adv-x="440" 
d="M384 255q15 -3 20 -18q5 -12 0 -23t-17 -16q-4 -2 -7 -2q-4 -51 -8 -95t-9 -77q-2 -11 -10.5 -18.5t-19.5 -7.5q-3 0 -5 1q-12 2 -19.5 11.5t-5.5 22.5q5 28 8.5 65.5t7.5 82.5q-20 -4 -43 -7t-47 -5q-14 -2 -27.5 -2h-26.5q-87 0 -128 25q-22 13 -30 29t-10 28
q-5 41 32 104q15 25 35.5 54t46.5 60q24 28 49 55.5t49 51.5t46 43t39 30q10 7 22 5t19 -13q1 0 1 -1q8 8 21 8q12 0 21 -8.5t9 -21.5q0 -30 -1 -71.5t-2.5 -89t-4 -98.5t-5.5 -102zM225 229q26 2 52 5.5t46 8.5q3 46 5.5 94t4 94t3 88.5t1.5 77.5q-15 -10 -35.5 -28
t-43 -40.5t-46.5 -48t-45 -51.5q-62 -76 -82 -118t-18 -54q0 -2 1.5 -5.5t9.5 -8.5q19 -11 57 -15t90 1z" />
    <glyph glyph-name="five" unicode="5" horiz-adv-x="524" 
d="M463 325q38 -32 43 -85q2 -38 -9 -73t-37 -65q-44 -52 -121 -81q-61 -23 -124 -23q-24 0 -45 3q-95 14 -141 78q-8 10 -6 22t12 20t22 6t20 -12q20 -28 49 -39.5t53 -14.5q33 -5 69 -1t70 17q12 4 34.5 15.5t44.5 31t37 47t12 64.5q-3 29 -21 43q-17 13 -43 18.5t-56 5.5
t-60 -3t-54 -6q-14 -2 -26 -3.5t-22 -1.5q-9 -1 -24.5 1t-23.5 17q-3 6 -5.5 18t-3.5 47q0 20 0.5 44t2.5 50t4 50.5t4 44.5q5 35 9 47.5t8 17.5q11 16 30 14q3 0 10.5 1t14.5 2q27 3 53 5.5t49.5 0.5t43 -9t32.5 -22q8 -9 7.5 -21.5t-10.5 -20.5q-9 -8 -21.5 -7t-20.5 10
q-2 2 -11 6t-36 5q-20 0 -40.5 -2.5t-37.5 -4.5q-8 0 -16 -2q-3 -14 -6.5 -43t-5.5 -74q-2 -41 -2.5 -70t0.5 -45l36 4q29 4 64 7.5t70.5 2.5t68 -9.5t56.5 -27.5z" />
    <glyph glyph-name="six" unicode="6" horiz-adv-x="413" 
d="M357 294q30 -30 35 -81q2 -23 -2 -46t-14 -46q-21 -52 -64 -86q-49 -37 -112 -37q-44 0 -81 23q-35 22 -56 59q-38 66 -40 166v6q0 70 18.5 138t52.5 122q37 61 89 96q58 38 127 38q12 0 21 -8.5t9 -21.5q0 -12 -9 -21t-21 -9q-31 0 -56.5 -9.5t-46 -25t-36 -34
t-26.5 -36.5q-20 -33 -34.5 -73t-21.5 -83q32 18 69 25q53 9 103 -3q55 -13 96 -53zM321 144q13 31 11 61t-17 46q-27 26 -65 37t-80 3q-30 -6 -53 -20t-33 -31q2 -79 31 -130q32 -52 85 -52q30 0 51.5 10.5t36 25t22.5 28.5t11 22z" />
    <glyph glyph-name="seven" unicode="7" horiz-adv-x="320" 
d="M300 605q9 -13 10 -32.5t-7 -51.5q-7 -30 -20.5 -68.5t-30 -79.5t-35 -83t-35.5 -78q-23 -48 -40.5 -84t-26.5 -54q-7 -13 -12.5 -24l-9.5 -19q-8 -13 -11.5 -19t-10.5 -10q-8 -3 -14 -3q-19 0 -27 17q-9 17 3 32q3 5 15 27.5t29 57t37 77t41 88.5q48 106 72 177
q17 51 20.5 71t2.5 25q-7 7 -24.5 12.5t-44.5 5.5h-1q-29 0 -57 -7.5t-48 -19.5q-11 -7 -23 -4.5t-19 13.5t-4 23t14 18q28 18 65.5 27.5t74.5 9.5t68.5 -11t48.5 -33z" />
    <glyph glyph-name="eight" unicode="8" horiz-adv-x="500" 
d="M418 336q62 -54 62 -133q0 -40 -17 -76.5t-48 -64.5q-23 -22 -66.5 -42.5t-110.5 -20.5q-101 0 -161 57q-54 51 -54 130q0 38 15 75t42 66q29 30 68 47l7 3l-21 23q-16 23 -25 51t-9 57q0 57 33 96q13 15 37.5 30t65.5 15q43 0 68.5 -14.5t38.5 -28.5q34 -39 34 -95
q0 -30 -9.5 -58.5t-26.5 -51.5l-17 -19q53 -13 94 -46zM375 106q21 20 33 45t12 52q0 51 -41 87q-50 42 -141 42q-38 0 -66.5 -13t-48.5 -33.5t-30 -46.5t-10 -53q0 -53 36 -87q42 -40 119 -40q54 0 87 15.5t50 31.5zM236 589q-26 0 -41.5 -10t-23 -23.5t-9.5 -27t-2 -20.5
q0 -43 23 -72q7 -10 20 -19.5t33 -9.5q21 0 35 10t22 21q11 14 17.5 33.5t6.5 39.5q0 9 -2.5 22t-10.5 25.5t-24.5 21.5t-43.5 9z" />
    <glyph glyph-name="nine" unicode="9" horiz-adv-x="413" 
d="M56 350q-30 30 -35 81q-2 23 2 46t14 46q21 52 64 86q49 37 112 37q44 0 81 -23q35 -22 56 -59q38 -66 40 -166v-6q0 -70 -18.5 -138t-52.5 -122q-37 -61 -89 -96q-58 -38 -127 -38q-12 0 -21 8.5t-9 21.5q0 12 9 21t21 9q31 0 56.5 9.5t46 25t36 34t26.5 36.5
q20 33 34.5 73t21.5 83q-32 -18 -69 -25q-53 -9 -103 3q-55 13 -96 53zM92 500q-13 -31 -11 -61t17 -46q27 -26 65 -37t80 -3q30 6 53 20t33 31q-2 79 -31 130q-32 52 -85 52q-30 0 -51.5 -10.5t-36 -25t-22.5 -29t-11 -21.5z" />
    <glyph glyph-name="colon" unicode=":" horiz-adv-x="142" 
d="M77 5q-3 3 -14 18.5t-20.5 33.5t-14 34t5.5 21q9 5 15.5 1t11.5 -12q5 -9 8 -21q5 12 11 20q5 7 12 11.5t15 1.5q9 -5 5.5 -21.5t-11.5 -36.5q-10 -23 -24 -50zM77 385q-3 3 -14 18.5t-20.5 33.5t-14 34t5.5 21q9 4 15 0.5t10.5 -10.5t7 -14t2.5 -8q0 1 3 7.5t8 13t12 11
t15 1.5q9 -5 5.5 -21.5t-11.5 -36.5q-10 -23 -24 -50z" />
    <glyph glyph-name="semicolon" unicode=";" horiz-adv-x="168" 
d="M77 385q-3 3 -14 18.5t-20.5 33.5t-14 34t5.5 21q9 5 15.5 1t11.5 -12q5 -9 8 -21q5 12 11 20q5 7 12 11.5t15 1.5q9 -5 5.5 -21.5t-11.5 -36.5q-10 -23 -24 -50zM133 43q9 -18 10 -41t-5 -48t-18.5 -50t-31.5 -46q-9 -11 -23 -11q-10 0 -20 8q-9 8 -10 20t7 22
q30 34 37.5 69t-0.5 50q-3 7 -12 6q-12 -1 -21.5 7t-10.5 21q-1 12 7 21.5t21 10.5q23 2 41 -8.5t29 -30.5z" />
    <glyph glyph-name="less" unicode="&#x3c;" horiz-adv-x="312" 
d="M249 140q-1 0 -2 0.5t-3 0.5q-18 3 -51.5 23.5t-86.5 55.5q-18 12 -38.5 26t-31.5 19q-8 0 -14 3.5t-10 8.5q-6 9 -6 19.5t8 18.5q8 9 22 11q9 4 28 12.5t41 18t43.5 19.5t35.5 17q13 6 22 10.5l13 6.5q11 5 23 0t17 -16t0.5 -22.5t-15.5 -16.5l-13 -6.5t-22 -9.5
l-101 -47h-1q8 -5 16 -11t17 -11q18 -13 36 -25t35 -22q24 -15 33 -19t10 -4q13 -2 20 -12t5 -22q-2 -11 -10.5 -18.5t-19.5 -7.5z" />
    <glyph glyph-name="equal" unicode="=" horiz-adv-x="370" 
d="M303 263q13 1 22 -7.5t10 -22.5l1 -1q-1 -11 -9.5 -20t-19.5 -10q-1 0 -27 -0.5t-63.5 -2t-79.5 -2.5t-75 -1q-13 0 -21.5 8t-9.5 22q0 11 9 21t21 8q41 0 83.5 1t77.5 2.5t57.5 3t23.5 1.5zM303 443q13 1 22 -7.5t10 -22.5l1 -1q-1 -11 -9.5 -20t-19.5 -10
q-1 0 -27 -0.5t-63.5 -2t-79.5 -2.5t-75 -1q-13 0 -21.5 8t-9.5 22q0 11 9 21t21 8q41 0 83.5 1t77.5 2.5t57.5 3t23.5 1.5z" />
    <glyph glyph-name="greater" unicode="&#x3e;" horiz-adv-x="312" 
d="M62 140q-11 0 -19.5 7.5t-10.5 18.5q-2 12 5 22t20 12q1 0 10 4t33 19q17 10 35 22t36 25q9 5 17 11t16 11h-1l-101 47q-13 5 -22 9.5l-13 6.5q-11 5 -15.5 16.5t0.5 22.5t17 16t23 0l13 -6.5t22 -10.5q14 -7 35.5 -17t43.5 -19.5t41 -18t28 -12.5q14 -2 22 -11
q8 -8 8 -18.5t-6 -19.5q-4 -5 -10 -8.5t-14 -3.5q-11 -5 -31.5 -19t-38.5 -26q-53 -35 -86.5 -55.5t-51.5 -23.5q-2 0 -3 -0.5t-2 -0.5z" />
    <glyph glyph-name="question" unicode="?" horiz-adv-x="345" 
d="M136 223q-13 1 -21.5 9.5t-7.5 21.5q1 37 23 69.5t51 65.5q19 23 37.5 46.5t31 49t17.5 54.5t-3 62q-12 48 -56 42q-22 -2 -45 -16t-42 -37q-45 -56 -45 -128q0 -12 -9 -21t-21 -9q-13 0 -21.5 9t-8.5 21q0 49 16.5 91.5t42.5 74t59.5 51.5t66.5 24q45 5 77.5 -18.5
t43.5 -69.5q19 -78 -17 -155q-16 -32 -37 -59t-42 -51q-23 -26 -41 -51t-18 -47q-1 -12 -9.5 -20.5t-20.5 -8.5h-1zM125 -3q-24 44 -39 79q-13 30 -18 57t10 34q12 5 22.5 -1.5t18.5 -17t13 -21t6 -12.5q0 1 3.5 12t10 22t16.5 17.5t25 -0.5q10 -5 10 -18.5t-6 -31t-17 -37
t-22 -37t-20 -30t-13 -15.5z" />
    <glyph glyph-name="at" unicode="@" horiz-adv-x="535" 
d="M274 55q-39 0 -82 13q-91 27 -134 121q-19 40 -25 87t2 96q8 51 29 96.5t53 80.5q75 81 187 81q48 0 86 -22q17 -9 32.5 -23t29.5 -31q23 -29 37 -67.5t17 -80.5q6 -60 -14 -103q-25 -54 -75 -62q-17 -3 -38.5 4.5t-44.5 39.5q-10 -15 -22 -27q-20 -21 -45 -32.5
t-49 -11.5q-36 -2 -58 25q-23 25 -23 69q-2 40 22 74q21 30 53 48q27 15 57 18q34 3 57 -12q10 -6 22 -22t11 -45q2 -6 6.5 -17t12.5 -23q9 -16 17 -23t13 -6q11 2 19 11.5t13 23.5t6.5 31.5t0.5 35.5q-2 25 -11.5 54.5t-26.5 54.5t-43 42t-62 17q-50 0 -87 -19t-62.5 -48.5
t-40.5 -66.5t-20 -73q-5 -35 -1.5 -72.5t17 -70.5t38 -58t61.5 -36q96 -30 155 22q11 9 18.5 19t12.5 18q5 10 9 19q4 12 15.5 17.5t22.5 1.5q12 -5 17.5 -16t1.5 -22q0 -1 -3.5 -8.5t-10 -19.5t-17.5 -26.5t-26 -27.5q-21 -18 -53 -33t-77 -15zM280 388q-8 0 -18 -2.5
t-21 -8.5q-4 -2 -11.5 -7.5t-15 -14t-12.5 -20t-5 -26.5q0 -14 3 -21t5 -10q1 -1 3.5 -3t9.5 -1q11 0 25.5 7t26.5 19q8 8 18.5 25t10.5 40v2q1 15 -5 18q-5 3 -14 3z" />
    <glyph glyph-name="A" unicode="A" horiz-adv-x="614" 
d="M599 -222q2 -12 -5 -22.5t-19 -12.5q-13 -2 -23 5t-12 20l-14 84l-43 249q-6 -3 -11 -3l-302 -30h-3q-4 0 -10 2q-25 -95 -47.5 -176.5t-39.5 -130.5q-3 -9 -11 -14.5t-17 -5.5q-7 0 -10 2q-12 4 -17.5 15t-0.5 23q9 24 19 58.5t21.5 76t23.5 88t25 95.5t27 100t28 101.5
t27.5 98.5t27.5 90q14 47 27 81t24 59q13 27 29 48.5t39 21.5q17 0 31 -10t25.5 -25.5t20.5 -34.5t16 -38q15 -38 30.5 -93t32.5 -126q15 -64 29 -132.5t26 -136t22.5 -130t19.5 -113.5zM472 158q-9 47 -18 92.5t-20 90.5q-15 67 -29.5 120t-28.5 92q-14 41 -24.5 59
t-16.5 24q-4 -5 -10 -16.5t-15 -34.5q-11 -25 -22 -58t-25 -76q-23 -72 -45 -154.5t-45 -167.5l293 29h6z" />
    <glyph glyph-name="B" unicode="B" horiz-adv-x="598" 
d="M552 172q14 -20 22.5 -41.5t10.5 -47.5q4 -45 -14 -96q-19 -51 -53.5 -96.5t-81.5 -81.5q-46 -36 -95 -55.5t-96 -19.5q-3 0 -5 1q-66 2 -115 41q-53 43 -79 124q-16 48 -20.5 134t0.5 210q2 45 5 86t5.5 72.5t4.5 50l2 18.5v1q8 51 30.5 93.5t57.5 72.5q66 57 149 57
q67 0 114 -38q51 -40 63 -113q9 -64 -42 -145q-21 -32 -46 -61.5t-47 -53.5l-24 -26q56 2 98 -5t72.5 -19.5t51 -29t32.5 -32.5zM515 8q14 37 11 70t-22 58q-28 36 -87 52t-144 8q-38 -4 -51 21q-9 18 -0.5 34.5t14.5 24.5q8 11 18.5 22.5t22.5 25.5q19 22 42 48t41.5 54
t29.5 56t7 53q-4 28 -16 47t-28.5 31t-35.5 17t-37 5q-27 0 -56 -10t-53.5 -31t-43 -53.5t-25.5 -76.5q-1 -5 -4 -37.5t-6.5 -82t-6.5 -109.5t-2.5 -119t5 -111.5t15.5 -86.5q40 -121 138 -123q2 -1 4 -1q36 0 76.5 16.5t78.5 45.5q39 31 69 70.5t46 81.5z" />
    <glyph glyph-name="C" unicode="C" horiz-adv-x="609" 
d="M552 -134q11 5 23 1t17 -15t1 -22.5t-15 -17.5q-127 -62 -233 -68q-6 -1 -11.5 -1h-11.5q-89 0 -154 40q-75 46 -112 134q-37 81 -39 191t27.5 214t87.5 192q51 77 113 125q65 49 124 54q55 6 96 -30q39 -36 50 -107q2 -12 -5 -22t-19 -12q-13 -2 -23 5t-12 19
q-15 94 -82 88q-45 -5 -96.5 -46t-95.5 -107q-53 -80 -80 -175.5t-25 -196.5q2 -98 33.5 -168.5t88.5 -105.5q63 -39 152.5 -31t200.5 62z" />
    <glyph glyph-name="D" unicode="D" horiz-adv-x="596" 
d="M443 653q138 -88 138 -339q0 -168 -49 -290q-43 -107 -119 -174q-53 -45 -118 -72q-26 -11 -53.5 -18t-56.5 -12q-44 -6 -75 -6q-39 0 -42 3q-11 1 -18 9t-8 19q0 1 -1.5 42t-3.5 107.5t-3.5 153.5t-1.5 180t2 186.5t8 173.5q2 19 17 25q1 1 11 5.5t27.5 11t41.5 13.5
t51 13q66 14 124 9q74 -6 129 -40zM374 -104q147 129 147 418q0 219 -110 288q-26 17 -56 24t-60.5 7.5t-59.5 -3.5t-55 -10.5t-46.5 -13.5t-32.5 -12q-4 -69 -6 -147t-2.5 -157t0.5 -155t2.5 -141t3 -115t2.5 -77q14 0 33.5 1t43.5 5q115 16 196 88z" />
    <glyph glyph-name="E" unicode="E" horiz-adv-x="544" 
d="M509 -155q13 1 22 -7t11 -20q1 -13 -7 -22t-20 -11l-460 -41h-3q-11 0 -21 8q-9 9 -9 23q0 1 1.5 40.5t3.5 105.5t3.5 152.5t1.5 181t-2 191.5t-7 185q-2 22 18 30q2 0 30 9.5t79 17.5q48 8 121 11t168 -11q12 -2 19.5 -12t5.5 -23q-2 -12 -11.5 -19.5t-22.5 -5.5
q-88 13 -156 10.5t-112 -9.5q-26 -4 -45.5 -8.5t-32.5 -8.5q4 -76 6 -157t2 -162h1l27.5 1.5t71 3.5t97.5 3.5t108 1.5q12 0 21 -9t9 -21q0 -13 -9 -21.5t-21 -8.5q-53 0 -106.5 -1.5t-96 -3.5t-70 -3.5l-27.5 -1.5h-5q0 -71 -1 -136.5t-2.5 -121t-3 -99t-2.5 -69.5l426 38
v0z" />
    <glyph glyph-name="F" unicode="F" horiz-adv-x="535" 
d="M391 302q12 3 22.5 -4t12.5 -19q2 -13 -4.5 -23t-18.5 -13q-51 -10 -99 -13.5t-90 -3.5q-50 0 -82.5 3t-39.5 4q0 -92 -2 -175t-3.5 -146t-3 -100.5t-1.5 -38.5q-1 -12 -9.5 -20.5t-20.5 -8.5h-1q-13 1 -21.5 10t-7.5 21q0 1 1.5 40.5t3.5 105.5t3.5 152.5t1.5 181
t-2 191.5t-7 185q-1 11 5 19.5t17 11.5q2 0 39.5 9t100.5 17q29 4 65.5 7t78 3.5t86.5 -1.5t92 -9q12 -2 19.5 -12t5.5 -23q-2 -12 -11.5 -19.5t-22.5 -5.5q-68 10 -133 10.5t-119.5 -4.5t-96.5 -12t-65 -12q4 -75 6 -155.5t2 -161.5h7l25.5 -3t67 -3.5t93.5 2t106 13.5z
" />
    <glyph glyph-name="G" unicode="G" horiz-adv-x="699" 
d="M549 175q37 -13 66 -36.5t46 -55.5q32 -59 19 -124q-14 -67 -74 -123q-86 -78 -186 -98q-14 -2 -27.5 -3.5t-27.5 -1.5q-62 0 -123 26q-48 20 -88.5 55t-71.5 82q-31 48 -47.5 101.5t-17.5 110.5q-2 110 27.5 214t87.5 192q51 77 113 125q65 49 123 54q56 6 97 -30
q19 -18 32 -45t18 -62q2 -12 -5 -22t-19 -12q-13 -2 -23 5t-12 19q-15 94 -82 88q-45 -5 -96.5 -46t-95.5 -107q-53 -80 -80 -175.5t-25 -196.5q1 -48 15 -93.5t38.5 -84.5t59 -69t76.5 -48q75 -32 152 -15t147 81q43 39 55 85.5t-11 88.5q-11 19 -30 36t-46.5 27.5
t-63.5 11.5t-80 -11q-12 -3 -23 3t-14 18q-4 12 2.5 22.5t18.5 14.5q97 26 176 -1z" />
    <glyph glyph-name="H" unicode="H" horiz-adv-x="556" 
d="M476 693q12 1 21.5 -7t11.5 -20q10 -96 14.5 -186t6 -171t0.5 -151t-3 -125q-5 -120 -12 -190t-7 -73q-2 -11 -10.5 -18.5t-19.5 -7.5h-4q-12 2 -20 11.5t-6 22.5q0 1 7 70t12 188q2 42 3 93t1 109q-96 -34 -238 -44q-41 -3 -72.5 -4t-48.5 -1h-19q-1 -85 -2.5 -160
t-3 -131.5t-3 -90t-1.5 -34.5q-1 -12 -9.5 -20.5t-20.5 -8.5h-1q-13 1 -21 10t-8 21q0 1 1.5 43t3.5 111.5t3.5 159.5t1.5 188t-2 197t-7 187q-1 13 7.5 22t20.5 10q13 1 22 -7.5t10 -20.5q6 -96 8 -203t1 -213h4h18t47.5 1t67 4t78.5 8.5t82 15t77 23.5q2 0 3 1
q-2 81 -6.5 171t-14.5 187q-2 12 6 21.5t21 11.5z" />
    <glyph glyph-name="I" unicode="I" horiz-adv-x="114" 
d="M51 694q12 1 21 -7.5t10 -20.5q6 -88 8 -188t1.5 -199t-2 -190t-3.5 -161t-3.5 -112t-1.5 -43q-1 -12 -9.5 -20.5t-20.5 -8.5h-1q-13 1 -21.5 10t-7.5 21q0 1 1.5 43t3.5 111.5t3.5 160t2 188.5t-2 197t-7.5 187q-1 13 7.5 22t21.5 10z" />
    <glyph glyph-name="J" unicode="J" horiz-adv-x="395" 
d="M326 694q12 2 21.5 -6t11.5 -20q0 -2 3.5 -28.5t7 -70.5t5.5 -102t1 -123q-2 -78 -9.5 -146t-21.5 -127q-33 -150 -106 -232q-81 -95 -209 -95q-13 0 -21.5 8.5t-8.5 21.5t8.5 21.5t21.5 8.5q100 0 164 74q57 65 87.5 183t34.5 283q1 64 -1 121t-5.5 100t-6.5 68.5
t-3 26.5q-2 12 5.5 22t20.5 12z" />
    <glyph glyph-name="K" unicode="K" horiz-adv-x="627" 
d="M346 94q113 -80 178 -151q87 -95 87 -169q0 -13 -9 -21.5t-21 -8.5q-13 0 -21.5 8.5t-8.5 21.5q0 14 -8 37t-33.5 56.5t-73 78t-125.5 100.5q-68 49 -129.5 86.5t-93.5 56.5q1 -81 2.5 -155.5t2.5 -131.5t2 -91.5t1 -35.5q0 -13 -8.5 -22t-21.5 -9h-1q-12 0 -20.5 8.5
t-8.5 20.5q0 2 -1.5 50t-3 124.5t-3 173t-3 195t-2.5 190t-1 158.5q0 12 8.5 21t21.5 9t21.5 -9t8.5 -21q0 -75 1 -178t3 -213q20 17 53 44t74 63q30 27 65.5 60.5t72.5 72t74 81.5t70 88q8 10 19.5 12t22.5 -6q10 -8 12 -20t-6 -22q-35 -47 -73 -91t-76 -83.5t-74.5 -74.5
t-66.5 -62q-38 -34 -69 -59.5t-53 -42.5q36 -21 94 -57t121 -82z" />
    <glyph glyph-name="L" unicode="L" horiz-adv-x="248" 
d="M511 -155q13 2 22 -6.5t11 -20.5q1 -13 -7 -22t-21 -11l-460 -41h-2q-11 0 -21 8q-5 5 -7.5 11t-1.5 12q0 1 1.5 43t3.5 111.5t3.5 160t2 188.5t-2 197t-7.5 187q-1 13 7.5 22t21.5 10q12 1 21 -7.5t10 -20.5q5 -75 7 -159.5t2.5 -169.5t-0.5 -167t-2.5 -152t-3.5 -125
t-3 -86l426 38v0z" />
    <glyph glyph-name="M" unicode="M" horiz-adv-x="659" 
d="M532 690q11 0 19.5 -7.5t10.5 -18.5q1 -7 7 -60.5t14.5 -134.5t18.5 -179.5t18.5 -195.5t14 -182.5t5.5 -140.5q0 -12 -8.5 -21t-21.5 -9q-12 0 -21 9t-9 21q0 51 -5 129.5t-12.5 168.5t-17 183.5t-17.5 174.5q-4 -20 -8 -39t-9 -39q-32 -137 -71 -216q-25 -51 -53 -77
q-37 -35 -77 -34q-50 0 -93 49q-16 19 -29.5 45t-27.5 61q-22 56 -38 121.5t-30 128.5q1 -79 1 -158t-1 -151.5t-2.5 -135.5t-3 -110t-2.5 -74t-1 -28q-1 -12 -9.5 -20.5t-20.5 -8.5h-1q-13 1 -21.5 10t-7.5 22q0 1 1.5 43t3.5 111t3.5 159.5t1.5 188t-2 197t-7 186.5
q-2 20 17 30q19 8 33 -6q22 -21 37 -74.5t35 -145.5q14 -66 30.5 -136t39.5 -128q23 -59 47 -88q24 -28 47 -28h1q37 0 75 78q18 36 35 86.5t32 115.5q13 56 22 110t15 96t9 68.5l3 26.5q1 11 9.5 19t20.5 8z" />
    <glyph glyph-name="N" unicode="N" horiz-adv-x="577" 
d="M526 690q13 0 21.5 -8.5t8.5 -21.5q0 -48 -1 -111t-3 -134.5t-4.5 -146.5t-5 -146t-5 -134.5t-4.5 -111.5t-3.5 -76.5t-1.5 -29.5q0 -11 -6.5 -18.5t-17.5 -9.5q-2 0 -3 -0.5t-3 -0.5q-19 0 -27 17l-369 778q-1 -50 -3 -114t-3 -134.5t-1.5 -143t0.5 -140.5t3.5 -127.5
t6.5 -102.5q2 -12 -6 -21.5t-21 -10.5q-12 -2 -21.5 6t-10.5 20q-5 45 -7.5 106t-3.5 130.5t-0.5 144t1.5 146t2.5 135.5t3 114t2.5 81t1 36q1 11 7.5 19t16.5 10q11 2 20 -2.5t14 -14.5l371 -780q2 49 4.5 112t5 133t4.5 143t4 142t3 130t1 107q0 13 9 21.5t21 8.5z" />
    <glyph glyph-name="O" unicode="O" horiz-adv-x="754" 
d="M665 675q41 -18 58 -66q27 -77 -13 -228q-15 -59 -39 -128.5t-58 -149.5q-28 -68 -56.5 -129.5t-51.5 -108.5t-38 -75l-15 -28q-7 -13 -22 -16h-5q-11 0 -21 8q-13 13 -37.5 46t-55.5 79.5t-66.5 104t-69.5 119.5q-39 71 -69 134.5t-50 119.5q-50 138 -38 219
q6 43 25.5 65t37.5 32q37 19 74 21q34 1 66 -14q79 -38 133 -171q9 -20 15 -39q10 22 21 41q75 131 156 165q60 26 119 -1zM652 396q22 83 22 128t-7 65q-6 16 -13 22.5t-13 8.5q-35 16 -72 1q-63 -28 -127 -139q-12 -22 -21.5 -42t-16.5 -35q-8 -18 -13 -33
q-3 -10 -11.5 -15.5t-18.5 -4.5q-23 2 -28 24q-4 16 -9 34q-5 15 -11 35t-15 42q-44 111 -103 139q-18 8 -35 8q-23 0 -51 -14q-8 -5 -18 -16t-14 -37q-9 -62 29.5 -173.5t120.5 -261.5q28 -50 55.5 -95.5t52.5 -84.5t47 -70t38 -52q11 21 26.5 52.5t34 70t38 82.5t39.5 91
q32 78 56 145.5t38 124.5z" />
    <glyph glyph-name="P" unicode="P" horiz-adv-x="588" 
d="M401 685q84 -23 131 -110q50 -95 50 -261q0 -124 -51 -204q-48 -74 -130 -94q-27 -7 -59 -7q-35 0 -71 9t-71 28q-61 32 -108 85q1 -73 2 -137t2 -112t2 -76t1 -29q0 -13 -8.5 -22t-20.5 -9h-1q-12 0 -21 8.5t-9 20.5q0 1 -1 45.5t-2.5 117t-2.5 165t-0.5 191t2.5 195.5
t8 177q1 13 10 21t22 7t21 -10t7 -22q-2 -17 -2.5 -34.5t-1.5 -36.5q37 32 85 57q26 14 52.5 23.5t52.5 14.5q30 7 58 6.5t54 -7.5zM386 74q66 17 101 78.5t35 161.5q0 150 -43 233q-35 65 -93 80q-24 6 -49 4.5t-48.5 -7t-43.5 -14t-34 -15.5q-44 -23 -74 -49.5t-42 -45.5
q-2 -64 -2.5 -131t-0.5 -133q23 -45 58 -79.5t78 -57.5q41 -21 81.5 -27.5t76.5 2.5z" />
    <glyph glyph-name="Q" unicode="Q" horiz-adv-x="756" 
d="M665 675q41 -18 58 -66q26 -74 -13 -228q-15 -59 -39.5 -128.5t-57.5 -149.5l-64 -145q16 -34 31 -72t29 -82q4 -12 -1.5 -23t-17.5 -15q-3 -1 -9 -1q-10 0 -18 5.5t-11 15.5q-8 27 -17.5 52t-19.5 49q-28 -57 -45.5 -90.5t-17.5 -34.5q-7 -13 -22 -16h-5q-11 0 -21 8
q-13 13 -37.5 46t-56 79.5t-67 104t-69.5 119.5q-77 143 -118 254q-50 138 -38 219q6 43 25.5 65t37.5 32q37 19 74 21q32 1 66 -14q79 -38 133 -171q5 -10 8 -19.5t7 -19.5q10 22 21 41q72 130 155 165q61 26 120 -1zM652 396q11 42 16 73.5t5.5 54.5t-1.5 39t-6 26
q-5 16 -12.5 22.5t-12.5 8.5q-35 16 -72 1q-32 -14 -63.5 -49t-62.5 -90q-13 -22 -22 -41.5t-16 -34.5q-8 -18 -14 -34q-8 -22 -31 -20q-22 2 -27 24q-4 16 -9 34q-5 15 -11 35t-15 42q-46 112 -103 139q-18 8 -35 8q-23 0 -51 -14q-8 -5 -18 -16t-14 -37
q-9 -62 29.5 -173.5t120.5 -261.5q27 -50 54.5 -95.5t53 -84.5t47 -70t37.5 -52q12 22 28 54.5t35 73.5q-21 42 -40.5 75t-34.5 55.5t-24 35l-9 12.5q-8 10 -7 22t11 20q9 8 21.5 7t20.5 -11q1 -2 20 -27t47 -73q7 -11 13.5 -22t13.5 -25q11 24 22 48.5t22 50.5
q32 78 56 145.5t38 124.5z" />
    <glyph glyph-name="R" unicode="R" horiz-adv-x="629" 
d="M403 41q24 -17 59.5 -46t68.5 -64.5t57 -75.5t24 -79q0 -13 -9 -21.5t-21 -8.5q-13 0 -21.5 8.5t-8.5 21.5q0 38 -51 98q-24 29 -57.5 59t-75.5 59q-39 28 -81 52.5t-81 42.5q-28 13 -53.5 21t-46.5 13q-4 0 -7 0.5t-6 0.5q0 -71 1 -133.5t2 -109t2 -74t1 -28.5
q0 -13 -8.5 -22t-20.5 -9h-1q-12 0 -20.5 8.5t-9.5 20.5q0 1 -1 45.5t-2.5 117t-2.5 165t-0.5 191t2.5 195.5t8 177q1 13 10.5 21t21.5 7q13 -1 21 -10t7 -22l-3 -59q23 22 49.5 39.5t57.5 29.5q26 11 52.5 17t54.5 8q56 3 106 -12q89 -29 134 -112q23 -45 30.5 -100.5
t-3.5 -123.5q-13 -99 -88 -158q-59 -47 -154 -65q-15 -3 -30 -4.5t-30 -3.5q31 -17 62.5 -36t61.5 -41zM115 180q39 -4 96.5 -5t116.5 10q173 33 194 173q16 106 -15.5 176t-104.5 93q-42 13 -87 10t-87 -20.5t-76.5 -47.5t-55.5 -69q-2 -77 -3 -157.5t-1 -158.5
q6 -1 11.5 -1.5t11.5 -2.5z" />
    <glyph glyph-name="S" unicode="S" horiz-adv-x="582" 
d="M443 619q18 -15 37.5 -37t37 -52t31 -68t20.5 -85q2 -12 -6 -22t-20 -12t-22 5.5t-12 20.5q-9 67 -37 118t-66 84.5t-82.5 49t-87.5 13.5q-28 -2 -56 -12t-50.5 -31.5t-37.5 -54.5t-16 -79q-2 -52 15.5 -89.5t48 -65t70.5 -49t83 -41.5q36 -17 71.5 -35.5t64 -42
t47.5 -54t22 -70.5q8 -105 -61 -178q-29 -29 -66.5 -49.5t-81.5 -28.5q-12 -2 -24 -3t-24 -1q-39 0 -72 12q-62 23 -79 79q-4 12 2 23t18 15q12 3 23 -3t14 -18q5 -16 18.5 -26.5t31.5 -15.5t39 -6t42 3q32 6 62.5 21t53 39.5t35 57.5t9.5 75q-2 27 -16.5 48.5t-37.5 39
t-53.5 33t-63.5 31.5q-45 21 -89.5 45t-80.5 57q-43 41 -63 89.5t-18 109.5q2 52 18.5 95.5t48.5 75.5q29 29 67.5 45.5t82.5 18.5q55 3 110 -17t100 -58z" />
    <glyph glyph-name="T" unicode="T" horiz-adv-x="557" 
d="M523 698q12 0 21 -8.5t10 -20.5q0 -13 -8.5 -22t-20.5 -9q-54 -2 -110 -4.5t-110 -4.5q5 -88 7 -185.5t2 -192t-2 -181t-3.5 -152t-3 -105t-1.5 -40.5q-1 -12 -9.5 -20.5t-20.5 -8.5h-2q-12 1 -20.5 10t-7.5 21q0 1 1.5 40.5t3 104.5t3.5 151t2 180t-2 190.5t-7 184.5
q-44 -3 -82 -5t-66 -4t-44.5 -3l-16.5 -1h-2q-12 0 -20.5 8t-9.5 20t7 21.5t21 10.5l21.5 1.5t57.5 3.5t84 5t102 5.5t112 5t114 4.5z" />
    <glyph glyph-name="U" unicode="U" horiz-adv-x="616" 
d="M564 670l2 -23.5t4.5 -64.5t6 -96.5t6.5 -121.5q3 -61 5 -133.5t2 -150t-1.5 -156.5t-6.5 -152q-1 -12 -9.5 -20t-20.5 -8h-2q-12 1 -20.5 10t-7.5 22q4 66 6 137.5t2 143.5t-1.5 142t-4.5 134q-5 -29 -11 -59l-12 -60q-23 -100 -49.5 -178.5t-58.5 -136.5
q-84 -155 -201 -155q-55 0 -94 45q-54 65 -69 220q-6 60 -6.5 133t4.5 160q4 72 11 139t14 118t11.5 82t4.5 32q2 12 12 19t23 5q12 -2 19 -12t5 -22q0 -1 -4.5 -31.5t-11 -80.5t-13.5 -116t-11 -137q-5 -84 -4.5 -154.5t5.5 -128.5q4 -43 11 -74t14.5 -53.5t15.5 -36.5
t15 -23q21 -24 48 -24q81 0 149 124q59 109 101 299q18 82 30 161t19.5 141.5t10.5 101t3 39.5q0 11 8.5 19.5t20.5 8.5t20.5 -8t9.5 -20z" />
    <glyph glyph-name="V" unicode="V" horiz-adv-x="628" 
d="M602 693q11 -6 13.5 -18t-3.5 -23q-22 -36 -45 -93t-45 -125.5t-42.5 -144t-38.5 -148.5t-33.5 -140t-26.5 -117.5t-17 -81.5t-6 -32q-3 -18 -22 -23q-2 -1 -8 -1q-14 0 -22 10q-6 7 -14.5 21t-20.5 42.5t-29 76t-40 121.5q-29 94 -59.5 199t-58.5 202
q-23 80 -41.5 143.5t-29.5 96.5q-4 12 2 23t17 15q12 5 23 -1t15 -18q12 -34 30.5 -98t41.5 -144q28 -97 58 -201.5t60 -198.5q16 -51 29.5 -91t24.5 -69l3 -7q11 52 27.5 126.5t37.5 159.5q50 200 94.5 332.5t84.5 196.5q6 11 18 14t23 -4z" />
    <glyph glyph-name="W" unicode="W" horiz-adv-x="883" 
d="M848 688q11 -5 15.5 -16.5t-0.5 -22.5q-16 -36 -32.5 -92.5t-32.5 -124.5t-31 -143t-28 -148.5t-24 -140t-19 -117t-12.5 -81.5t-4.5 -32q-3 -22 -24 -25q-2 -1 -6 -1q-17 0 -25 14q-3 4 -7.5 12t-10.5 22.5t-14 36t-18 54.5q-13 39 -28.5 89.5t-32.5 111.5
q-22 78 -42 152.5t-35 132.5q-19 -55 -38 -121t-35.5 -132.5t-31 -128.5t-25 -110.5t-16.5 -78t-6 -30.5q-3 -20 -24 -23q-9 -2 -17 1.5t-13 11.5q-4 6 -10 19.5t-14.5 41.5t-21 74.5t-28.5 118.5q-20 92 -42 195.5t-42 200.5q-17 85 -31.5 152t-22.5 101q-3 12 3.5 22.5
t18.5 13.5t23 -3.5t14 -18.5q8 -35 22.5 -102.5t31.5 -152.5q20 -97 41.5 -200t42.5 -195q10 -45 18 -78t15 -59q8 35 17.5 77t20.5 89q35 150 67.5 256.5t60.5 169.5q10 19 30 17q22 -2 27 -22q6 -23 16 -63t23 -89.5t28.5 -106.5t32.5 -115q21 -75 37 -127t28 -87
q8 51 19 119t25 143q35 199 67.5 330t61.5 194q5 11 16.5 15.5t22.5 -0.5z" />
    <glyph glyph-name="X" unicode="X" horiz-adv-x="579" 
d="M411 -1q63 -106 99 -156.5t37 -50.5q8 -10 6.5 -22.5t-11.5 -20.5q-8 -6 -19 -6q-14 0 -23 11q-2 2 -38.5 53t-101.5 160q-12 20 -26 44t-29 52q-13 -26 -24.5 -49.5t-22.5 -43.5q-59 -109 -93.5 -161t-36.5 -54q-9 -12 -24 -12q-9 0 -18 6q-10 8 -12 20t6 22q1 0 35 51
t91 158q14 27 30 58.5t34 68.5q-53 100 -116 230.5t-133 298.5q-5 12 0 23.5t16 16.5t22.5 0t16.5 -17q63 -149 120 -269.5t106 -214.5q44 94 93.5 214t102.5 269q5 12 16 17.5t22 0.5q12 -4 17.5 -15.5t1.5 -22.5q-60 -168 -115 -298.5t-102 -230.5q20 -38 38 -70.5
t35 -59.5z" />
    <glyph glyph-name="Y" unicode="Y" horiz-adv-x="555" 
d="M512 673q0 -2 4 -26.5t8.5 -65t8.5 -95t4 -115.5q1 -74 -5 -139.5t-17 -122.5q-30 -148 -98 -237q-88 -115 -235 -129h-3q-11 0 -19.5 8t-10.5 19q-1 13 7 22t20 11q121 10 193 105q54 72 81.5 188.5t26.5 272.5q0 22 -0.5 42t-1.5 40q-5 -19 -10 -37.5t-12 -38.5
q-41 -131 -99 -205q-78 -101 -183 -101q-65 0 -105 51t-49 152q-8 77 3 182q4 44 10 83t11.5 69t10 48t4.5 20q3 12 13.5 18.5t22.5 4.5q12 -3 18.5 -13.5t3.5 -23.5l-4 -17.5t-9.5 -47t-11.5 -68t-10 -80.5q-9 -98 -3 -170q9 -85 37 -120q22 -28 58 -28q75 0 135 78
q52 65 90 186q16 51 27 100.5t17.5 88.5t9 63.5l2.5 24.5q2 11 10 19t19 9t20 -6.5t11 -18.5z" />
    <glyph glyph-name="Z" unicode="Z" horiz-adv-x="594" 
d="M578 -165q5 -12 0 -23t-17 -16q-1 0 -12 -4.5t-30 -10.5t-45 -12.5t-56 -11.5t-58.5 -8t-55.5 -3h-17q-76 3 -135 31q-88 44 -116 144q-38 132 31 284q26 59 68 119.5t99 122.5t111.5 110t94.5 80q-29 1 -64.5 1t-73.5 -4t-77.5 -11.5t-75.5 -21.5q-12 -5 -23 0.5
t-16 16.5q-5 12 0.5 23t16.5 16q109 41 264 41h1q58 0 95 -4t39 -4q21 -3 26 -23q2 -9 -1.5 -18t-11.5 -14l-24 -17t-61.5 -47t-84 -72t-92.5 -93q-41 -45 -81.5 -100.5t-69 -116t-39.5 -125t7 -127.5q21 -75 85 -106q33 -16 72.5 -21t79.5 -3t77.5 9.5t66.5 15t46.5 14
t18.5 6.5q11 5 22 -0.5t16 -16.5z" />
    <glyph glyph-name="bracketleft" unicode="[" horiz-adv-x="259" 
d="M109 -113q-34 0 -53 17q-6 6 -10 16t-6 29q-2 11 -2.5 26.5t-2.5 35.5q-2 36 -2.5 83.5t0.5 100.5q0 47 1.5 99.5t4.5 103t7.5 94.5t10.5 75q5 27 13 45t24 25q20 8 41 11.5t38.5 4.5t29 0.5t12.5 -0.5q13 -1 21 -10t7 -22q-1 -12 -10 -20.5t-22 -7.5q-14 1 -29 0
q-13 -1 -29 -3t-30 -7q-2 -6 -7.5 -29.5t-10.5 -77.5q-4 -43 -6.5 -97t-4.5 -115q-3 -124 -0.5 -207.5t7.5 -108.5q5 -1 18.5 -0.5t36.5 5.5q10 2 19.5 4.5t16.5 4.5q8 2 15 4q12 4 23 -1.5t15 -17.5t-2 -23t-18 -15q-1 0 -19.5 -5.5t-43.5 -10.5q-32 -6 -53 -6z" />
    <glyph glyph-name="bracketright" unicode="]" horiz-adv-x="260" 
d="M150 -113q-22 0 -53 6q-25 5 -43.5 10.5t-19.5 5.5q-12 4 -18 15t-2 23t15 17.5t23 1.5q7 -2 15 -4q7 -2 16 -4.5t20 -4.5q23 -5 36.5 -5.5t18.5 0.5q5 25 7.5 108.5t-0.5 207.5q-2 61 -4.5 115t-6.5 97q-5 54 -10.5 77.5t-7.5 29.5q-15 5 -30.5 7t-28.5 3q-15 1 -29 0
q-13 -1 -22 7.5t-10 20.5q-1 13 7 22t21 10q1 0 12.5 0.5t29 -0.5t38.5 -4.5t41 -11.5q16 -7 24 -25t13 -45q6 -31 10.5 -75t7.5 -94.5t4.5 -103t1.5 -99.5q1 -53 0.5 -100.5t-2.5 -83.5q-2 -20 -2.5 -35.5t-2.5 -26.5q-2 -19 -6 -29t-10 -16q-19 -17 -53 -17z" />
    <glyph glyph-name="underscore" unicode="_" horiz-adv-x="569" 
d="M502 -97q13 1 22 -7.5t10 -22.5l1 -1q-1 -11 -9.5 -20t-19.5 -10h-28t-69 -1t-93.5 -1.5t-100.5 -1.5t-90.5 -1.5t-63.5 -0.5q-13 0 -21.5 8t-9.5 22q0 11 9 21t21 8q27 0 70.5 0.5t92.5 1t98.5 1.5t89.5 2t65 2t26 1z" />
    <glyph glyph-name="grave" unicode="`" horiz-adv-x="181" 
d="M161 572q9 -10 8.5 -22.5t-10.5 -21.5v-1q-9 -7 -21.5 -6t-20.5 9q-1 2 -28 29t-70 78q-8 10 -7.5 22t11.5 21q8 7 21 6.5t20 -10.5q26 -32 44 -52t29.5 -31.5t17 -16t6.5 -4.5z" />
    <glyph glyph-name="a" unicode="a" 
d="M401 501q11 -2 18.5 -11.5t5.5 -20.5l-1.5 -17t-4 -44.5t-5 -63t-4.5 -73.5q-6 -89 -6 -146q0 -44 2.5 -60t3.5 -19q7 -9 6.5 -20.5t-8.5 -19.5q-9 -9 -21 -9q-13 0 -22 9q-5 4 -8.5 11t-6 18.5t-4 29.5t-1.5 44q-1 24 -0.5 54.5t2.5 66.5q-14 -35 -29.5 -64.5
t-32.5 -55.5q-23 -35 -45 -57t-41.5 -33.5t-36.5 -15.5t-30 -3q-47 3 -77 47q-26 39 -34 99q-6 49 4 103.5t35 105.5q25 53 59.5 89t72.5 50q46 16 91 -2q40 -17 71 -60q3 11 6.5 22.5t6.5 23.5q2 11 12 17.5t22 4.5zM235 143q27 42 52.5 100t48.5 130q-14 2 -23 14
q-36 56 -77 56q-10 0 -23 -5q-27 -10 -53 -38t-46 -70q-21 -43 -30 -89t-4 -87q5 -42 20.5 -66.5t35.5 -26.5t46.5 20t52.5 62z" />
    <glyph glyph-name="b" unicode="b" horiz-adv-x="438" 
d="M253 495q38 -14 72.5 -50t59.5 -89q25 -51 35 -105.5t4 -103.5q-9 -70 -42 -107q-36 -42 -93 -37q-107 9 -175 177q-4 9 -7.5 18t-6.5 19q0 -24 0.5 -45t-0.5 -39q0 -47 -3 -74q-4 -41 -18 -53q-9 -9 -21 -9t-21 9q-8 8 -9 19t6 20q1 3 3 16.5t3 47t0 91t-5 149.5
q-2 52 -5 100.5t-5.5 86t-4 60.5l-1.5 23q-1 13 7 22t20 10q13 2 22 -6t11 -20q10 -95 24 -175q26 28 58 43q45 19 92 2zM364 154q5 41 -3.5 87t-29.5 89q-20 42 -46 70t-53 38q-54 20 -101 -51q-5 -8 -13 -11q23 -103 51 -173q29 -71 63 -106q30 -31 62 -34q19 -2 32 7
t21 23t11.5 30.5t5.5 30.5z" />
    <glyph glyph-name="c" unicode="c" horiz-adv-x="400" 
d="M344 88q11 5 22.5 0t16.5 -16t0 -22.5t-16 -16.5q-48 -20 -87 -28t-71 -8q-38 0 -66 9.5t-47 21.5q-38 26 -59 68.5t-23 98.5q-2 57 17 111.5t54 100.5q32 42 71 67t77 29q40 5 68 -16.5t36 -63.5q2 -12 -4.5 -22.5t-19.5 -12.5q-12 -2 -22.5 4.5t-12.5 19.5
q-7 35 -39 32q-25 -3 -54 -23t-53 -51q-29 -38 -44 -82.5t-14 -91.5q2 -82 55 -118q74 -48 215 10z" />
    <glyph glyph-name="d" unicode="d" horiz-adv-x="438" 
d="M392 651q12 -1 20 -10t7 -22l-1.5 -23t-4 -60.5t-5.5 -86t-5 -100.5q-4 -92 -5 -149.5t0 -91t3 -47t3 -16.5q7 -9 6 -20t-9 -19q-9 -9 -21 -9t-21 9q-14 12 -18 53q-3 27 -3 74v84q-3 -10 -6.5 -19t-7.5 -18q-68 -168 -175 -177q-57 -5 -93 37q-33 37 -42 107
q-6 49 4 103.5t35 105.5q26 53 60 89t72 50q47 17 92 -2q32 -15 58 -43q14 80 24 175q2 12 11 20t22 6zM269 203q28 70 51 173q-8 3 -13 11q-36 56 -78 56q-10 0 -23 -5q-27 -10 -53 -38t-46 -70q-21 -43 -29.5 -89t-3.5 -87q1 -14 5 -30.5t12 -30.5t21 -23t32 -7
q32 3 63 34q33 36 62 106z" />
    <glyph glyph-name="e" unicode="e" horiz-adv-x="399" 
d="M343 88q11 5 22.5 0t16.5 -16t0 -22.5t-16 -16.5q-48 -20 -87 -28t-71 -8q-38 0 -66 9.5t-46 21.5q-39 26 -60 68.5t-23 98.5q-1 57 17.5 111.5t53.5 100.5q32 42 71 67t77 29q40 5 68 -16.5t36 -63.5q4 -19 2 -41.5t-15.5 -47.5t-41 -50.5t-74.5 -50.5
q-42 -22 -79 -34.5t-54 -17.5q6 -71 54 -103q74 -48 215 10zM132 370q-44 -57 -55 -125q19 6 46.5 16.5t56.5 25.5q53 28 77 58q27 33 20 67q-6 32 -32 32h-7q-25 -3 -54 -23t-52 -51z" />
    <glyph glyph-name="f" unicode="f" horiz-adv-x="428" 
d="M379 238q11 4 22.5 -1t15.5 -17q5 -11 0 -22.5t-17 -15.5q-50 -20 -110 -32.5t-131 -19.5q-5 0 -10.5 -0.5t-10.5 -0.5q5 -43 8.5 -69.5t3.5 -27.5q2 -13 -5.5 -22.5t-19.5 -11.5q-2 -1 -5 -1q-11 0 -19.5 7.5t-10.5 18.5q0 2 -3.5 30t-8.5 73q-8 0 -14 -0.5t-11 -0.5
h-10q-2 0 -4 1q-13 0 -21.5 9t-8.5 21q1 13 10 21.5t21 8.5q1 0 9.5 -0.5t24.5 0.5q-2 24 -3 50.5t-1 53.5q0 121 20 203q29 112 94 143q35 18 61.5 14t43.5 -13q64 -39 94 -177q5 -24 8.5 -46.5t5.5 -39.5t2.5 -27.5t0.5 -11.5q1 -12 -7.5 -21t-20.5 -10q-13 -1 -22 7.5
t-10 20.5l-0.5 10t-2.5 26t-5 36.5t-8 43.5q-11 55 -28 90t-37 47q-7 4 -18 5.5t-31 -7.5q-39 -20 -59.5 -95t-20.5 -198q0 -26 1 -52t3 -49q25 2 55 5.5t62 9t64.5 14t63.5 20.5z" />
    <glyph glyph-name="g" unicode="g" horiz-adv-x="454" 
d="M395 501q11 0 18.5 -7t9.5 -18q0 -2 3 -20.5t6 -50.5t5 -74.5t1 -90.5q-1 -57 -7 -108.5t-17 -96.5q-28 -115 -88 -187q-87 -102 -232 -102q-13 0 -21.5 8.5t-8.5 21.5q0 12 8.5 21t21.5 9q117 0 186 81q46 54 71 143.5t27 209.5q2 39 0 74q-43 -124 -95 -204
q-23 -35 -45 -57t-41.5 -33.5t-36.5 -15.5t-30 -3q-47 3 -77 47q-14 19 -22 44t-12 55q-7 49 3.5 103.5t34.5 105.5q26 53 60.5 89t72.5 50q46 16 91 -2q40 -17 71 -60l12 46q3 11 11.5 17t19.5 5zM233 143q27 42 52.5 100t48.5 130q-14 2 -23 14q-36 56 -77 56
q-11 0 -23 -5q-27 -10 -53.5 -38t-46.5 -70q-20 -43 -29 -89t-4 -87q5 -42 20.5 -66.5t35.5 -26.5t46.5 20t52.5 62z" />
    <glyph glyph-name="h" unicode="h" horiz-adv-x="403" 
d="M351 464q17 -20 26 -49.5t14 -71.5q3 -30 2.5 -66t-3.5 -78q-3 -35 -7.5 -67t-8.5 -56t-7 -39t-3 -16q-2 -12 -12.5 -18.5t-22.5 -4.5q-12 3 -19 13.5t-4 22.5l3 14.5t6.5 37.5t7.5 54t7 64q4 56 3 95.5t-5.5 65t-11 40t-11.5 21.5q-11 14 -29 14q-47 0 -85 -56
q-35 -50 -61 -143q-11 -40 -18.5 -78.5t-12 -69t-6.5 -49.5l-2 -19q-1 -12 -10 -20t-20 -8h-2q-13 2 -21 11t-7 21q0 1 2 35t4 87t3 118t0 130t-5.5 122t-13.5 93q-3 12 3 22.5t18 13.5t23 -3t14 -19q6 -24 10 -56t6.5 -69.5t4 -78.5t1.5 -83q9 23 19 41.5t21 35.5
q58 82 135 82q45 0 75 -36z" />
    <glyph glyph-name="i" unicode="i" horiz-adv-x="136" 
d="M119 29q1 -13 -7.5 -22t-21.5 -10h-1q-12 0 -20.5 8.5t-9.5 20.5q0 1 -1.5 38.5t-4 94t-4 123t-1.5 124.5q0 13 8.5 21.5t21.5 8.5q12 0 21 -8.5t9 -21.5q0 -38 1 -81t2 -84.5t2.5 -79.5t2.5 -67.5t2 -47zM75 478q-4 3 -13 15.5t-20 30t-22 37t-17 37t-6 31t10 18.5
q14 7 24 1t17 -16.5t10 -21.5t4 -14q0 1 5 11t13 21t19 18t23 2q15 -7 9.5 -34t-18.5 -57q-15 -35 -38 -79z" />
    <glyph glyph-name="j" unicode="j" horiz-adv-x="146" 
d="M116 414q0 -1 7 -62.5t8 -178.5q0 -69 -2.5 -127t-8.5 -105q-16 -126 -56 -168q-15 -17 -31 -22t-27 -5q-12 0 -21 8.5t-9 21.5q0 12 9 21t21 9q2 0 5.5 1t8.5 6q4 4 9 13t10.5 25t11 39.5t9.5 57.5q6 45 8.5 101t2.5 123q-1 115 -8 175t-7 62q-1 12 7 21.5t20 10.5
q13 2 22.5 -6t10.5 -21zM79 478q-4 3 -13 15.5t-20 30t-22 37t-17 37t-6 31t10 18.5q15 8 25 0.5t17 -18.5q8 -13 13 -33q7 18 17 31q8 11 19 18.5t24 2.5q15 -7 9.5 -34t-18.5 -57q-15 -35 -38 -79z" />
    <glyph glyph-name="k" unicode="k" horiz-adv-x="398" 
d="M339 125q56 -53 56 -98q0 -12 -9 -21t-21 -9q-13 0 -21.5 9t-8.5 21q0 3 -3 11.5t-16 24t-40 38t-74 52.5q-29 18 -55.5 32.5t-47.5 25.5q-1 -38 -2 -70.5t-2.5 -57t-2.5 -40t-1 -18.5q-1 -11 -9.5 -19.5t-20.5 -8.5h-1q-13 1 -21.5 10.5t-7.5 21.5q0 1 2 35t4 87t3 118
t0 130t-5.5 122t-13.5 93q-3 12 3.5 22.5t18.5 13.5t22.5 -3t13.5 -19q7 -26 11.5 -61.5t7 -77t3 -86t0.5 -89.5q20 13 45.5 31.5t52.5 41t55 48t52 54.5q8 10 20 11t22 -7t11 -20.5t-7 -21.5q-27 -32 -57 -60t-59 -52t-56 -43.5t-48 -33.5q21 -11 47.5 -26t54.5 -32
q67 -43 105 -79z" />
    <glyph glyph-name="l" unicode="l" horiz-adv-x="107" 
d="M42 651q13 1 22 -7t10 -21q5 -67 8 -137.5t4.5 -136.5t1.5 -124.5t-0.5 -102t-1.5 -69.5t-1 -27q0 -12 -8.5 -20.5t-21.5 -8.5q-13 1 -21.5 10t-8.5 21q0 1 1 26.5t1.5 69t0.5 101t-1.5 123t-4.5 135t-8 136.5q-1 12 7.5 21.5t20.5 10.5z" />
    <glyph glyph-name="m" unicode="m" horiz-adv-x="646" 
d="M524 498q17 -3 38.5 -16t36.5 -46q11 -24 16 -54t5 -62.5t-3 -64.5t-7 -60q-5 -29 -11 -57.5t-12.5 -53.5t-13.5 -44t-13 -28q-8 -15 -25 -15q-8 0 -16 5q-11 6 -14 18t4 23q6 9 18.5 54t22.5 107q11 70 10 124t-15 83q-8 17 -16 21.5t-14 5.5q-5 1 -15 1t-22.5 -7
t-27.5 -25t-31 -52q-20 -46 -33.5 -100.5t-22.5 -98.5l-11 -49q-3 -12 -13.5 -18.5t-22.5 -3.5q-12 2 -18.5 12.5t-4.5 22.5q2 18 6 40q2 19 5 43t5 51q2 44 0 74.5t-6.5 51t-10 32t-9.5 17.5q-10 11 -23 11q-37 0 -68 -54q-15 -26 -28 -62t-24 -82q-10 -40 -16.5 -79
t-10 -69.5t-5 -49.5l-1.5 -19q-1 -11 -9.5 -19t-20.5 -9q-11 0 -20 8t-10 19q0 3 -2.5 27.5t-5 62t-5 84.5t-3.5 95.5t0.5 94.5t6.5 82q2 13 11.5 20.5t21.5 5.5q13 -2 20.5 -12t5.5 -22q-5 -34 -6 -77.5t0 -91.5q11 38 23 68.5t26 54.5q23 39 49 59q34 25 71 25
q41 0 69 -33q26 -32 35 -88q14 30 28.5 51.5t31.5 37.5q44 38 100 30z" />
    <glyph glyph-name="n" unicode="n" horiz-adv-x="431" 
d="M370 464q31 -40 40 -121q3 -30 2.5 -66t-3.5 -78q-3 -35 -7.5 -67t-8.5 -56t-7 -39t-3 -16q-2 -12 -12.5 -18.5t-22.5 -4.5q-13 3 -19.5 13.5t-3.5 22.5l2.5 14.5t6.5 37.5t8 54t7 64q4 56 3 95.5t-5.5 65t-11 40t-12.5 21.5q-10 14 -28 14q-46 0 -86 -56
q-36 -53 -61 -144q-11 -40 -18.5 -78.5t-12 -68.5t-6 -49l-1.5 -19q-2 -11 -10 -19t-20 -9q-12 0 -20 8t-10 19q0 3 -2.5 27.5t-6 62t-6 84.5t-4 95.5t0 95t7.5 82.5q2 12 12 19.5t22 5.5q13 -2 20 -12t5 -23q-6 -38 -7 -91t1 -107q28 97 68 155q58 82 135 82q45 0 75 -36z
" />
    <glyph glyph-name="o" unicode="o" horiz-adv-x="496" 
d="M429 490q34 -12 46 -47q15 -45 -12 -125q-10 -29 -25.5 -64t-35.5 -75q-17 -33 -34.5 -62.5t-31 -52t-22.5 -36.5t-10 -15q-8 -12 -20 -13q-2 -1 -5 -1q-11 0 -19 7q-9 7 -25 24t-35.5 40.5t-40.5 51.5t-41 58q-113 164 -101 245q6 45 48 64q54 23 101 -1q47 -23 80 -89
q5 8 10.5 15t11.5 15q31 37 66 55q47 23 95 6zM349 207q29 56 44 95t21 64t6 38.5t-2 19.5q-2 7 -9 10q-45 15 -94 -43q-11 -13 -19.5 -26t-14.5 -24q-7 -12 -13 -24q-8 -20 -30 -18q-20 2 -27 23q-2 9 -8 25t-15 32.5t-21.5 31.5t-27.5 23q-11 6 -23 6q-13 0 -28 -6
q-5 -2 -8 -5.5t-4 -11.5t2 -28t20 -58q12 -26 29.5 -55.5t40.5 -62.5q29 -43 57.5 -78.5t48.5 -57.5q14 23 34.5 57t40.5 73z" />
    <glyph glyph-name="p" unicode="p" horiz-adv-x="427" 
d="M373 462q33 -37 42 -107q6 -49 -3.5 -104t-32.5 -106q-24 -53 -57.5 -88.5t-71.5 -49.5q-45 -17 -89 2q-25 11 -45 31q-8 -58 -14.5 -124t-11.5 -143q-1 -12 -9.5 -20t-20.5 -8h-1q-13 1 -21 10t-8 21q0 1 1 28t2 71.5t2 102t2 117.5v130t-2 103q-1 35 -2.5 58t-3 37
t-2.5 20.5t-2 8.5q-6 8 -5.5 19t8.5 19q9 9 21.5 9t20.5 -9q8 -7 12 -19.5t7 -36.5q2 -16 3 -37.5t2 -48.5q1 -19 1.5 -40t0.5 -46l15 49q59 178 169 188q56 5 93 -37zM324 170q20 44 28.5 90t3.5 88q-2 13 -6 29.5t-12 31t-20.5 23t-31.5 7.5q-72 -6 -118 -147
q-11 -35 -21.5 -77.5t-18.5 -93.5q1 -2 5 -6q24 -38 52 -51q22 -10 44 -1q26 10 51 38t44 69z" />
    <glyph glyph-name="q" unicode="q" horiz-adv-x="447" 
d="M378 490q9 9 21.5 9t20.5 -9q8 -8 9 -19t-6 -20q-1 -2 -2.5 -8.5t-3.5 -20t-4 -36.5t-5 -58q-7 -90 -12 -233q-2 -61 -3.5 -118.5t-2.5 -102t-1.5 -72l-0.5 -27.5q0 -13 -9 -21.5t-21 -8.5q-13 0 -21.5 9t-8.5 21q-1 75 -4 141.5t-9 126.5q-24 -24 -48 -34
q-44 -19 -89 -2q-37 14 -70.5 49.5t-58.5 88.5q-23 51 -32.5 106t-3.5 104q9 70 42 107q38 42 93 37q59 -6 102 -54q42 -45 73 -133q5 -16 10 -32.5t9 -33.5l7 104q3 42 6.5 68t7 40.5t7.5 21t8 10.5zM296 115q3 6 9 9q-15 100 -39 168q-26 76 -60 113q-30 31 -63 34h-5
q-18 0 -29.5 -9.5t-19 -23.5t-11.5 -29.5t-5 -28.5q-5 -42 3 -88t28 -90q19 -41 44 -69t51 -38q22 -9 44 1q28 12 53 51z" />
    <glyph glyph-name="r" unicode="r" horiz-adv-x="414" 
d="M410 340q2 -12 -6.5 -21.5t-20.5 -10.5q-13 -2 -22 6t-11 21q-9 105 -55 105q-47 0 -85 -56q-35 -50 -61 -143q-12 -40 -19.5 -78.5t-12 -69t-6 -49.5l-1.5 -19q-1 -11 -9.5 -19t-20.5 -9q-11 0 -19.5 8t-10.5 19q0 3 -2.5 27.5t-6 62t-6 84.5t-4 95.5t0 95t7.5 82.5
q2 12 12 19.5t23 5.5q12 -2 19 -12t5 -23q-6 -38 -7 -91t1 -107q28 97 68 155q58 82 135 82q20 0 44 -10t43 -44q22 -38 28 -106z" />
    <glyph glyph-name="s" unicode="s" horiz-adv-x="378" 
d="M309 242q57 -44 54 -112q-3 -61 -44 -96q-38 -33 -93 -36h-12q-32 0 -65 10.5t-61 32t-48.5 53.5t-27.5 74q-2 13 5.5 23t19.5 12t22.5 -5.5t12.5 -19.5q5 -31 20 -54.5t36 -38.5t45.5 -22t48.5 -5q7 0 20.5 3t26.5 10.5t23 22t11 38.5q1 20 -7 35t-23.5 27.5t-38 23
t-50.5 21.5q-23 9 -43.5 18.5t-37.5 20.5q-44 30 -49 75q-5 59 36 98q35 33 86 44q45 9 82 0q23 -6 38.5 -19t21.5 -31q5 -12 -0.5 -23t-17.5 -16q-12 -4 -23 1.5t-15 17.5q-3 8 -23.5 13t-49.5 -1q-5 -1 -18 -5.5t-26.5 -13.5t-23 -23.5t-7.5 -36.5q2 -20 29.5 -34.5
t62.5 -28.5q27 -11 53.5 -23.5t49.5 -29.5z" />
    <glyph glyph-name="t" unicode="t" horiz-adv-x="408" 
d="M372 344q12 -1 20.5 -10t7.5 -22q0 -1 -0.5 -11.5t-2.5 -27.5t-5.5 -39t-8.5 -46q-30 -140 -94 -177q-10 -5 -22 -9.5t-28 -4.5q-12 0 -26 3t-29 11q-67 33 -94 143q-20 83 -20 204q0 13 0.5 25.5t0.5 24.5h-33q-12 1 -20.5 10t-8.5 21q1 12 9.5 20.5t20.5 8.5h1h9.5
t24.5 1q2 33 5 60.5t5.5 48.5t4 33t1.5 14q2 12 12 19.5t23 5.5q12 -2 19.5 -12t5.5 -22q-1 -1 -6 -41.5t-10 -102.5q45 5 101.5 15.5t113.5 32.5q11 5 22 -0.5t16 -16.5q5 -12 0 -23t-17 -16q-65 -25 -128 -36.5t-111 -15.5q0 -14 -0.5 -27.5t-0.5 -27.5q0 -123 20.5 -198
t59.5 -94q20 -9 31 -7.5t17 5.5q20 11 37.5 46.5t28.5 90.5q5 22 8 43t5 37q2 18 3 35q1 13 10 21t22 8z" />
    <glyph glyph-name="u" unicode="u" horiz-adv-x="425" 
d="M351 500q11 0 19.5 -7.5t10.5 -19.5q0 -4 4 -47t7.5 -107.5t4.5 -141t-5 -148.5q-1 -13 -10.5 -21t-21.5 -7q-13 2 -21 11t-7 22q4 46 5 95.5t-1 97.5q-27 -92 -65 -148q-58 -82 -135 -82q-46 0 -75 37q-31 39 -40 120q-3 30 -2.5 66.5t3.5 78.5q3 35 7.5 66.5t8.5 55.5
t7 38.5t3 16.5q2 12 12.5 18.5t22.5 4.5q12 -3 19 -13t4 -23l-3 -14t-6.5 -37.5t-7.5 -54t-7 -64.5q-5 -56 -3.5 -95t6 -65t11 -40.5t12.5 -21.5q11 -14 28 -14q46 0 85 56q35 50 61 143q12 40 19.5 78.5t12 69t6 49.5l1.5 19q1 12 9.5 20t20.5 8z" />
    <glyph glyph-name="v" unicode="v" horiz-adv-x="488" 
d="M468 496q9 -8 9.5 -20.5t-7.5 -22.5q-26 -28 -57.5 -91t-66.5 -157q-14 -36 -25 -69.5t-19 -58.5t-12.5 -40.5l-4.5 -15.5q-5 -15 -20 -20q-6 -2 -9 -2q-11 0 -18 6q-5 4 -12 11.5t-16.5 22t-22 38.5t-30.5 61q-21 46 -43.5 97.5t-43.5 99.5q-17 42 -31.5 75t-22.5 49
q-6 11 -2 23t15 18q11 5 22.5 1.5t17.5 -14.5q9 -18 24 -52t33 -76q20 -48 42 -99t43 -96q11 -23 19 -39t15 -28q8 26 19 59t25 69q76 205 137 269q8 10 20.5 10t21.5 -8z" />
    <glyph glyph-name="w" unicode="w" horiz-adv-x="640" 
d="M610 495q11 -7 13.5 -18.5t-4.5 -22.5q-12 -19 -24.5 -52t-25 -73t-24 -84t-21.5 -85.5t-18 -77.5t-12 -59q-5 -18 -22 -23q-3 -1 -8 -1q-14 0 -22 10q-3 3 -8 10t-14 24.5t-23 49t-35 83.5q-14 33 -25.5 64.5t-21.5 58.5q-18 -41 -35.5 -89.5t-30.5 -90t-21.5 -69.5
t-8.5 -29q-2 -8 -8 -13.5t-14 -7.5q-17 -5 -29 9q-17 19 -43 97t-70 233q-12 42 -22 75t-16 49q-4 12 1.5 23t17.5 16q12 4 23 -1.5t15 -17.5q6 -17 16 -51t22 -76q14 -48 29 -98.5t29 -95.5q7 -27 15 -45q9 31 21.5 68t27 74.5t30 71.5t30.5 59q5 7 13 11t16 2
q18 -2 25 -20q4 -11 11 -30.5t16 -44t20 -53t22 -56.5q11 -27 19.5 -47.5t15.5 -35.5q5 23 11 49t14 55q50 201 92 266q6 11 18 13.5t23 -4.5z" />
    <glyph glyph-name="x" unicode="x" horiz-adv-x="400" 
d="M361 497q11 -5 15.5 -17t-0.5 -23q-36 -78 -69 -141t-62 -111q56 -80 89 -117t34 -37q9 -9 9 -21.5t-9 -21.5t-21 -9t-21 9q-2 1 -25 26.5t-65 79.5l-26 36l-22 -34q-38 -54 -60 -80t-23 -28q-9 -9 -22 -9q-10 0 -20 8q-9 9 -9.5 21.5t8.5 21.5q9 10 21 25q11 13 25 32
t32 45l33 51q-32 48 -70.5 111t-80.5 142q-6 11 -2.5 22.5t14.5 17.5t23 2.5t18 -14.5q36 -68 69.5 -123.5t62.5 -100.5q26 45 55 100t59 122q5 11 17 15.5t23 -0.5z" />
    <glyph glyph-name="y" unicode="y" horiz-adv-x="408" 
d="M344 500q11 1 20 -6.5t11 -18.5q0 -2 3 -22t6 -53t6 -77t3 -94q-1 -59 -5.5 -111.5t-13.5 -98.5q-22 -115 -76 -186q-62 -80 -159 -90h-3q-11 0 -19.5 8t-10.5 19q-2 12 6 21.5t21 11.5q72 7 118 67q25 32 41 75t25 91t12.5 99t3.5 99q-28 -96 -68 -155q-58 -82 -135 -82
q-46 0 -75 37q-31 39 -40 120q-3 31 -2.5 67t3.5 78q3 35 7.5 66.5t8.5 55.5t7 38.5t3 16.5q2 12 12.5 18.5t22.5 4.5t19 -12.5t4 -23.5q-5 -24 -9 -51q-4 -23 -8.5 -54t-6.5 -65q-5 -56 -3.5 -95t6 -65t11 -40.5t12.5 -21.5q11 -14 28 -14q46 0 85 56q35 50 61 143
q12 40 19.5 78.5t12 69t6 49.5l1.5 19q1 11 9.5 19t19.5 9z" />
    <glyph glyph-name="z" unicode="z" horiz-adv-x="423" 
d="M406 61q3 -12 -3 -22.5t-18 -14.5q-1 0 -13.5 -3.5t-33 -7.5t-46.5 -8t-55 -5q-5 -1 -11 -1h-11q-46 0 -78.5 8.5t-54 22.5t-34 30.5t-18.5 33.5q-29 74 21 157q37 61 113 124q23 19 46.5 35.5t44.5 30.5q-34 -1 -71 -5t-70 -13q-12 -4 -22.5 2t-14.5 18t2.5 23t17.5 14
q42 12 87.5 16t84 4.5t64.5 -1.5t28 -2q22 -3 27 -25q3 -22 -16 -32l-15.5 -8t-40 -23t-54.5 -35.5t-60 -45.5q-26 -21 -51 -46.5t-43 -53.5t-25.5 -56.5t3.5 -56.5q12 -32 52 -45q35 -13 96 -11q26 1 50 4.5t43 7.5q22 4 41 10q12 4 23 -2t15 -18z" />
    <glyph glyph-name="braceleft" unicode="{" horiz-adv-x="299" 
d="M143 -113q-53 0 -81 58q-12 26 -8.5 69t13.5 103q2 11 4 24t3 24q-21 7 -36 24q-22 25 -22 59q0 36 25 61q8 7 22 14.5t34 9.5q1 5 1 10.5v13.5q-2 31 -6 66q-4 42 -6 82t4 69q8 33 30.5 52.5t54.5 21.5q33 0 59 -18q30 -20 39 -54q4 -12 -2 -23t-18 -15t-22.5 2
t-14.5 18q-5 15 -16.5 22.5t-22.5 7.5q-22 -2 -28 -28q-5 -21 -2.5 -58t5.5 -74q6 -60 5.5 -92t-14.5 -49q-13 -13 -29 -13q-22 0 -31 -9q-5 -4 -6 -8.5t-1 -8.5q0 -8 5.5 -17.5t19.5 -9.5q16 0 25 -12q11 -12 9.5 -34.5t-9.5 -67.5q-3 -21 -6.5 -43t-5.5 -42
q-2 -29 -0.5 -39t2.5 -12q10 -20 18.5 -22t11.5 -2q14 2 27.5 15.5t16.5 29.5q3 13 13.5 19.5t22.5 3.5t19 -13.5t4 -22.5q-8 -35 -36 -61t-60 -30q-4 -1 -10 -1z" />
    <glyph glyph-name="bar" unicode="|" horiz-adv-x="669" 
d="M479 356q-3 -57 -31 -104q-19 -32 -46 -49t-59 -17h-3q-36 2 -68.5 18t-56.5 45q-22 27 -34 60t-11 67q0 64 42 104q23 23 55.5 34t73.5 11q79 0 115 -65q26 -45 23 -104zM414 273q11 19 17.5 41t7.5 44.5t-3.5 43.5t-13.5 38q-26 45 -81 45q-61 0 -95.5 -29t-35.5 -81
q0 -26 9 -52.5t26.5 -47.5t41.5 -34.5t54 -14.5q28 -1 45.5 14.5t27.5 32.5zM477 503q-7 5 -8 13t4 15l71 97q5 7 13 8t15 -4t8 -13t-4 -15l-71 -97q-6 -8 -16 -8q-7 0 -12 4zM637 376q8 0 14 -6t6 -14t-6 -14t-14 -6h-113q-8 0 -14 6t-6 14t6 14t14 6h113zM163 339
q1 -8 -5 -14.5t-14 -7.5l-112 -7h-1q-8 0 -14 5t-6 13q-1 8 4.5 14.5t13.5 7.5l113 7q8 1 14 -4.5t7 -13.5zM555 159q7 -5 8.5 -13t-3.5 -15q-6 -8 -17 -8q-7 0 -11 3l-92 64q-7 5 -8.5 13t3.5 15t13 8.5t15 -3.5zM354 172q8 -1 13.5 -7.5t4.5 -14.5l-9 -97q-1 -8 -6.5 -13
t-13.5 -5h-2q-8 1 -13.5 7.5t-4.5 14.5l9 97q2 8 8 13.5t14 4.5zM192 222q6 5 14.5 4.5t13.5 -7.5q5 -6 4.5 -14.5t-6.5 -13.5l-73 -62q-5 -4 -13 -4q-10 0 -16 7q-5 6 -4.5 14.5t7.5 13.5zM324 538q-8 0 -14 6t-6 14v94q0 8 6 14t14 6t14 -6t6 -14v-94q0 -8 -6 -14t-14 -6z
M127 574q-4 8 -2 15.5t10 12.5q7 4 15 2t12 -10l45 -79q5 -7 2.5 -14.5t-9.5 -12.5q-5 -3 -10 -3q-12 0 -18 11z" />
    <glyph glyph-name="braceright" unicode="}" horiz-adv-x="298" 
d="M155 -113q-6 0 -10 1q-32 4 -60 30t-36 61q-3 12 4 22.5t19 13.5t22.5 -3.5t13.5 -19.5q3 -16 16.5 -29.5t27.5 -15.5q3 0 11.5 2t18.5 22q1 2 2.5 12t-0.5 39q-2 20 -5.5 42t-6.5 43q-8 45 -9.5 67.5t9.5 34.5q9 12 25 12q14 0 19.5 9.5t5.5 17.5q0 4 -1 8.5t-6 8.5
q-9 9 -31 9q-16 0 -29 13q-14 17 -14.5 49t5.5 92q3 37 5.5 74t-2.5 58q-6 26 -28 28q-11 0 -22.5 -7.5t-16.5 -22.5q-4 -12 -14.5 -18t-22.5 -2t-18 15t-2 23q9 34 39 54q25 18 59 18q32 -2 54.5 -21.5t30.5 -52.5q6 -29 4 -69t-6 -82q-4 -35 -6 -66v-13.5t1 -10.5
q20 -2 34 -9.5t22 -14.5q25 -25 25 -61q0 -34 -22 -59q-15 -17 -36 -24q1 -11 3 -24t4 -24q10 -60 13.5 -103t-8.5 -69q-28 -58 -81 -58z" />
    <glyph glyph-name="exclamdown" unicode="&#xa1;" horiz-adv-x="211" 
d="M165 -169q1 -13 -7.5 -22t-21.5 -10h-1q-12 0 -20.5 8.5t-9.5 20.5l-1 20t-2 52.5t-2.5 75t-2.5 88t-2 90.5t-1 84q0 13 8.5 21.5t21.5 8.5q12 0 21 -8.5t9 -21.5q0 -38 1 -83l2 -90t2.5 -87t2.5 -74.5t2 -52.5zM121 499q23 -44 38 -79q6 -15 11 -30t7 -27.5t0 -21.5
t-9 -12q-12 -5 -23 1.5t-19 16.5t-12.5 20.5t-5.5 12.5q0 -1 -3.5 -12t-10 -22t-16.5 -17.5t-25 1.5q-10 5 -10 18.5t6 31t17 37t22 37t20 29.5t13 16z" />
    <glyph glyph-name="sterling" unicode="&#xa3;" horiz-adv-x="378" 
d="M334 72q12 -2 19 -12t5 -23q-1 -8 -7.5 -17t-24.5 -14q-6 -2 -13.5 -3t-18.5 -3q-13 -1 -30 -1.5t-37 -0.5h-16q-21 0 -41.5 0.5t-36.5 1.5t-26 1.5t-11 0.5q-11 1 -19 9t-9 19q0 3 -1.5 23.5t-3 52t-3.5 72t-3 83.5h-3q-13 0 -21.5 8.5t-8.5 21.5q-1 12 8 21t21 9h3
q-1 65 1 121.5t8 87.5q14 63 56 95q40 31 90 26q22 -2 42 -11t35 -25q33 -33 35 -84q0 -13 -8.5 -21.5t-21.5 -9.5q-12 0 -21 8.5t-9 21.5q-1 29 -19 44t-39 17q-12 1 -24 -2t-23.5 -11.5t-20.5 -23t-13 -36.5q-6 -28 -7.5 -80.5t-0.5 -112.5q31 2 68 6.5t69 12.5
q12 4 22.5 -2.5t14.5 -18.5q3 -12 -3.5 -23t-18.5 -14q-36 -9 -77 -14t-74 -8q2 -63 4.5 -118t4.5 -85l71 -3q56 -1 79.5 1t30.5 4q9 11 27 9z" />
    <glyph glyph-name="dieresis" unicode="&#xa8;" horiz-adv-x="332" 
d="M103 538q-5 4 -18.5 23t-25.5 41.5t-17 42.5t7 26t20 1t13 -13.5t8 -17.5t3 -10q0 1 4 9t10 16.5t14.5 14t18.5 1.5q12 -5 7.5 -26.5t-14.5 -45.5q-11 -28 -30 -62zM243 538q-5 4 -18.5 23t-25.5 41.5t-17 42.5t7 26t20 1t13 -13.5t8 -17.5t3 -10q0 1 4 9t10 16.5
t14.5 14t18.5 1.5q12 -5 7.5 -26.5t-14.5 -45.5q-11 -28 -30 -62z" />
    <glyph glyph-name="acute" unicode="&#xb4;" horiz-adv-x="182" 
d="M21 572q1 0 6.5 4.5t17 16t29.5 31.5t44 52q7 10 20 10.5t21 -6.5q11 -9 11.5 -21t-7.5 -22q-43 -51 -70 -78t-28 -29q-8 -8 -20.5 -9t-21.5 6v1q-10 9 -10.5 21.5t8.5 22.5z" />
    <glyph glyph-name="cedilla" unicode="&#xb8;" horiz-adv-x="247" 
d="M86 -250q-19 0 -40 3q-12 2 -19.5 12t-5.5 22q2 13 12 20t22 5q39 -5 67.5 3t40.5 28q13 23 0 41q-9 12 -28 15.5t-44 -2.5q-16 -5 -29 7q-11 13 -8 28l27 116q3 13 13.5 19.5t22.5 3.5t18.5 -13.5t4.5 -22.5l-18 -74q16 0 34 -5q36 -9 55 -36q17 -23 18 -52.5t-15 -55.5
q-20 -36 -63 -51q-31 -11 -65 -11z" />
    <glyph glyph-name="questiondown" unicode="&#xbf;" horiz-adv-x="345" 
d="M215 274q13 -1 21.5 -9.5t7.5 -21.5q-1 -37 -23 -69.5t-51 -65.5q-19 -23 -37.5 -46.5t-31 -49t-17.5 -54.5t3 -62q12 -48 56 -42q22 2 45 16t42 37q45 56 45 128q0 12 9 21t21 9q13 0 21.5 -9t8.5 -21q0 -49 -16.5 -91.5t-42.5 -74t-59.5 -51.5t-66.5 -24
q-45 -5 -77.5 18.5t-43.5 69.5q-19 78 17 155q16 32 37 59t42 51q23 26 41 51t18 47q1 12 9.5 20.5t20.5 8.5h1zM226 500q23 -44 38 -79q6 -15 11 -30t7 -27.5t0 -21.5t-9 -12q-12 -5 -23 1.5t-19 16.5t-12.5 20.5t-5.5 12.5q0 -1 -3.5 -12t-10 -22t-16.5 -17.5t-25 1.5
q-10 5 -10 18.5t6 31t17 37t22 37t20 29.5t13 16z" />
    <glyph glyph-name="Agrave" unicode="&#xc0;" horiz-adv-x="614" 
d="M599 -222q2 -12 -5 -22.5t-19 -12.5q-13 -2 -23 5t-12 20l-14 84l-43 249q-6 -3 -11 -3l-302 -30h-3q-4 0 -10 2q-25 -95 -47.5 -176.5t-39.5 -130.5q-3 -9 -11 -14.5t-17 -5.5q-7 0 -10 2q-12 4 -17.5 15t-0.5 23q9 24 19 58.5t21.5 76t23.5 88t25 95.5t27 100t28 101.5
t27.5 98.5t27.5 90q14 47 27 81t24 59q13 27 29 48.5t39 21.5q17 0 31 -10t25.5 -25.5t20.5 -34.5t16 -38q15 -38 30.5 -93t32.5 -126q15 -64 29 -132.5t26 -136t22.5 -130t19.5 -113.5zM472 158q-9 47 -18 92.5t-20 90.5q-15 67 -29.5 120t-28.5 92q-14 41 -24.5 59
t-16.5 24q-4 -5 -10 -16.5t-15 -34.5q-11 -25 -22 -58t-25 -76q-23 -72 -45 -154.5t-45 -167.5l293 29h6zM377 772q9 -10 8.5 -22.5t-10.5 -21.5v-1q-9 -7 -21.5 -6t-20.5 9q-1 2 -28 29t-70 78q-8 10 -7.5 22t11.5 21q8 7 21 6.5t20 -10.5q26 -32 44 -52t29.5 -31.5t17 -16
t6.5 -4.5z" />
    <glyph glyph-name="Aacute" unicode="&#xc1;" horiz-adv-x="614" 
d="M599 -222q2 -12 -5 -22.5t-19 -12.5q-13 -2 -23 5t-12 20l-14 84l-43 249q-6 -3 -11 -3l-302 -30h-3q-4 0 -10 2q-25 -95 -47.5 -176.5t-39.5 -130.5q-3 -9 -11 -14.5t-17 -5.5q-7 0 -10 2q-12 4 -17.5 15t-0.5 23q9 24 19 58.5t21.5 76t23.5 88t25 95.5t27 100t28 101.5
t27.5 98.5t27.5 90q14 47 27 81t24 59q13 27 29 48.5t39 21.5q17 0 31 -10t25.5 -25.5t20.5 -34.5t16 -38q15 -38 30.5 -93t32.5 -126q15 -64 29 -132.5t26 -136t22.5 -130t19.5 -113.5zM472 158q-9 47 -18 92.5t-20 90.5q-15 67 -29.5 120t-28.5 92q-14 41 -24.5 59
t-16.5 24q-4 -5 -10 -16.5t-15 -34.5q-11 -25 -22 -58t-25 -76q-23 -72 -45 -154.5t-45 -167.5l293 29h6zM237 772q1 0 6.5 4.5t17 16t29.5 31.5t44 52q7 10 20 10.5t21 -6.5q11 -9 11.5 -21t-7.5 -22q-43 -51 -70 -78t-28 -29q-8 -8 -20.5 -9t-21.5 6v1q-10 9 -10.5 21.5
t8.5 22.5z" />
    <glyph glyph-name="Acircumflex" unicode="&#xc2;" horiz-adv-x="614" 
d="M599 -222q2 -12 -5 -22.5t-19 -12.5q-13 -2 -23 5t-12 20l-14 84l-43 249q-6 -3 -11 -3l-302 -30h-3q-4 0 -10 2q-25 -95 -47.5 -176.5t-39.5 -130.5q-3 -9 -11 -14.5t-17 -5.5q-7 0 -10 2q-12 4 -17.5 15t-0.5 23q9 24 19 58.5t21.5 76t23.5 88t25 95.5t27 100t28 101.5
t27.5 98.5t27.5 90q14 47 27 81t24 59q13 27 29 48.5t39 21.5q17 0 31 -10t25.5 -25.5t20.5 -34.5t16 -38q15 -38 30.5 -93t32.5 -126q15 -64 29 -132.5t26 -136t22.5 -130t19.5 -113.5zM472 158q-9 47 -18 92.5t-20 90.5q-15 67 -29.5 120t-28.5 92q-14 41 -24.5 59
t-16.5 24q-4 -5 -10 -16.5t-15 -34.5q-11 -25 -22 -58t-25 -76q-23 -72 -45 -154.5t-45 -167.5l293 29h6zM326 873q3 0 4 -1q13 -2 20 -12q0 -1 5.5 -8.5t13 -19.5t16 -27.5t15.5 -31.5q5 -11 0.5 -22.5t-15.5 -16.5t-22.5 -0.5t-16.5 15.5q-12 26 -27 49q-16 -14 -31 -28.5
t-22 -24.5q-6 -11 -18 -13.5t-23 4.5q-11 6 -13.5 18t4.5 23q8 13 22 27.5t28.5 27.5t26 22.5t14.5 11.5q9 7 19 7z" />
    <glyph glyph-name="Atilde" unicode="&#xc3;" horiz-adv-x="614" 
d="M599 -222q2 -12 -5 -22.5t-19 -12.5q-13 -2 -23 5t-12 20l-14 84l-43 249q-6 -3 -11 -3l-302 -30h-3q-4 0 -10 2q-25 -95 -47.5 -176.5t-39.5 -130.5q-3 -9 -11 -14.5t-17 -5.5q-7 0 -10 2q-12 4 -17.5 15t-0.5 23q9 24 19 58.5t21.5 76t23.5 88t25 95.5t27 100t28 101.5
t27.5 98.5t27.5 90q14 47 27 81t24 59q13 27 29 48.5t39 21.5q17 0 31 -10t25.5 -25.5t20.5 -34.5t16 -38q15 -38 30.5 -93t32.5 -126q15 -64 29 -132.5t26 -136t22.5 -130t19.5 -113.5zM472 158q-9 47 -18 92.5t-20 90.5q-15 67 -29.5 120t-28.5 92q-14 41 -24.5 59
t-16.5 24q-4 -5 -10 -16.5t-15 -34.5q-11 -25 -22 -58t-25 -76q-23 -72 -45 -154.5t-45 -167.5l293 29h6zM358 737q-14 0 -36 10q-10 6 -20 13t-20 15q-6 5 -13.5 10t-14.5 9q-1 -4 -1.5 -10t-0.5 -16q0 -13 -9 -21.5t-21 -8.5q-13 0 -21.5 9t-8.5 21q1 24 6.5 49t27.5 36
q23 12 55 -5q19 -11 37 -26l27 -18q3 -2 5 -3l4 -2q3 6 6 31q1 13 10 21t22 7q12 -1 20.5 -10t6.5 -22q-1 -11 -2.5 -23.5t-6 -24t-12 -21.5t-19.5 -15q-10 -5 -21 -5z" />
    <glyph glyph-name="Adieresis" unicode="&#xc4;" horiz-adv-x="614" 
d="M599 -222q2 -12 -5 -22.5t-19 -12.5q-13 -2 -23 5t-12 20l-14 84l-43 249q-6 -3 -11 -3l-302 -30h-3q-4 0 -10 2q-25 -95 -47.5 -176.5t-39.5 -130.5q-3 -9 -11 -14.5t-17 -5.5q-7 0 -10 2q-12 4 -17.5 15t-0.5 23q9 24 19 58.5t21.5 76t23.5 88t25 95.5t27 100t28 101.5
t27.5 98.5t27.5 90q14 47 27 81t24 59q13 27 29 48.5t39 21.5q17 0 31 -10t25.5 -25.5t20.5 -34.5t16 -38q15 -38 30.5 -93t32.5 -126q15 -64 29 -132.5t26 -136t22.5 -130t19.5 -113.5zM472 158q-9 47 -18 92.5t-20 90.5q-15 67 -29.5 120t-28.5 92q-14 41 -24.5 59
t-16.5 24q-4 -5 -10 -16.5t-15 -34.5q-11 -25 -22 -58t-25 -76q-23 -72 -45 -154.5t-45 -167.5l293 29h6zM245 738q-5 4 -18.5 23t-25.5 41.5t-17 42.5t7 26t20 1t13 -13.5t8 -17.5t3 -10q0 1 4 9t10 16.5t14.5 14t18.5 1.5q12 -5 7.5 -26.5t-14.5 -45.5q-11 -28 -30 -62z
M385 738q-5 4 -18.5 23t-25.5 41.5t-17 42.5t7 26t20 1t13 -13.5t8 -17.5t3 -10q0 1 4 9t10 16.5t14.5 14t18.5 1.5q12 -5 7.5 -26.5t-14.5 -45.5q-11 -28 -30 -62z" />
    <glyph glyph-name="Aring" unicode="&#xc5;" horiz-adv-x="614" 
d="M599 -222q2 -12 -5 -22.5t-19 -12.5q-13 -2 -23 5t-12 20l-14 84l-43 249q-6 -3 -11 -3l-302 -30h-3q-4 0 -10 2q-25 -95 -47.5 -176.5t-39.5 -130.5q-3 -9 -11 -14.5t-17 -5.5q-7 0 -10 2q-12 4 -17.5 15t-0.5 23q9 24 19 58.5t21.5 76t23.5 88t25 95.5t27 100t28 101.5
t27.5 98.5t27.5 90q14 47 27 81t24 59q13 27 29 48.5t39 21.5q17 0 31 -10t25.5 -25.5t20.5 -34.5t16 -38q15 -38 30.5 -93t32.5 -126q15 -64 29 -132.5t26 -136t22.5 -130t19.5 -113.5zM472 158q-9 47 -18 92.5t-20 90.5q-15 67 -29.5 120t-28.5 92q-14 41 -24.5 59
t-16.5 24q-4 -5 -10 -16.5t-15 -34.5q-11 -25 -22 -58t-25 -76q-23 -72 -45 -154.5t-45 -167.5l293 29h6zM332 707q-20 1 -38.5 10t-32.5 26q-12 14 -18.5 32.5t-6.5 36.5q0 16 6 32t18 28.5t30 20t43 7.5q47 0 70 -40q14 -26 13 -58q-2 -32 -17 -55q-11 -20 -28 -30
t-37 -10h-2zM333 840q-37 0 -37 -28q0 -14 9.5 -29.5t28.5 -15.5q7 0 14 10q7 12 7.5 27.5t-4.5 26.5q-6 9 -18 9z" />
    <glyph glyph-name="AE" unicode="&#xc6;" horiz-adv-x="1007" 
d="M965 -155q13 1 22 -7t11 -20q1 -13 -7 -22t-20 -11l-460 -41h-3q-11 0 -21 8q-9 9 -9 23q0 1 1 26.5t2.5 69t3 102.5t2.5 127q-8 -2 -10 -2l-302 -30h-3q-4 0 -10 2q-25 -95 -47.5 -176.5t-39.5 -130.5q-3 -9 -11 -14.5t-17 -5.5q-7 0 -10 2q-12 4 -17.5 15t-0.5 23
q9 24 19 58.5t21.5 76t23.5 88t25 95.5t27 100t28 101.5t27.5 98.5t27.5 90q14 47 27 81t24 59q13 27 29 48.5t39 21.5q17 0 31 -10t25.5 -25.5t20.5 -34.5t16 -38q27 -70 57 -194q-1 60 -3 118.5t-5 113.5q-2 22 18 30q2 0 30 9.5t79 17.5q48 8 121 11t168 -11
q12 -2 19.5 -12t5.5 -23q-2 -12 -11.5 -19.5t-22.5 -5.5q-88 13 -156 10.5t-112 -9.5q-26 -4 -45.5 -8.5t-32.5 -8.5q4 -76 6 -157t2 -162h1l27.5 1.5t71 3.5t97.5 3.5t108 1.5q12 0 21 -9t9 -21q0 -13 -9 -21.5t-21 -8.5q-53 0 -106.5 -1.5t-96 -3.5t-70 -3.5l-27.5 -1.5
h-5q0 -71 -1 -136.5t-2.5 -121t-3 -99t-2.5 -69.5zM477 158q-9 47 -18 92.5t-20 90.5q-15 67 -29.5 120t-28.5 92q-14 41 -24.5 59t-16.5 24q-4 -5 -10 -16.5t-15 -34.5q-11 -25 -22 -58t-25 -76q-23 -72 -45 -154.5t-45 -167.5l293 29h6z" />
    <glyph glyph-name="Ccedilla" unicode="&#xc7;" horiz-adv-x="609" 
d="M283 -518q-19 0 -40 3q-12 2 -19.5 12t-5.5 22q2 13 12 20t22 5q39 -5 67.5 3t40.5 28q13 23 0 41q-9 12 -28 15.5t-44 -2.5q-16 -5 -29 7q-11 13 -8 28l19 83q-29 4 -54 13t-48 23q-75 46 -112 134q-37 81 -39 191t27.5 214t87.5 192q51 77 113 125q65 49 124 54
q55 6 96 -30q39 -36 50 -107q2 -12 -5 -22t-19 -12q-13 -2 -23 5t-12 19q-15 94 -82 88q-45 -5 -96.5 -46t-95.5 -107q-53 -80 -80 -175.5t-25 -196.5q2 -98 33.5 -168.5t88.5 -105.5q43 -26 102 -31q4 1 13 -1h2q51 -2 110 14.5t126 48.5q11 5 23 1t17 -15t1 -22.5
t-15 -17.5q-127 -62 -233 -68q-4 0 -7.5 -0.5t-6.5 -0.5l-12 -50q16 0 34 -5q36 -9 55 -36q17 -23 18 -52.5t-15 -55.5q-20 -36 -63 -51q-31 -11 -65 -11z" />
    <glyph glyph-name="Egrave" unicode="&#xc8;" horiz-adv-x="544" 
d="M509 -155q13 1 22 -7t11 -20q1 -13 -7 -22t-20 -11l-460 -41h-3q-11 0 -21 8q-9 9 -9 23q0 1 1.5 40.5t3.5 105.5t3.5 152.5t1.5 181t-2 191.5t-7 185q-2 22 18 30q2 0 30 9.5t79 17.5q48 8 121 11t168 -11q12 -2 19.5 -12t5.5 -23q-2 -12 -11.5 -19.5t-22.5 -5.5
q-88 13 -156 10.5t-112 -9.5q-26 -4 -45.5 -8.5t-32.5 -8.5q4 -76 6 -157t2 -162h1l27.5 1.5t71 3.5t97.5 3.5t108 1.5q12 0 21 -9t9 -21q0 -13 -9 -21.5t-21 -8.5q-53 0 -106.5 -1.5t-96 -3.5t-70 -3.5l-27.5 -1.5h-5q0 -71 -1 -136.5t-2.5 -121t-3 -99t-2.5 -69.5z
M342 772q9 -10 8.5 -22.5t-10.5 -21.5v-1q-9 -7 -21.5 -6t-20.5 9q-1 2 -28 29t-70 78q-8 10 -7.5 22t11.5 21q8 7 21 6.5t20 -10.5q26 -32 44 -52t29.5 -31.5t17 -16t6.5 -4.5z" />
    <glyph glyph-name="Eacute" unicode="&#xc9;" horiz-adv-x="544" 
d="M509 -155q13 1 22 -7t11 -20q1 -13 -7 -22t-20 -11l-460 -41h-3q-11 0 -21 8q-9 9 -9 23q0 1 1.5 40.5t3.5 105.5t3.5 152.5t1.5 181t-2 191.5t-7 185q-2 22 18 30q2 0 30 9.5t79 17.5q48 8 121 11t168 -11q12 -2 19.5 -12t5.5 -23q-2 -12 -11.5 -19.5t-22.5 -5.5
q-88 13 -156 10.5t-112 -9.5q-26 -4 -45.5 -8.5t-32.5 -8.5q4 -76 6 -157t2 -162h1l27.5 1.5t71 3.5t97.5 3.5t108 1.5q12 0 21 -9t9 -21q0 -13 -9 -21.5t-21 -8.5q-53 0 -106.5 -1.5t-96 -3.5t-70 -3.5l-27.5 -1.5h-5q0 -71 -1 -136.5t-2.5 -121t-3 -99t-2.5 -69.5z
M202 772q1 0 6.5 4.5t17 16t29.5 31.5t44 52q7 10 20 10.5t21 -6.5q11 -9 11.5 -21t-7.5 -22q-43 -51 -70 -78t-28 -29q-8 -8 -20.5 -9t-21.5 6v1q-10 9 -10.5 21.5t8.5 22.5z" />
    <glyph glyph-name="Ecircumflex" unicode="&#xca;" horiz-adv-x="544" 
d="M509 -155q13 1 22 -7t11 -20q1 -13 -7 -22t-20 -11l-460 -41h-3q-11 0 -21 8q-9 9 -9 23q0 1 1.5 40.5t3.5 105.5t3.5 152.5t1.5 181t-2 191.5t-7 185q-2 22 18 30q2 0 30 9.5t79 17.5q48 8 121 11t168 -11q12 -2 19.5 -12t5.5 -23q-2 -12 -11.5 -19.5t-22.5 -5.5
q-88 13 -156 10.5t-112 -9.5q-26 -4 -45.5 -8.5t-32.5 -8.5q4 -76 6 -157t2 -162h1l27.5 1.5t71 3.5t97.5 3.5t108 1.5q12 0 21 -9t9 -21q0 -13 -9 -21.5t-21 -8.5q-53 0 -106.5 -1.5t-96 -3.5t-70 -3.5l-27.5 -1.5h-5q0 -71 -1 -136.5t-2.5 -121t-3 -99t-2.5 -69.5z
M291 873q3 0 4 -1q13 -2 20 -12q0 -1 5.5 -8.5t13 -19.5t16 -27.5t15.5 -31.5q5 -11 0.5 -22.5t-15.5 -16.5t-22.5 -0.5t-16.5 15.5q-12 26 -27 49q-16 -14 -31 -28.5t-22 -24.5q-6 -11 -18 -13.5t-23 4.5q-11 6 -13.5 18t4.5 23q8 13 22 27.5t28.5 27.5t26 22.5t14.5 11.5
q9 7 19 7z" />
    <glyph glyph-name="Edieresis" unicode="&#xcb;" horiz-adv-x="544" 
d="M509 -155q13 1 22 -7t11 -20q1 -13 -7 -22t-20 -11l-460 -41h-3q-11 0 -21 8q-9 9 -9 23q0 1 1.5 40.5t3.5 105.5t3.5 152.5t1.5 181t-2 191.5t-7 185q-2 22 18 30q2 0 30 9.5t79 17.5q48 8 121 11t168 -11q12 -2 19.5 -12t5.5 -23q-2 -12 -11.5 -19.5t-22.5 -5.5
q-88 13 -156 10.5t-112 -9.5q-26 -4 -45.5 -8.5t-32.5 -8.5q4 -76 6 -157t2 -162h1l27.5 1.5t71 3.5t97.5 3.5t108 1.5q12 0 21 -9t9 -21q0 -13 -9 -21.5t-21 -8.5q-53 0 -106.5 -1.5t-96 -3.5t-70 -3.5l-27.5 -1.5h-5q0 -71 -1 -136.5t-2.5 -121t-3 -99t-2.5 -69.5z
M350 738q-5 4 -18.5 23t-25.5 41.5t-17 42.5t7 26t20 1t13 -13.5t8 -17.5t3 -10q0 1 4 9t10 16.5t14.5 14t18.5 1.5q12 -5 7.5 -26.5t-14.5 -45.5q-11 -28 -30 -62zM210 738q-5 4 -18.5 23t-25.5 41.5t-17 42.5t7 26t20 1t13 -13.5t8 -17.5t3 -10q0 1 4 9t10 16.5t14.5 14
t18.5 1.5q12 -5 7.5 -26.5t-14.5 -45.5q-11 -28 -30 -62z" />
    <glyph glyph-name="Igrave" unicode="&#xcc;" horiz-adv-x="114" 
d="M51 694q12 1 21 -7.5t10 -20.5q6 -88 8 -188t1.5 -199t-2 -190t-3.5 -161t-3.5 -112t-1.5 -43q-1 -12 -9.5 -20.5t-20.5 -8.5h-1q-13 1 -21.5 10t-7.5 21q0 1 1.5 43t3.5 111.5t3.5 160t2 188.5t-2 197t-7.5 187q-1 13 7.5 22t21.5 10zM127 772q9 -10 8.5 -22.5
t-10.5 -21.5v-1q-9 -7 -21.5 -6t-20.5 9q-1 2 -28 29t-70 78q-8 10 -7.5 22t11.5 21q8 7 21 6.5t20 -10.5q26 -32 44 -52t29.5 -31.5t17 -16t6.5 -4.5z" />
    <glyph glyph-name="Iacute" unicode="&#xcd;" horiz-adv-x="114" 
d="M51 694q12 1 21 -7.5t10 -20.5q6 -88 8 -188t1.5 -199t-2 -190t-3.5 -161t-3.5 -112t-1.5 -43q-1 -12 -9.5 -20.5t-20.5 -8.5h-1q-13 1 -21.5 10t-7.5 21q0 1 1.5 43t3.5 111.5t3.5 160t2 188.5t-2 197t-7.5 187q-1 13 7.5 22t21.5 10zM-13 772q1 0 6.5 4.5t17 16
t29.5 31.5t44 52q7 10 20 10.5t21 -6.5q11 -9 11.5 -21t-7.5 -22q-43 -51 -70 -78t-28 -29q-8 -8 -20.5 -9t-21.5 6v1q-10 9 -10.5 21.5t8.5 22.5z" />
    <glyph glyph-name="Icircumflex" unicode="&#xce;" horiz-adv-x="114" 
d="M51 694q12 1 21 -7.5t10 -20.5q6 -88 8 -188t1.5 -199t-2 -190t-3.5 -161t-3.5 -112t-1.5 -43q-1 -12 -9.5 -20.5t-20.5 -8.5h-1q-13 1 -21.5 10t-7.5 21q0 1 1.5 43t3.5 111.5t3.5 160t2 188.5t-2 197t-7.5 187q-1 13 7.5 22t21.5 10zM76 873q3 0 4 -1q13 -2 20 -12
q0 -1 5.5 -8.5t13 -19.5t16 -27.5t15.5 -31.5q5 -11 0.5 -22.5t-15.5 -16.5t-22.5 -0.5t-16.5 15.5q-12 26 -27 49q-16 -14 -31 -28.5t-22 -24.5q-6 -11 -18 -13.5t-23 4.5q-11 6 -13.5 18t4.5 23q8 13 22 27.5t28.5 27.5t26 22.5t14.5 11.5q9 7 19 7z" />
    <glyph glyph-name="Idieresis" unicode="&#xcf;" horiz-adv-x="114" 
d="M51 694q12 1 21 -7.5t10 -20.5q6 -88 8 -188t1.5 -199t-2 -190t-3.5 -161t-3.5 -112t-1.5 -43q-1 -12 -9.5 -20.5t-20.5 -8.5h-1q-13 1 -21.5 10t-7.5 21q0 1 1.5 43t3.5 111.5t3.5 160t2 188.5t-2 197t-7.5 187q-1 13 7.5 22t21.5 10zM136 738q-5 4 -18.5 23t-25.5 41.5
t-17 42.5t7 26t20 1t13 -13.5t8 -17.5t3 -10q0 1 4 9t10 16.5t14.5 14t18.5 1.5q12 -5 7.5 -26.5t-14.5 -45.5q-11 -28 -30 -62zM-4 738q-5 4 -18.5 23t-25.5 41.5t-17 42.5t7 26t20 1t13 -13.5t8 -17.5t3 -10q0 1 4 9t10 16.5t14.5 14t18.5 1.5q12 -5 7.5 -26.5
t-14.5 -45.5q-11 -28 -30 -62z" />
    <glyph glyph-name="Eth" unicode="&#xd0;" horiz-adv-x="596" 
d="M443 653q138 -88 138 -339q0 -168 -49 -290q-43 -107 -119 -174q-53 -45 -118 -72q-26 -11 -53.5 -18t-56.5 -12q-44 -6 -75 -6q-39 0 -42 3q-11 1 -18 9t-8 19q0 1 -1.5 36t-3 93t-3 134t-2.5 160h-16q-13 0 -21.5 8t-9.5 22q0 11 9 21t21 8h17q0 94 2 187t8 174
q2 19 17 25q1 1 11 5.5t27.5 11t41.5 13.5t51 13q66 14 124 9q74 -6 129 -40zM157 263q13 1 22 -7.5t10 -22.5l1 -1q-1 -11 -9.5 -20t-19.5 -10q-2 0 -19.5 -1.5t-49.5 -3.5q0 -66 1 -127.5t2.5 -113t3 -91.5t2.5 -63q14 0 33.5 1t43.5 5q115 16 196 88q147 129 147 418
q0 219 -110 288q-26 17 -56 24t-60.5 7.5t-59.5 -3.5t-55 -10.5t-46.5 -13.5t-32.5 -12q-5 -77 -7 -163.5t-2 -174.5q36 2 49.5 4t15.5 3z" />
    <glyph glyph-name="Ntilde" unicode="&#xd1;" horiz-adv-x="577" 
d="M526 690q13 0 21.5 -8.5t8.5 -21.5q0 -48 -1 -111t-3 -134.5t-4.5 -146.5t-5 -146t-5 -134.5t-4.5 -111.5t-3.5 -76.5t-1.5 -29.5q0 -11 -6.5 -18.5t-17.5 -9.5q-2 0 -3 -0.5t-3 -0.5q-19 0 -27 17l-369 778q-1 -50 -3 -114t-3 -134.5t-1.5 -143t0.5 -140.5t3.5 -127.5
t6.5 -102.5q2 -12 -6 -21.5t-21 -10.5q-12 -2 -21.5 6t-10.5 20q-5 45 -7.5 106t-3.5 130.5t-0.5 144t1.5 146t2.5 135.5t3 114t2.5 81t1 36q1 11 7.5 19t16.5 10q11 2 20 -2.5t14 -14.5l371 -780q2 49 4.5 112t5 133t4.5 143t4 142t3 130t1 107q0 13 9 21.5t21 8.5z
M340 737q-14 0 -36 10q-10 6 -20 13t-20 15q-6 5 -13.5 10t-14.5 9q-1 -4 -1.5 -10t-0.5 -16q0 -13 -9 -21.5t-21 -8.5q-13 0 -21.5 9t-8.5 21q1 24 6.5 49t27.5 36q23 12 55 -5q19 -11 37 -26l27 -18q3 -2 5 -3l4 -2q3 6 6 31q1 13 10 21t22 7q12 -1 20.5 -10t6.5 -22
q-1 -11 -2.5 -23.5t-6 -24t-12 -21.5t-19.5 -15q-10 -5 -21 -5z" />
    <glyph glyph-name="Ograve" unicode="&#xd2;" horiz-adv-x="754" 
d="M665 675q41 -18 58 -66q27 -77 -13 -228q-15 -59 -39 -128.5t-58 -149.5q-28 -68 -56.5 -129.5t-51.5 -108.5t-38 -75l-15 -28q-7 -13 -22 -16h-5q-11 0 -21 8q-13 13 -37.5 46t-55.5 79.5t-66.5 104t-69.5 119.5q-39 71 -69 134.5t-50 119.5q-50 138 -38 219
q6 43 25.5 65t37.5 32q37 19 74 21q34 1 66 -14q79 -38 133 -171q9 -20 15 -39q10 22 21 41q75 131 156 165q60 26 119 -1zM652 396q22 83 22 128t-7 65q-6 16 -13 22.5t-13 8.5q-35 16 -72 1q-63 -28 -127 -139q-12 -22 -21.5 -42t-16.5 -35q-8 -18 -13 -33
q-3 -10 -11.5 -15.5t-18.5 -4.5q-23 2 -28 24q-4 16 -9 34q-5 15 -11 35t-15 42q-44 111 -103 139q-18 8 -35 8q-23 0 -51 -14q-8 -5 -18 -16t-14 -37q-9 -62 29.5 -173.5t120.5 -261.5q28 -50 55.5 -95.5t52.5 -84.5t47 -70t38 -52q11 21 26.5 52.5t34 70t38 82.5t39.5 91
q32 78 56 145.5t38 124.5zM447 772q9 -10 8.5 -22.5t-10.5 -21.5v-1q-9 -7 -21.5 -6t-20.5 9q-1 2 -28 29t-70 78q-8 10 -7.5 22t11.5 21q8 7 21 6.5t20 -10.5q26 -32 44 -52t29.5 -31.5t17 -16t6.5 -4.5z" />
    <glyph glyph-name="Oacute" unicode="&#xd3;" horiz-adv-x="754" 
d="M665 675q41 -18 58 -66q27 -77 -13 -228q-15 -59 -39 -128.5t-58 -149.5q-28 -68 -56.5 -129.5t-51.5 -108.5t-38 -75l-15 -28q-7 -13 -22 -16h-5q-11 0 -21 8q-13 13 -37.5 46t-55.5 79.5t-66.5 104t-69.5 119.5q-39 71 -69 134.5t-50 119.5q-50 138 -38 219
q6 43 25.5 65t37.5 32q37 19 74 21q34 1 66 -14q79 -38 133 -171q9 -20 15 -39q10 22 21 41q75 131 156 165q60 26 119 -1zM652 396q22 83 22 128t-7 65q-6 16 -13 22.5t-13 8.5q-35 16 -72 1q-63 -28 -127 -139q-12 -22 -21.5 -42t-16.5 -35q-8 -18 -13 -33
q-3 -10 -11.5 -15.5t-18.5 -4.5q-23 2 -28 24q-4 16 -9 34q-5 15 -11 35t-15 42q-44 111 -103 139q-18 8 -35 8q-23 0 -51 -14q-8 -5 -18 -16t-14 -37q-9 -62 29.5 -173.5t120.5 -261.5q28 -50 55.5 -95.5t52.5 -84.5t47 -70t38 -52q11 21 26.5 52.5t34 70t38 82.5t39.5 91
q32 78 56 145.5t38 124.5zM307 772q1 0 6.5 4.5t17 16t29.5 31.5t44 52q7 10 20 10.5t21 -6.5q11 -9 11.5 -21t-7.5 -22q-43 -51 -70 -78t-28 -29q-8 -8 -20.5 -9t-21.5 6v1q-10 9 -10.5 21.5t8.5 22.5z" />
    <glyph glyph-name="Ocircumflex" unicode="&#xd4;" horiz-adv-x="754" 
d="M665 675q41 -18 58 -66q27 -77 -13 -228q-15 -59 -39 -128.5t-58 -149.5q-28 -68 -56.5 -129.5t-51.5 -108.5t-38 -75l-15 -28q-7 -13 -22 -16h-5q-11 0 -21 8q-13 13 -37.5 46t-55.5 79.5t-66.5 104t-69.5 119.5q-39 71 -69 134.5t-50 119.5q-50 138 -38 219
q6 43 25.5 65t37.5 32q37 19 74 21q34 1 66 -14q79 -38 133 -171q9 -20 15 -39q10 22 21 41q75 131 156 165q60 26 119 -1zM652 396q22 83 22 128t-7 65q-6 16 -13 22.5t-13 8.5q-35 16 -72 1q-63 -28 -127 -139q-12 -22 -21.5 -42t-16.5 -35q-8 -18 -13 -33
q-3 -10 -11.5 -15.5t-18.5 -4.5q-23 2 -28 24q-4 16 -9 34q-5 15 -11 35t-15 42q-44 111 -103 139q-18 8 -35 8q-23 0 -51 -14q-8 -5 -18 -16t-14 -37q-9 -62 29.5 -173.5t120.5 -261.5q28 -50 55.5 -95.5t52.5 -84.5t47 -70t38 -52q11 21 26.5 52.5t34 70t38 82.5t39.5 91
q32 78 56 145.5t38 124.5zM396 873q3 0 4 -1q13 -2 20 -12q0 -1 5.5 -8.5t13 -19.5t16 -27.5t15.5 -31.5q5 -11 0.5 -22.5t-15.5 -16.5t-22.5 -0.5t-16.5 15.5q-12 26 -27 49q-16 -14 -31 -28.5t-22 -24.5q-6 -11 -18 -13.5t-23 4.5q-11 6 -13.5 18t4.5 23q8 13 22 27.5
t28.5 27.5t26 22.5t14.5 11.5q9 7 19 7z" />
    <glyph glyph-name="Otilde" unicode="&#xd5;" horiz-adv-x="754" 
d="M665 675q41 -18 58 -66q27 -77 -13 -228q-15 -59 -39 -128.5t-58 -149.5q-28 -68 -56.5 -129.5t-51.5 -108.5t-38 -75l-15 -28q-7 -13 -22 -16h-5q-11 0 -21 8q-13 13 -37.5 46t-55.5 79.5t-66.5 104t-69.5 119.5q-39 71 -69 134.5t-50 119.5q-50 138 -38 219
q6 43 25.5 65t37.5 32q37 19 74 21q34 1 66 -14q79 -38 133 -171q9 -20 15 -39q10 22 21 41q75 131 156 165q60 26 119 -1zM652 396q22 83 22 128t-7 65q-6 16 -13 22.5t-13 8.5q-35 16 -72 1q-63 -28 -127 -139q-12 -22 -21.5 -42t-16.5 -35q-8 -18 -13 -33
q-3 -10 -11.5 -15.5t-18.5 -4.5q-23 2 -28 24q-4 16 -9 34q-5 15 -11 35t-15 42q-44 111 -103 139q-18 8 -35 8q-23 0 -51 -14q-8 -5 -18 -16t-14 -37q-9 -62 29.5 -173.5t120.5 -261.5q28 -50 55.5 -95.5t52.5 -84.5t47 -70t38 -52q11 21 26.5 52.5t34 70t38 82.5t39.5 91
q32 78 56 145.5t38 124.5zM428 737q-14 0 -36 10q-10 6 -20 13t-20 15q-6 5 -13.5 10t-14.5 9q-1 -4 -1.5 -10t-0.5 -16q0 -13 -9 -21.5t-21 -8.5q-13 0 -21.5 9t-8.5 21q1 24 6.5 49t27.5 36q23 12 55 -5q19 -11 37 -26l27 -18q3 -2 5 -3l4 -2q3 6 6 31q1 13 10 21t22 7
q12 -1 20.5 -10t6.5 -22q-1 -11 -2.5 -23.5t-6 -24t-12 -21.5t-19.5 -15q-10 -5 -21 -5z" />
    <glyph glyph-name="Odieresis" unicode="&#xd6;" horiz-adv-x="754" 
d="M665 675q41 -18 58 -66q27 -77 -13 -228q-15 -59 -39 -128.5t-58 -149.5q-28 -68 -56.5 -129.5t-51.5 -108.5t-38 -75l-15 -28q-7 -13 -22 -16h-5q-11 0 -21 8q-13 13 -37.5 46t-55.5 79.5t-66.5 104t-69.5 119.5q-39 71 -69 134.5t-50 119.5q-50 138 -38 219
q6 43 25.5 65t37.5 32q37 19 74 21q34 1 66 -14q79 -38 133 -171q9 -20 15 -39q10 22 21 41q75 131 156 165q60 26 119 -1zM652 396q22 83 22 128t-7 65q-6 16 -13 22.5t-13 8.5q-35 16 -72 1q-63 -28 -127 -139q-12 -22 -21.5 -42t-16.5 -35q-8 -18 -13 -33
q-3 -10 -11.5 -15.5t-18.5 -4.5q-23 2 -28 24q-4 16 -9 34q-5 15 -11 35t-15 42q-44 111 -103 139q-18 8 -35 8q-23 0 -51 -14q-8 -5 -18 -16t-14 -37q-9 -62 29.5 -173.5t120.5 -261.5q28 -50 55.5 -95.5t52.5 -84.5t47 -70t38 -52q11 21 26.5 52.5t34 70t38 82.5t39.5 91
q32 78 56 145.5t38 124.5zM315 738q-5 4 -18.5 23t-25.5 41.5t-17 42.5t7 26t20 1t13 -13.5t8 -17.5t3 -10q0 1 4 9t10 16.5t14.5 14t18.5 1.5q12 -5 7.5 -26.5t-14.5 -45.5q-11 -28 -30 -62zM455 738q-5 4 -18.5 23t-25.5 41.5t-17 42.5t7 26t20 1t13 -13.5t8 -17.5t3 -10
q0 1 4 9t10 16.5t14.5 14t18.5 1.5q12 -5 7.5 -26.5t-14.5 -45.5q-11 -28 -30 -62z" />
    <glyph glyph-name="Oslash" unicode="&#xd8;" horiz-adv-x="754" 
d="M665 675q41 -18 58 -66q27 -77 -13 -228q-15 -59 -39 -128.5t-58 -149.5q-28 -68 -56.5 -129.5t-51.5 -108.5t-38 -75l-15 -28q-7 -13 -22 -16h-5q-11 0 -21 8q-14 14 -40.5 49.5t-60.5 86.5q-5 -24 -9 -43.5t-7 -33.5q-4 -17 -6 -30q-2 -11 -13 -18t-22 -5h-1
q-13 3 -19 14t-4 25q5 19 10 45q5 22 11.5 52t14.5 66q-21 33 -42 68t-41 73q-39 71 -69 134.5t-50 119.5q-50 138 -38 219q6 43 25.5 65t37.5 32q37 19 74 21q34 1 66 -14q79 -38 133 -171l12 -30q14 70 24.5 122t14.5 74q2 11 12.5 17.5t21.5 4.5q13 -2 20.5 -13t5.5 -22
q-2 -8 -5 -23.5t-8 -37.5q45 54 94 75q60 26 119 -1zM652 396q22 83 22 128t-7 65q-6 16 -13 22.5t-13 8.5q-35 16 -72 1q-63 -28 -127 -139q-8 -14 -14.5 -26.5t-11.5 -23.5l-95 -458q29 -47 54.5 -84t44.5 -60q11 21 26.5 52.5t34 70t38 82.5t39.5 91q32 78 56 145.5
t38 124.5zM276 47q15 73 32 154t33 159q-7 7 -8 16q-4 16 -9 34q-5 15 -11 35t-15 42q-44 111 -103 139q-18 8 -35 8q-23 0 -51 -14q-8 -5 -18 -16t-14 -37q-9 -62 29.5 -173.5t120.5 -261.5q12 -22 24.5 -43.5t24.5 -41.5z" />
    <glyph glyph-name="Ugrave" unicode="&#xd9;" horiz-adv-x="616" 
d="M564 670l2 -23.5t4.5 -64.5t6 -96.5t6.5 -121.5q3 -61 5 -133.5t2 -150t-1.5 -156.5t-6.5 -152q-1 -12 -9.5 -20t-20.5 -8h-2q-12 1 -20.5 10t-7.5 22q4 66 6 137.5t2 143.5t-1.5 142t-4.5 134q-5 -29 -11 -59l-12 -60q-23 -100 -49.5 -178.5t-58.5 -136.5
q-84 -155 -201 -155q-55 0 -94 45q-54 65 -69 220q-6 60 -6.5 133t4.5 160q4 72 11 139t14 118t11.5 82t4.5 32q2 12 12 19t23 5q12 -2 19 -12t5 -22q0 -1 -4.5 -31.5t-11 -80.5t-13.5 -116t-11 -137q-5 -84 -4.5 -154.5t5.5 -128.5q4 -43 11 -74t14.5 -53.5t15.5 -36.5
t15 -23q21 -24 48 -24q81 0 149 124q59 109 101 299q18 82 30 161t19.5 141.5t10.5 101t3 39.5q0 11 8.5 19.5t20.5 8.5t20.5 -8t9.5 -20zM378 772q9 -10 8.5 -22.5t-10.5 -21.5v-1q-9 -7 -21.5 -6t-20.5 9q-1 2 -28 29t-70 78q-8 10 -7.5 22t11.5 21q8 7 21 6.5t20 -10.5
q26 -32 44 -52t29.5 -31.5t17 -16t6.5 -4.5z" />
    <glyph glyph-name="Uacute" unicode="&#xda;" horiz-adv-x="616" 
d="M564 670l2 -23.5t4.5 -64.5t6 -96.5t6.5 -121.5q3 -61 5 -133.5t2 -150t-1.5 -156.5t-6.5 -152q-1 -12 -9.5 -20t-20.5 -8h-2q-12 1 -20.5 10t-7.5 22q4 66 6 137.5t2 143.5t-1.5 142t-4.5 134q-5 -29 -11 -59l-12 -60q-23 -100 -49.5 -178.5t-58.5 -136.5
q-84 -155 -201 -155q-55 0 -94 45q-54 65 -69 220q-6 60 -6.5 133t4.5 160q4 72 11 139t14 118t11.5 82t4.5 32q2 12 12 19t23 5q12 -2 19 -12t5 -22q0 -1 -4.5 -31.5t-11 -80.5t-13.5 -116t-11 -137q-5 -84 -4.5 -154.5t5.5 -128.5q4 -43 11 -74t14.5 -53.5t15.5 -36.5
t15 -23q21 -24 48 -24q81 0 149 124q59 109 101 299q18 82 30 161t19.5 141.5t10.5 101t3 39.5q0 11 8.5 19.5t20.5 8.5t20.5 -8t9.5 -20zM238 772q1 0 6.5 4.5t17 16t29.5 31.5t44 52q7 10 20 10.5t21 -6.5q11 -9 11.5 -21t-7.5 -22q-43 -51 -70 -78t-28 -29
q-8 -8 -20.5 -9t-21.5 6v1q-10 9 -10.5 21.5t8.5 22.5z" />
    <glyph glyph-name="Ucircumflex" unicode="&#xdb;" horiz-adv-x="616" 
d="M564 670l2 -23.5t4.5 -64.5t6 -96.5t6.5 -121.5q3 -61 5 -133.5t2 -150t-1.5 -156.5t-6.5 -152q-1 -12 -9.5 -20t-20.5 -8h-2q-12 1 -20.5 10t-7.5 22q4 66 6 137.5t2 143.5t-1.5 142t-4.5 134q-5 -29 -11 -59l-12 -60q-23 -100 -49.5 -178.5t-58.5 -136.5
q-84 -155 -201 -155q-55 0 -94 45q-54 65 -69 220q-6 60 -6.5 133t4.5 160q4 72 11 139t14 118t11.5 82t4.5 32q2 12 12 19t23 5q12 -2 19 -12t5 -22q0 -1 -4.5 -31.5t-11 -80.5t-13.5 -116t-11 -137q-5 -84 -4.5 -154.5t5.5 -128.5q4 -43 11 -74t14.5 -53.5t15.5 -36.5
t15 -23q21 -24 48 -24q81 0 149 124q59 109 101 299q18 82 30 161t19.5 141.5t10.5 101t3 39.5q0 11 8.5 19.5t20.5 8.5t20.5 -8t9.5 -20zM327 873q3 0 4 -1q13 -2 20 -12q0 -1 5.5 -8.5t13 -19.5t16 -27.5t15.5 -31.5q5 -11 0.5 -22.5t-15.5 -16.5t-22.5 -0.5t-16.5 15.5
q-12 26 -27 49q-16 -14 -31 -28.5t-22 -24.5q-6 -11 -18 -13.5t-23 4.5q-11 6 -13.5 18t4.5 23q8 13 22 27.5t28.5 27.5t26 22.5t14.5 11.5q9 7 19 7z" />
    <glyph glyph-name="Udieresis" unicode="&#xdc;" horiz-adv-x="616" 
d="M564 670l2 -23.5t4.5 -64.5t6 -96.5t6.5 -121.5q3 -61 5 -133.5t2 -150t-1.5 -156.5t-6.5 -152q-1 -12 -9.5 -20t-20.5 -8h-2q-12 1 -20.5 10t-7.5 22q4 66 6 137.5t2 143.5t-1.5 142t-4.5 134q-5 -29 -11 -59l-12 -60q-23 -100 -49.5 -178.5t-58.5 -136.5
q-84 -155 -201 -155q-55 0 -94 45q-54 65 -69 220q-6 60 -6.5 133t4.5 160q4 72 11 139t14 118t11.5 82t4.5 32q2 12 12 19t23 5q12 -2 19 -12t5 -22q0 -1 -4.5 -31.5t-11 -80.5t-13.5 -116t-11 -137q-5 -84 -4.5 -154.5t5.5 -128.5q4 -43 11 -74t14.5 -53.5t15.5 -36.5
t15 -23q21 -24 48 -24q81 0 149 124q59 109 101 299q18 82 30 161t19.5 141.5t10.5 101t3 39.5q0 11 8.5 19.5t20.5 8.5t20.5 -8t9.5 -20zM386 738q-5 4 -18.5 23t-25.5 41.5t-17 42.5t7 26t20 1t13 -13.5t8 -17.5t3 -10q0 1 4 9t10 16.5t14.5 14t18.5 1.5q12 -5 7.5 -26.5
t-14.5 -45.5q-11 -28 -30 -62zM246 738q-5 4 -18.5 23t-25.5 41.5t-17 42.5t7 26t20 1t13 -13.5t8 -17.5t3 -10q0 1 4 9t10 16.5t14.5 14t18.5 1.5q12 -5 7.5 -26.5t-14.5 -45.5q-11 -28 -30 -62z" />
    <glyph glyph-name="Yacute" unicode="&#xdd;" horiz-adv-x="555" 
d="M512 673q0 -2 4 -26.5t8.5 -65t8.5 -95t4 -115.5q1 -74 -5 -139.5t-17 -122.5q-30 -148 -98 -237q-88 -115 -235 -129h-3q-11 0 -19.5 8t-10.5 19q-1 13 7 22t20 11q121 10 193 105q54 72 81.5 188.5t26.5 272.5q0 22 -0.5 42t-1.5 40q-5 -19 -10 -37.5t-12 -38.5
q-41 -131 -99 -205q-78 -101 -183 -101q-65 0 -105 51t-49 152q-8 77 3 182q4 44 10 83t11.5 69t10 48t4.5 20q3 12 13.5 18.5t22.5 4.5q12 -3 18.5 -13.5t3.5 -23.5l-4 -17.5t-9.5 -47t-11.5 -68t-10 -80.5q-9 -98 -3 -170q9 -85 37 -120q22 -28 58 -28q75 0 135 78
q52 65 90 186q16 51 27 100.5t17.5 88.5t9 63.5l2.5 24.5q2 11 10 19t19 9t20 -6.5t11 -18.5zM207 772q1 0 6.5 4.5t17 16t29.5 31.5t44 52q7 10 20 10.5t21 -6.5q11 -9 11.5 -21t-7.5 -22q-43 -51 -70 -78t-28 -29q-8 -8 -20.5 -9t-21.5 6v1q-10 9 -10.5 21.5t8.5 22.5z
" />
    <glyph glyph-name="Thorn" unicode="&#xde;" horiz-adv-x="583" 
d="M431 506q26 -9 53 -27t48.5 -49.5t35.5 -79.5t14 -116q0 -85 -42 -142q-39 -53 -106 -75q-44 -14 -91 -14q-9 0 -14 1q-52 1 -108 20q-74 25 -128 71q0 -67 1 -124.5t2 -100t2 -67.5t1 -26q0 -13 -8.5 -21.5t-20.5 -9.5h-1q-12 0 -21 8.5t-9 20.5q0 1 -1 45.5t-2.5 117
t-2.5 165t-0.5 191.5t2.5 195.5t8 177.5q1 12 10.5 20.5t21.5 6.5q13 -1 21 -10t7 -22q-4 -50 -5.5 -106t-3.5 -116q23 15 50.5 28.5t57.5 24.5q29 10 57.5 16.5t55.5 8.5q65 6 116 -12zM415 74q18 6 37 17t34.5 30t25.5 46.5t10 66.5q0 177 -110 215q-38 13 -87 10
t-104 -23q-46 -16 -80.5 -37t-47.5 -37q-1 -45 -1 -90.5v-89.5q26 -35 65 -61t83 -41t89.5 -17t85.5 11z" />
    <glyph glyph-name="germandbls" unicode="&#xdf;" horiz-adv-x="496" 
d="M59 -1q-11 0 -19.5 8t-10.5 20q-2 25 -3.5 64.5t-2.5 85t-1 91.5t-0.5 84t-0.5 63.5v28.5q0 78 54 137q23 24 53 41t64 25q26 7 50.5 6.5t47.5 -6.5q51 -15 74 -60q15 -30 16 -60.5t-6.5 -59t-21 -53t-26.5 -43.5q8 -2 17 -4.5t19 -7.5q48 -20 78 -57.5t38 -88.5
q9 -53 -13 -98q-20 -42 -62 -72q-55 -38 -126 -43q-76 -3 -140 34q-11 6 -14 18t4 23q6 11 17.5 14t22.5 -4q27 -15 55.5 -20.5t55 -3.5t49.5 10.5t41 20.5q30 21 43.5 50t7.5 61q-12 73 -81 101q-28 11 -48 14q-11 2 -21 2q-20 0 -28 18q-7 19 7 33l8 8.5t18.5 22.5
t21.5 32.5t17.5 39.5t7 43t-9.5 43q-11 21 -38 29q-30 9 -67 0q-23 -6 -45.5 -18t-40 -30t-28.5 -42.5t-11 -54.5v-25t0.5 -61.5t0.5 -84t1 -92t2.5 -85.5t3.5 -64q2 -13 -6.5 -22t-20.5 -11h-3v0z" />
    <glyph glyph-name="agrave" unicode="&#xe0;" 
d="M401 501q11 -2 18.5 -11.5t5.5 -20.5l-1.5 -17t-4 -44.5t-5 -63t-4.5 -73.5q-6 -89 -6 -146q0 -44 2.5 -60t3.5 -19q7 -9 6.5 -20.5t-8.5 -19.5q-9 -9 -21 -9q-13 0 -22 9q-5 4 -8.5 11t-6 18.5t-4 29.5t-1.5 44q-1 24 -0.5 54.5t2.5 66.5q-14 -35 -29.5 -64.5
t-32.5 -55.5q-23 -35 -45 -57t-41.5 -33.5t-36.5 -15.5t-30 -3q-47 3 -77 47q-26 39 -34 99q-6 49 4 103.5t35 105.5q25 53 59.5 89t72.5 50q46 16 91 -2q40 -17 71 -60q3 11 6.5 22.5t6.5 23.5q2 11 12 17.5t22 4.5zM235 143q27 42 52.5 100t48.5 130q-14 2 -23 14
q-36 56 -77 56q-10 0 -23 -5q-27 -10 -53 -38t-46 -70q-21 -43 -30 -89t-4 -87q5 -42 20.5 -66.5t35.5 -26.5t46.5 20t52.5 62zM292 572q9 -10 8.5 -22.5t-10.5 -21.5v-1q-9 -7 -21.5 -6t-20.5 9q-1 2 -28 29t-70 78q-8 10 -7.5 22t11.5 21q8 7 21 6.5t20 -10.5
q26 -32 44 -52t29.5 -31.5t17 -16t6.5 -4.5z" />
    <glyph glyph-name="aacute" unicode="&#xe1;" 
d="M401 501q11 -2 18.5 -11.5t5.5 -20.5l-1.5 -17t-4 -44.5t-5 -63t-4.5 -73.5q-6 -89 -6 -146q0 -44 2.5 -60t3.5 -19q7 -9 6.5 -20.5t-8.5 -19.5q-9 -9 -21 -9q-13 0 -22 9q-5 4 -8.5 11t-6 18.5t-4 29.5t-1.5 44q-1 24 -0.5 54.5t2.5 66.5q-14 -35 -29.5 -64.5
t-32.5 -55.5q-23 -35 -45 -57t-41.5 -33.5t-36.5 -15.5t-30 -3q-47 3 -77 47q-26 39 -34 99q-6 49 4 103.5t35 105.5q25 53 59.5 89t72.5 50q46 16 91 -2q40 -17 71 -60q3 11 6.5 22.5t6.5 23.5q2 11 12 17.5t22 4.5zM235 143q27 42 52.5 100t48.5 130q-14 2 -23 14
q-36 56 -77 56q-10 0 -23 -5q-27 -10 -53 -38t-46 -70q-21 -43 -30 -89t-4 -87q5 -42 20.5 -66.5t35.5 -26.5t46.5 20t52.5 62zM152 572q1 0 6.5 4.5t17 16t29.5 31.5t44 52q7 10 20 10.5t21 -6.5q11 -9 11.5 -21t-7.5 -22q-43 -51 -70 -78t-28 -29q-8 -8 -20.5 -9t-21.5 6
v1q-10 9 -10.5 21.5t8.5 22.5z" />
    <glyph glyph-name="acircumflex" unicode="&#xe2;" 
d="M401 501q11 -2 18.5 -11.5t5.5 -20.5l-1.5 -17t-4 -44.5t-5 -63t-4.5 -73.5q-6 -89 -6 -146q0 -44 2.5 -60t3.5 -19q7 -9 6.5 -20.5t-8.5 -19.5q-9 -9 -21 -9q-13 0 -22 9q-5 4 -8.5 11t-6 18.5t-4 29.5t-1.5 44q-1 24 -0.5 54.5t2.5 66.5q-14 -35 -29.5 -64.5
t-32.5 -55.5q-23 -35 -45 -57t-41.5 -33.5t-36.5 -15.5t-30 -3q-47 3 -77 47q-26 39 -34 99q-6 49 4 103.5t35 105.5q25 53 59.5 89t72.5 50q46 16 91 -2q40 -17 71 -60q3 11 6.5 22.5t6.5 23.5q2 11 12 17.5t22 4.5zM235 143q27 42 52.5 100t48.5 130q-14 2 -23 14
q-36 56 -77 56q-10 0 -23 -5q-27 -10 -53 -38t-46 -70q-21 -43 -30 -89t-4 -87q5 -42 20.5 -66.5t35.5 -26.5t46.5 20t52.5 62zM241 673q3 0 4 -1q13 -2 20 -12q0 -1 5.5 -8.5t13 -19.5t16 -27.5t15.5 -31.5q5 -11 0.5 -22.5t-15.5 -16.5t-22.5 -0.5t-16.5 15.5
q-12 26 -27 49q-16 -14 -31 -28.5t-22 -24.5q-6 -11 -18 -13.5t-23 4.5q-11 6 -13.5 18t4.5 23q8 13 22 27.5t28.5 27.5t26 22.5t14.5 11.5q9 7 19 7z" />
    <glyph glyph-name="atilde" unicode="&#xe3;" 
d="M401 501q11 -2 18.5 -11.5t5.5 -20.5l-1.5 -17t-4 -44.5t-5 -63t-4.5 -73.5q-6 -89 -6 -146q0 -44 2.5 -60t3.5 -19q7 -9 6.5 -20.5t-8.5 -19.5q-9 -9 -21 -9q-13 0 -22 9q-5 4 -8.5 11t-6 18.5t-4 29.5t-1.5 44q-1 24 -0.5 54.5t2.5 66.5q-14 -35 -29.5 -64.5
t-32.5 -55.5q-23 -35 -45 -57t-41.5 -33.5t-36.5 -15.5t-30 -3q-47 3 -77 47q-26 39 -34 99q-6 49 4 103.5t35 105.5q25 53 59.5 89t72.5 50q46 16 91 -2q40 -17 71 -60q3 11 6.5 22.5t6.5 23.5q2 11 12 17.5t22 4.5zM235 143q27 42 52.5 100t48.5 130q-14 2 -23 14
q-36 56 -77 56q-10 0 -23 -5q-27 -10 -53 -38t-46 -70q-21 -43 -30 -89t-4 -87q5 -42 20.5 -66.5t35.5 -26.5t46.5 20t52.5 62zM274 537q-14 0 -36 10q-10 6 -20 13t-20 15q-6 5 -13.5 10t-14.5 9q-1 -4 -1.5 -10t-0.5 -16q0 -13 -9 -21.5t-21 -8.5q-13 0 -21.5 9t-8.5 21
q1 24 6.5 49t27.5 36q23 12 55 -5q19 -11 37 -26l27 -18q3 -2 5 -3l4 -2q3 6 6 31q1 13 10 21t22 7q12 -1 20.5 -10t6.5 -22q-1 -11 -2.5 -23.5t-6 -24t-12 -21.5t-19.5 -15q-10 -5 -21 -5z" />
    <glyph glyph-name="adieresis" unicode="&#xe4;" 
d="M401 501q11 -2 18.5 -11.5t5.5 -20.5l-1.5 -17t-4 -44.5t-5 -63t-4.5 -73.5q-6 -89 -6 -146q0 -44 2.5 -60t3.5 -19q7 -9 6.5 -20.5t-8.5 -19.5q-9 -9 -21 -9q-13 0 -22 9q-5 4 -8.5 11t-6 18.5t-4 29.5t-1.5 44q-1 24 -0.5 54.5t2.5 66.5q-14 -35 -29.5 -64.5
t-32.5 -55.5q-23 -35 -45 -57t-41.5 -33.5t-36.5 -15.5t-30 -3q-47 3 -77 47q-26 39 -34 99q-6 49 4 103.5t35 105.5q25 53 59.5 89t72.5 50q46 16 91 -2q40 -17 71 -60q3 11 6.5 22.5t6.5 23.5q2 11 12 17.5t22 4.5zM235 143q27 42 52.5 100t48.5 130q-14 2 -23 14
q-36 56 -77 56q-10 0 -23 -5q-27 -10 -53 -38t-46 -70q-21 -43 -30 -89t-4 -87q5 -42 20.5 -66.5t35.5 -26.5t46.5 20t52.5 62zM161 538q-5 4 -18.5 23t-25.5 41.5t-17 42.5t7 26t20 1t13 -13.5t8 -17.5t3 -10q0 1 4 9t10 16.5t14.5 14t18.5 1.5q12 -5 7.5 -26.5
t-14.5 -45.5q-11 -28 -30 -62zM301 538q-5 4 -18.5 23t-25.5 41.5t-17 42.5t7 26t20 1t13 -13.5t8 -17.5t3 -10q0 1 4 9t10 16.5t14.5 14t18.5 1.5q12 -5 7.5 -26.5t-14.5 -45.5q-11 -28 -30 -62z" />
    <glyph glyph-name="aring" unicode="&#xe5;" 
d="M401 501q11 -2 18.5 -11.5t5.5 -20.5l-1.5 -17t-4 -44.5t-5 -63t-4.5 -73.5q-6 -89 -6 -146q0 -44 2.5 -60t3.5 -19q7 -9 6.5 -20.5t-8.5 -19.5q-9 -9 -21 -9q-13 0 -22 9q-5 4 -8.5 11t-6 18.5t-4 29.5t-1.5 44q-1 24 -0.5 54.5t2.5 66.5q-14 -35 -29.5 -64.5
t-32.5 -55.5q-23 -35 -45 -57t-41.5 -33.5t-36.5 -15.5t-30 -3q-47 3 -77 47q-26 39 -34 99q-6 49 4 103.5t35 105.5q25 53 59.5 89t72.5 50q46 16 91 -2q40 -17 71 -60q3 11 6.5 22.5t6.5 23.5q2 11 12 17.5t22 4.5zM235 143q27 42 52.5 100t48.5 130q-14 2 -23 14
q-36 56 -77 56q-10 0 -23 -5q-27 -10 -53 -38t-46 -70q-21 -43 -30 -89t-4 -87q5 -42 20.5 -66.5t35.5 -26.5t46.5 20t52.5 62zM228 507q-20 1 -38.5 10t-32.5 26q-12 14 -18.5 32.5t-6.5 36.5q0 16 6 32t18 28.5t30 20t43 7.5q47 0 70 -40q14 -26 13 -58q-2 -32 -17 -55
q-11 -20 -28 -30t-37 -10h-2zM229 640q-37 0 -37 -28q0 -14 9.5 -29.5t28.5 -15.5q7 0 14 10q7 12 7.5 27.5t-4.5 26.5q-6 9 -18 9z" />
    <glyph glyph-name="ae" unicode="&#xe6;" horiz-adv-x="743" 
d="M681 88q11 5 22.5 0t16.5 -16t0 -22.5t-16 -16.5q-48 -20 -87 -28t-71 -8q-38 0 -66 9.5t-46 21.5q-39 26 -60 68.5t-23 98.5v18t1 17q-14 -35 -29.5 -64.5t-32.5 -55.5q-23 -35 -45 -57t-41.5 -33.5t-36.5 -15.5t-30 -3q-47 3 -77 47q-26 39 -34 99q-6 49 4 103.5
t35 105.5q25 53 59.5 89t72.5 50q46 16 91 -2q40 -17 71 -60q3 11 6.5 22.5t6.5 23.5q2 11 12 17.5t22 4.5q11 -2 18.5 -11.5t5.5 -20.5q0 -1 -2.5 -17.5t-5.5 -44.5q32 42 71 67t77 29q40 5 68 -16.5t36 -63.5q4 -19 2 -41.5t-15.5 -47.5t-41 -50.5t-74.5 -50.5
q-42 -22 -79 -34.5t-54 -17.5q6 -71 54 -103q74 -48 215 10zM240 143q27 42 52.5 100t48.5 130q-14 2 -23 14q-36 56 -77 56q-10 0 -23 -5q-27 -10 -53 -38t-46 -70q-21 -43 -30 -89t-4 -87q5 -42 20.5 -66.5t35.5 -26.5t46.5 20t52.5 62zM470 370q-44 -57 -55 -125
q19 6 46.5 16.5t56.5 25.5q53 28 77 58q27 33 20 67q-6 32 -32 32h-7q-25 -3 -54 -23t-52 -51z" />
    <glyph glyph-name="ccedilla" unicode="&#xe7;" horiz-adv-x="400" 
d="M159 -250q-19 0 -40 3q-12 2 -19.5 12t-5.5 22q2 13 12 20t22 5q39 -5 67.5 3t40.5 28q13 23 0 41q-9 12 -28 15.5t-44 -2.5q-16 -5 -29 7q-11 13 -8 28l17 74q-15 5 -26.5 10.5t-21.5 11.5q-38 26 -59 68.5t-23 98.5q-2 57 17 111.5t54 100.5q32 42 71 67t77 29
q40 5 68 -16.5t36 -63.5q2 -12 -4.5 -22.5t-19.5 -12.5q-12 -2 -22.5 4.5t-12.5 19.5q-7 35 -39 32q-25 -3 -54 -23t-53 -51q-29 -38 -44 -82.5t-14 -91.5q2 -82 55 -118q15 -11 33 -15q11 11 28 8q12 -3 19 -14q29 0 63 7.5t72 23.5q11 5 22.5 0t16.5 -16t0 -22.5
t-16 -16.5q-48 -20 -87 -28t-71 -8h-5l-9 -36q16 0 34 -5q36 -9 55 -36q17 -23 18 -52.5t-15 -55.5q-20 -36 -63 -51q-31 -11 -65 -11z" />
    <glyph glyph-name="egrave" unicode="&#xe8;" horiz-adv-x="399" 
d="M343 88q11 5 22.5 0t16.5 -16t0 -22.5t-16 -16.5q-48 -20 -87 -28t-71 -8q-38 0 -66 9.5t-46 21.5q-39 26 -60 68.5t-23 98.5q-1 57 17.5 111.5t53.5 100.5q32 42 71 67t77 29q40 5 68 -16.5t36 -63.5q4 -19 2 -41.5t-15.5 -47.5t-41 -50.5t-74.5 -50.5
q-42 -22 -79 -34.5t-54 -17.5q6 -71 54 -103q74 -48 215 10zM132 370q-44 -57 -55 -125q19 6 46.5 16.5t56.5 25.5q53 28 77 58q27 33 20 67q-6 32 -32 32h-7q-25 -3 -54 -23t-52 -51zM269 572q9 -10 8.5 -22.5t-10.5 -21.5v-1q-9 -7 -21.5 -6t-20.5 9q-1 2 -28 29t-70 78
q-8 10 -7.5 22t11.5 21q8 7 21 6.5t20 -10.5q26 -32 44 -52t29.5 -31.5t17 -16t6.5 -4.5z" />
    <glyph glyph-name="eacute" unicode="&#xe9;" horiz-adv-x="399" 
d="M343 88q11 5 22.5 0t16.5 -16t0 -22.5t-16 -16.5q-48 -20 -87 -28t-71 -8q-38 0 -66 9.5t-46 21.5q-39 26 -60 68.5t-23 98.5q-1 57 17.5 111.5t53.5 100.5q32 42 71 67t77 29q40 5 68 -16.5t36 -63.5q4 -19 2 -41.5t-15.5 -47.5t-41 -50.5t-74.5 -50.5
q-42 -22 -79 -34.5t-54 -17.5q6 -71 54 -103q74 -48 215 10zM132 370q-44 -57 -55 -125q19 6 46.5 16.5t56.5 25.5q53 28 77 58q27 33 20 67q-6 32 -32 32h-7q-25 -3 -54 -23t-52 -51zM129 572q1 0 6.5 4.5t17 16t29.5 31.5t44 52q7 10 20 10.5t21 -6.5q11 -9 11.5 -21
t-7.5 -22q-43 -51 -70 -78t-28 -29q-8 -8 -20.5 -9t-21.5 6v1q-10 9 -10.5 21.5t8.5 22.5z" />
    <glyph glyph-name="ecircumflex" unicode="&#xea;" horiz-adv-x="399" 
d="M343 88q11 5 22.5 0t16.5 -16t0 -22.5t-16 -16.5q-48 -20 -87 -28t-71 -8q-38 0 -66 9.5t-46 21.5q-39 26 -60 68.5t-23 98.5q-1 57 17.5 111.5t53.5 100.5q32 42 71 67t77 29q40 5 68 -16.5t36 -63.5q4 -19 2 -41.5t-15.5 -47.5t-41 -50.5t-74.5 -50.5
q-42 -22 -79 -34.5t-54 -17.5q6 -71 54 -103q74 -48 215 10zM132 370q-44 -57 -55 -125q19 6 46.5 16.5t56.5 25.5q53 28 77 58q27 33 20 67q-6 32 -32 32h-7q-25 -3 -54 -23t-52 -51zM218 673q3 0 4 -1q13 -2 20 -12q0 -1 5.5 -8.5t13 -19.5t16 -27.5t15.5 -31.5
q5 -11 0.5 -22.5t-15.5 -16.5t-22.5 -0.5t-16.5 15.5q-12 26 -27 49q-16 -14 -31 -28.5t-22 -24.5q-6 -11 -18 -13.5t-23 4.5q-11 6 -13.5 18t4.5 23q8 13 22 27.5t28.5 27.5t26 22.5t14.5 11.5q9 7 19 7z" />
    <glyph glyph-name="edieresis" unicode="&#xeb;" horiz-adv-x="399" 
d="M343 88q11 5 22.5 0t16.5 -16t0 -22.5t-16 -16.5q-48 -20 -87 -28t-71 -8q-38 0 -66 9.5t-46 21.5q-39 26 -60 68.5t-23 98.5q-1 57 17.5 111.5t53.5 100.5q32 42 71 67t77 29q40 5 68 -16.5t36 -63.5q4 -19 2 -41.5t-15.5 -47.5t-41 -50.5t-74.5 -50.5
q-42 -22 -79 -34.5t-54 -17.5q6 -71 54 -103q74 -48 215 10zM132 370q-44 -57 -55 -125q19 6 46.5 16.5t56.5 25.5q53 28 77 58q27 33 20 67q-6 32 -32 32h-7q-25 -3 -54 -23t-52 -51zM138 538q-5 4 -18.5 23t-25.5 41.5t-17 42.5t7 26t20 1t13 -13.5t8 -17.5t3 -10q0 1 4 9
t10 16.5t14.5 14t18.5 1.5q12 -5 7.5 -26.5t-14.5 -45.5q-11 -28 -30 -62zM278 538q-5 4 -18.5 23t-25.5 41.5t-17 42.5t7 26t20 1t13 -13.5t8 -17.5t3 -10q0 1 4 9t10 16.5t14.5 14t18.5 1.5q12 -5 7.5 -26.5t-14.5 -45.5q-11 -28 -30 -62z" />
    <glyph glyph-name="igrave" unicode="&#xec;" horiz-adv-x="171" 
d="M136 29q1 -13 -7.5 -22t-21.5 -10h-1q-12 0 -20.5 8.5t-9.5 20.5q0 1 -1.5 38.5t-4 94t-4 123t-1.5 124.5q0 13 8.5 21.5t21.5 8.5q12 0 21 -8.5t9 -21.5q0 -38 1 -81t2 -84.5t2.5 -79.5t2.5 -67.5t2 -47zM155 572q9 -10 8.5 -22.5t-10.5 -21.5v-1q-9 -7 -21.5 -6
t-20.5 9q-1 2 -28 29t-70 78q-8 10 -7.5 22t11.5 21q8 7 21 6.5t20 -10.5q26 -32 44 -52t29.5 -31.5t17 -16t6.5 -4.5z" />
    <glyph glyph-name="iacute" unicode="&#xed;" horiz-adv-x="172" 
d="M134 29q1 -13 -7.5 -22t-21.5 -10h-1q-12 0 -20.5 8.5t-9.5 20.5q0 1 -1.5 38.5t-4 94t-4 123t-1.5 124.5q0 13 8.5 21.5t21.5 8.5q12 0 21 -8.5t9 -21.5q0 -38 1 -81t2 -84.5t2.5 -79.5t2.5 -67.5t2 -47zM13 572q1 0 6.5 4.5t17 16t29.5 31.5t44 52q7 10 20 10.5
t21 -6.5q11 -9 11.5 -21t-7.5 -22q-43 -51 -70 -78t-28 -29q-8 -8 -20.5 -9t-21.5 6v1q-10 9 -10.5 21.5t8.5 22.5z" />
    <glyph glyph-name="icircumflex" unicode="&#xee;" horiz-adv-x="209" 
d="M154 29q1 -13 -7.5 -22t-21.5 -10h-1q-12 0 -20.5 8.5t-9.5 20.5q0 1 -1.5 38.5t-4 94t-4 123t-1.5 124.5q0 13 8.5 21.5t21.5 8.5q12 0 21 -8.5t9 -21.5q0 -38 1 -81t2 -84.5t2.5 -79.5t2.5 -67.5t2 -47zM122 673q3 0 4 -1q13 -2 20 -12q0 -1 5.5 -8.5t13 -19.5
t16 -27.5t15.5 -31.5q5 -11 0.5 -22.5t-15.5 -16.5t-22.5 -0.5t-16.5 15.5q-12 26 -27 49q-16 -14 -31 -28.5t-22 -24.5q-6 -11 -18 -13.5t-23 4.5q-11 6 -13.5 18t4.5 23q8 13 22 27.5t28.5 27.5t26 22.5t14.5 11.5q9 7 19 7z" />
    <glyph glyph-name="idieresis" unicode="&#xef;" horiz-adv-x="301" 
d="M200 29q1 -13 -7.5 -22t-21.5 -10h-1q-12 0 -20.5 8.5t-9.5 20.5q0 1 -1.5 38.5t-4 94t-4 123t-1.5 124.5q0 13 8.5 21.5t21.5 8.5q12 0 21 -8.5t9 -21.5q0 -38 1 -81t2 -84.5t2.5 -79.5t2.5 -67.5t2 -47zM228 538q-5 4 -18.5 23t-25.5 41.5t-17 42.5t7 26t20 1t13 -13.5
t8 -17.5t3 -10q0 1 4 9t10 16.5t14.5 14t18.5 1.5q12 -5 7.5 -26.5t-14.5 -45.5q-11 -28 -30 -62zM88 538q-5 4 -18.5 23t-25.5 41.5t-17 42.5t7 26t20 1t13 -13.5t8 -17.5t3 -10q0 1 4 9t10 16.5t14.5 14t18.5 1.5q12 -5 7.5 -26.5t-14.5 -45.5q-11 -28 -30 -62z" />
    <glyph glyph-name="eth" unicode="&#xf0;" horiz-adv-x="398" 
d="M243 644q10 9 22.5 8.5t21.5 -10.5h1q7 -9 6.5 -21.5t-8.5 -20.5q-2 0 -8 -6l-17 -17q14 -14 27 -30t24 -35q34 -54 52.5 -122t18.5 -138v-6q-2 -100 -40 -166q-21 -37 -56 -59q-37 -23 -81 -23q-63 0 -112 37q-43 34 -64 86q-10 23 -14 46t-2 46q5 51 35 81q41 40 96 53
q50 12 103 3q37 -7 69 -25q-7 43 -21.5 83t-34.5 73q-8 14 -19 28t-25 27q-8 -8 -17.5 -16.5t-20.5 -17.5q-10 -8 -22 -7.5t-21 10.5q-7 8 -7 21.5t11 20.5l28 23q-34 16 -72 16q-12 0 -21 9t-9 21q0 13 9 21.5t21 8.5q32 0 62 -8.5t57 -24.5q16 15 21.5 22.5t6.5 8.5z
M85 144q3 -8 11 -22t22.5 -28.5t36 -25t51.5 -10.5q53 0 85 52q29 51 31 130q-10 17 -33 31t-53 20q-42 8 -80 -3t-65 -37q-15 -16 -17 -46t11 -61z" />
    <glyph glyph-name="ntilde" unicode="&#xf1;" horiz-adv-x="431" 
d="M370 464q31 -40 40 -121q3 -30 2.5 -66t-3.5 -78q-3 -35 -7.5 -67t-8.5 -56t-7 -39t-3 -16q-2 -12 -12.5 -18.5t-22.5 -4.5q-13 3 -19.5 13.5t-3.5 22.5l2.5 14.5t6.5 37.5t8 54t7 64q4 56 3 95.5t-5.5 65t-11 40t-12.5 21.5q-10 14 -28 14q-46 0 -86 -56
q-36 -53 -61 -144q-11 -40 -18.5 -78.5t-12 -68.5t-6 -49l-1.5 -19q-2 -11 -10 -19t-20 -9q-12 0 -20 8t-10 19q0 3 -2.5 27.5t-6 62t-6 84.5t-4 95.5t0 95t7.5 82.5q2 12 12 19.5t22 5.5q13 -2 20 -12t5 -23q-6 -38 -7 -91t1 -107q28 97 68 155q58 82 135 82q45 0 75 -36z
M267 537q-14 0 -36 10q-10 6 -20 13t-20 15q-6 5 -13.5 10t-14.5 9q-1 -4 -1.5 -10t-0.5 -16q0 -13 -9 -21.5t-21 -8.5q-13 0 -21.5 9t-8.5 21q1 24 6.5 49t27.5 36q23 12 55 -5q19 -11 37 -26l27 -18q3 -2 5 -3l4 -2q3 6 6 31q1 13 10 21t22 7q12 -1 20.5 -10t6.5 -22
q-1 -11 -2.5 -23.5t-6 -24t-12 -21.5t-19.5 -15q-10 -5 -21 -5z" />
    <glyph glyph-name="ograve" unicode="&#xf2;" horiz-adv-x="496" 
d="M429 490q34 -12 46 -47q15 -45 -12 -125q-10 -29 -25.5 -64t-35.5 -75q-17 -33 -34.5 -62.5t-31 -52t-22.5 -36.5t-10 -15q-8 -12 -20 -13q-2 -1 -5 -1q-11 0 -19 7q-9 7 -25 24t-35.5 40.5t-40.5 51.5t-41 58q-113 164 -101 245q6 45 48 64q54 23 101 -1q47 -23 80 -89
q5 8 10.5 15t11.5 15q31 37 66 55q47 23 95 6zM349 207q29 56 44 95t21 64t6 38.5t-2 19.5q-2 7 -9 10q-45 15 -94 -43q-11 -13 -19.5 -26t-14.5 -24q-7 -12 -13 -24q-8 -20 -30 -18q-20 2 -27 23q-2 9 -8 25t-15 32.5t-21.5 31.5t-27.5 23q-11 6 -23 6q-13 0 -28 -6
q-5 -2 -8 -5.5t-4 -11.5t2 -28t20 -58q12 -26 29.5 -55.5t40.5 -62.5q29 -43 57.5 -78.5t48.5 -57.5q14 23 34.5 57t40.5 73zM318 572q9 -10 8.5 -22.5t-10.5 -21.5v-1q-9 -7 -21.5 -6t-20.5 9q-1 2 -28 29t-70 78q-8 10 -7.5 22t11.5 21q8 7 21 6.5t20 -10.5q26 -32 44 -52
t29.5 -31.5t17 -16t6.5 -4.5z" />
    <glyph glyph-name="oacute" unicode="&#xf3;" horiz-adv-x="496" 
d="M429 490q34 -12 46 -47q15 -45 -12 -125q-10 -29 -25.5 -64t-35.5 -75q-17 -33 -34.5 -62.5t-31 -52t-22.5 -36.5t-10 -15q-8 -12 -20 -13q-2 -1 -5 -1q-11 0 -19 7q-9 7 -25 24t-35.5 40.5t-40.5 51.5t-41 58q-113 164 -101 245q6 45 48 64q54 23 101 -1q47 -23 80 -89
q5 8 10.5 15t11.5 15q31 37 66 55q47 23 95 6zM349 207q29 56 44 95t21 64t6 38.5t-2 19.5q-2 7 -9 10q-45 15 -94 -43q-11 -13 -19.5 -26t-14.5 -24q-7 -12 -13 -24q-8 -20 -30 -18q-20 2 -27 23q-2 9 -8 25t-15 32.5t-21.5 31.5t-27.5 23q-11 6 -23 6q-13 0 -28 -6
q-5 -2 -8 -5.5t-4 -11.5t2 -28t20 -58q12 -26 29.5 -55.5t40.5 -62.5q29 -43 57.5 -78.5t48.5 -57.5q14 23 34.5 57t40.5 73zM178 572q1 0 6.5 4.5t17 16t29.5 31.5t44 52q7 10 20 10.5t21 -6.5q11 -9 11.5 -21t-7.5 -22q-43 -51 -70 -78t-28 -29q-8 -8 -20.5 -9t-21.5 6v1
q-10 9 -10.5 21.5t8.5 22.5z" />
    <glyph glyph-name="ocircumflex" unicode="&#xf4;" horiz-adv-x="496" 
d="M429 490q34 -12 46 -47q15 -45 -12 -125q-10 -29 -25.5 -64t-35.5 -75q-17 -33 -34.5 -62.5t-31 -52t-22.5 -36.5t-10 -15q-8 -12 -20 -13q-2 -1 -5 -1q-11 0 -19 7q-9 7 -25 24t-35.5 40.5t-40.5 51.5t-41 58q-113 164 -101 245q6 45 48 64q54 23 101 -1q47 -23 80 -89
q5 8 10.5 15t11.5 15q31 37 66 55q47 23 95 6zM349 207q29 56 44 95t21 64t6 38.5t-2 19.5q-2 7 -9 10q-45 15 -94 -43q-11 -13 -19.5 -26t-14.5 -24q-7 -12 -13 -24q-8 -20 -30 -18q-20 2 -27 23q-2 9 -8 25t-15 32.5t-21.5 31.5t-27.5 23q-11 6 -23 6q-13 0 -28 -6
q-5 -2 -8 -5.5t-4 -11.5t2 -28t20 -58q12 -26 29.5 -55.5t40.5 -62.5q29 -43 57.5 -78.5t48.5 -57.5q14 23 34.5 57t40.5 73zM267 673q3 0 4 -1q13 -2 20 -12q0 -1 5.5 -8.5t13 -19.5t16 -27.5t15.5 -31.5q5 -11 0.5 -22.5t-15.5 -16.5t-22.5 -0.5t-16.5 15.5q-12 26 -27 49
q-16 -14 -31 -28.5t-22 -24.5q-6 -11 -18 -13.5t-23 4.5q-11 6 -13.5 18t4.5 23q8 13 22 27.5t28.5 27.5t26 22.5t14.5 11.5q9 7 19 7z" />
    <glyph glyph-name="otilde" unicode="&#xf5;" horiz-adv-x="496" 
d="M429 490q34 -12 46 -47q15 -45 -12 -125q-10 -29 -25.5 -64t-35.5 -75q-17 -33 -34.5 -62.5t-31 -52t-22.5 -36.5t-10 -15q-8 -12 -20 -13q-2 -1 -5 -1q-11 0 -19 7q-9 7 -25 24t-35.5 40.5t-40.5 51.5t-41 58q-113 164 -101 245q6 45 48 64q54 23 101 -1q47 -23 80 -89
q5 8 10.5 15t11.5 15q31 37 66 55q47 23 95 6zM349 207q29 56 44 95t21 64t6 38.5t-2 19.5q-2 7 -9 10q-45 15 -94 -43q-11 -13 -19.5 -26t-14.5 -24q-7 -12 -13 -24q-8 -20 -30 -18q-20 2 -27 23q-2 9 -8 25t-15 32.5t-21.5 31.5t-27.5 23q-11 6 -23 6q-13 0 -28 -6
q-5 -2 -8 -5.5t-4 -11.5t2 -28t20 -58q12 -26 29.5 -55.5t40.5 -62.5q29 -43 57.5 -78.5t48.5 -57.5q14 23 34.5 57t40.5 73zM299 537q-14 0 -36 10q-10 6 -20 13t-20 15q-6 5 -13.5 10t-14.5 9q-1 -4 -1.5 -10t-0.5 -16q0 -13 -9 -21.5t-21 -8.5q-13 0 -21.5 9t-8.5 21
q1 24 6.5 49t27.5 36q23 12 55 -5q19 -11 37 -26l27 -18q3 -2 5 -3l4 -2q3 6 6 31q1 13 10 21t22 7q12 -1 20.5 -10t6.5 -22q-1 -11 -2.5 -23.5t-6 -24t-12 -21.5t-19.5 -15q-10 -5 -21 -5z" />
    <glyph glyph-name="odieresis" unicode="&#xf6;" horiz-adv-x="496" 
d="M429 490q34 -12 46 -47q15 -45 -12 -125q-10 -29 -25.5 -64t-35.5 -75q-17 -33 -34.5 -62.5t-31 -52t-22.5 -36.5t-10 -15q-8 -12 -20 -13q-2 -1 -5 -1q-11 0 -19 7q-9 7 -25 24t-35.5 40.5t-40.5 51.5t-41 58q-113 164 -101 245q6 45 48 64q54 23 101 -1q47 -23 80 -89
q5 8 10.5 15t11.5 15q31 37 66 55q47 23 95 6zM349 207q29 56 44 95t21 64t6 38.5t-2 19.5q-2 7 -9 10q-45 15 -94 -43q-11 -13 -19.5 -26t-14.5 -24q-7 -12 -13 -24q-8 -20 -30 -18q-20 2 -27 23q-2 9 -8 25t-15 32.5t-21.5 31.5t-27.5 23q-11 6 -23 6q-13 0 -28 -6
q-5 -2 -8 -5.5t-4 -11.5t2 -28t20 -58q12 -26 29.5 -55.5t40.5 -62.5q29 -43 57.5 -78.5t48.5 -57.5q14 23 34.5 57t40.5 73zM186 538q-5 4 -18.5 23t-25.5 41.5t-17 42.5t7 26t20 1t13 -13.5t8 -17.5t3 -10q0 1 4 9t10 16.5t14.5 14t18.5 1.5q12 -5 7.5 -26.5t-14.5 -45.5
q-11 -28 -30 -62zM326 538q-5 4 -18.5 23t-25.5 41.5t-17 42.5t7 26t20 1t13 -13.5t8 -17.5t3 -10q0 1 4 9t10 16.5t14.5 14t18.5 1.5q12 -5 7.5 -26.5t-14.5 -45.5q-11 -28 -30 -62z" />
    <glyph glyph-name="oslash" unicode="&#xf8;" horiz-adv-x="496" 
d="M429 490q34 -12 46 -47q15 -45 -12 -125q-10 -29 -25.5 -64t-35.5 -75q-17 -33 -34.5 -62.5t-31 -52t-22.5 -36.5t-10 -15q-8 -12 -20 -13q-2 -1 -5 -1q-11 0 -19 7q-9 7 -30 29q-1 -3 -1 -5v-2q-2 -11 -13 -18t-22 -5h-1q-13 3 -19 14t-4 25q1 5 3 13q2 6 4 15.5t4 20.5
q-16 20 -32 42t-31 45q-113 164 -101 245q6 45 48 64q54 23 101 -1q45 -23 78 -84l14 77q2 11 12.5 17.5t21.5 4.5t17.5 -10.5t8.5 -18.5q7 5 16 10q47 23 95 6zM349 207q29 56 44 95t21 64t6 38.5t-2 19.5q-2 7 -9 10q-45 15 -94 -43q-11 -12 -18 -24q-6 -30 -13 -64
l-14 -68t-13 -66.5t-12 -59.5l29 -32q14 23 34.5 57t40.5 73zM197 171q7 31 13.5 64.5t13.5 67.5q-10 7 -13 19q-2 9 -8 25t-15 32.5t-21.5 31.5t-27.5 23q-11 6 -23 6q-13 0 -28 -6q-5 -2 -8 -5.5t-4 -11.5t2 -28t20 -58q12 -26 29.5 -55.5t40.5 -62.5q7 -11 14 -21.5
t15 -20.5z" />
    <glyph glyph-name="ugrave" unicode="&#xf9;" horiz-adv-x="425" 
d="M351 500q11 0 19.5 -7.5t10.5 -19.5q0 -4 4 -47t7.5 -107.5t4.5 -141t-5 -148.5q-1 -13 -10.5 -21t-21.5 -7q-13 2 -21 11t-7 22q4 46 5 95.5t-1 97.5q-27 -92 -65 -148q-58 -82 -135 -82q-46 0 -75 37q-31 39 -40 120q-3 30 -2.5 66.5t3.5 78.5q3 35 7.5 66.5t8.5 55.5
t7 38.5t3 16.5q2 12 12.5 18.5t22.5 4.5q12 -3 19 -13t4 -23l-3 -14t-6.5 -37.5t-7.5 -54t-7 -64.5q-5 -56 -3.5 -95t6 -65t11 -40.5t12.5 -21.5q11 -14 28 -14q46 0 85 56q35 50 61 143q12 40 19.5 78.5t12 69t6 49.5l1.5 19q1 12 9.5 20t20.5 8zM282 572q9 -10 8.5 -22.5
t-10.5 -21.5v-1q-9 -7 -21.5 -6t-20.5 9q-1 2 -28 29t-70 78q-8 10 -7.5 22t11.5 21q8 7 21 6.5t20 -10.5q26 -32 44 -52t29.5 -31.5t17 -16t6.5 -4.5z" />
    <glyph glyph-name="uacute" unicode="&#xfa;" horiz-adv-x="425" 
d="M351 500q11 0 19.5 -7.5t10.5 -19.5q0 -4 4 -47t7.5 -107.5t4.5 -141t-5 -148.5q-1 -13 -10.5 -21t-21.5 -7q-13 2 -21 11t-7 22q4 46 5 95.5t-1 97.5q-27 -92 -65 -148q-58 -82 -135 -82q-46 0 -75 37q-31 39 -40 120q-3 30 -2.5 66.5t3.5 78.5q3 35 7.5 66.5t8.5 55.5
t7 38.5t3 16.5q2 12 12.5 18.5t22.5 4.5q12 -3 19 -13t4 -23l-3 -14t-6.5 -37.5t-7.5 -54t-7 -64.5q-5 -56 -3.5 -95t6 -65t11 -40.5t12.5 -21.5q11 -14 28 -14q46 0 85 56q35 50 61 143q12 40 19.5 78.5t12 69t6 49.5l1.5 19q1 12 9.5 20t20.5 8zM142 572q1 0 6.5 4.5
t17 16t29.5 31.5t44 52q7 10 20 10.5t21 -6.5q11 -9 11.5 -21t-7.5 -22q-43 -51 -70 -78t-28 -29q-8 -8 -20.5 -9t-21.5 6v1q-10 9 -10.5 21.5t8.5 22.5z" />
    <glyph glyph-name="ucircumflex" unicode="&#xfb;" horiz-adv-x="425" 
d="M351 500q11 0 19.5 -7.5t10.5 -19.5q0 -4 4 -47t7.5 -107.5t4.5 -141t-5 -148.5q-1 -13 -10.5 -21t-21.5 -7q-13 2 -21 11t-7 22q4 46 5 95.5t-1 97.5q-27 -92 -65 -148q-58 -82 -135 -82q-46 0 -75 37q-31 39 -40 120q-3 30 -2.5 66.5t3.5 78.5q3 35 7.5 66.5t8.5 55.5
t7 38.5t3 16.5q2 12 12.5 18.5t22.5 4.5q12 -3 19 -13t4 -23l-3 -14t-6.5 -37.5t-7.5 -54t-7 -64.5q-5 -56 -3.5 -95t6 -65t11 -40.5t12.5 -21.5q11 -14 28 -14q46 0 85 56q35 50 61 143q12 40 19.5 78.5t12 69t6 49.5l1.5 19q1 12 9.5 20t20.5 8zM231 673q3 0 4 -1
q13 -2 20 -12q0 -1 5.5 -8.5t13 -19.5t16 -27.5t15.5 -31.5q5 -11 0.5 -22.5t-15.5 -16.5t-22.5 -0.5t-16.5 15.5q-12 26 -27 49q-16 -14 -31 -28.5t-22 -24.5q-6 -11 -18 -13.5t-23 4.5q-11 6 -13.5 18t4.5 23q8 13 22 27.5t28.5 27.5t26 22.5t14.5 11.5q9 7 19 7z" />
    <glyph glyph-name="udieresis" unicode="&#xfc;" horiz-adv-x="425" 
d="M351 500q11 0 19.5 -7.5t10.5 -19.5q0 -4 4 -47t7.5 -107.5t4.5 -141t-5 -148.5q-1 -13 -10.5 -21t-21.5 -7q-13 2 -21 11t-7 22q4 46 5 95.5t-1 97.5q-27 -92 -65 -148q-58 -82 -135 -82q-46 0 -75 37q-31 39 -40 120q-3 30 -2.5 66.5t3.5 78.5q3 35 7.5 66.5t8.5 55.5
t7 38.5t3 16.5q2 12 12.5 18.5t22.5 4.5q12 -3 19 -13t4 -23l-3 -14t-6.5 -37.5t-7.5 -54t-7 -64.5q-5 -56 -3.5 -95t6 -65t11 -40.5t12.5 -21.5q11 -14 28 -14q46 0 85 56q35 50 61 143q12 40 19.5 78.5t12 69t6 49.5l1.5 19q1 12 9.5 20t20.5 8zM291 538q-5 4 -18.5 23
t-25.5 41.5t-17 42.5t7 26t20 1t13 -13.5t8 -17.5t3 -10q0 1 4 9t10 16.5t14.5 14t18.5 1.5q12 -5 7.5 -26.5t-14.5 -45.5q-11 -28 -30 -62zM151 538q-5 4 -18.5 23t-25.5 41.5t-17 42.5t7 26t20 1t13 -13.5t8 -17.5t3 -10q0 1 4 9t10 16.5t14.5 14t18.5 1.5
q12 -5 7.5 -26.5t-14.5 -45.5q-11 -28 -30 -62z" />
    <glyph glyph-name="yacute" unicode="&#xfd;" horiz-adv-x="408" 
d="M344 500q11 1 20 -6.5t11 -18.5q0 -2 3 -22t6 -53t6 -77t3 -94q-1 -59 -5.5 -111.5t-13.5 -98.5q-22 -115 -76 -186q-62 -80 -159 -90h-3q-11 0 -19.5 8t-10.5 19q-2 12 6 21.5t21 11.5q72 7 118 67q25 32 41 75t25 91t12.5 99t3.5 99q-28 -96 -68 -155q-58 -82 -135 -82
q-46 0 -75 37q-31 39 -40 120q-3 31 -2.5 67t3.5 78q3 35 7.5 66.5t8.5 55.5t7 38.5t3 16.5q2 12 12.5 18.5t22.5 4.5t19 -12.5t4 -23.5q-5 -24 -9 -51q-4 -23 -8.5 -54t-6.5 -65q-5 -56 -3.5 -95t6 -65t11 -40.5t12.5 -21.5q11 -14 28 -14q46 0 85 56q35 50 61 143
q12 40 19.5 78.5t12 69t6 49.5l1.5 19q1 11 9.5 19t19.5 9zM134 572q1 0 6.5 4.5t17 16t29.5 31.5t44 52q7 10 20 10.5t21 -6.5q11 -9 11.5 -21t-7.5 -22q-43 -51 -70 -78t-28 -29q-8 -8 -20.5 -9t-21.5 6v1q-10 9 -10.5 21.5t8.5 22.5z" />
    <glyph glyph-name="thorn" unicode="&#xfe;" horiz-adv-x="427" 
d="M62 -255q-12 1 -20.5 10t-8.5 21q0 1 1 34.5t2 88.5t2 125.5t2 145.5q1 88 0.5 159.5t-2.5 126.5q-1 43 -2.5 70.5t-3 44.5t-3 25t-2.5 11q-5 8 -4.5 18.5t8.5 18.5q9 9 21.5 9t20.5 -8t12 -21.5t7 -42.5q3 -38 6 -102q1 -43 1.5 -96t0.5 -119q4 13 7 24.5t7 22.5
q59 178 169 188q56 5 93 -37q33 -37 42 -107q6 -49 -3.5 -104t-32.5 -106q-24 -53 -57.5 -88.5t-71.5 -49.5q-45 -17 -89 2q-22 10 -45 31q-8 -58 -14.5 -124t-11.5 -143q-1 -11 -9.5 -19.5t-20.5 -8.5h-1zM136 115q24 -38 52 -51q20 -9 45 -1q26 10 50.5 38t43.5 69
q20 44 28.5 90t3.5 88q-2 13 -6 30t-12 31t-20.5 23t-31.5 7q-72 -6 -118 -147q-11 -35 -21.5 -77.5t-18.5 -93.5z" />
    <glyph glyph-name="ydieresis" unicode="&#xff;" horiz-adv-x="408" 
d="M344 500q11 1 20 -6.5t11 -18.5q0 -2 3 -22t6 -53t6 -77t3 -94q-1 -59 -5.5 -111.5t-13.5 -98.5q-22 -115 -76 -186q-62 -80 -159 -90h-3q-11 0 -19.5 8t-10.5 19q-2 12 6 21.5t21 11.5q72 7 118 67q25 32 41 75t25 91t12.5 99t3.5 99q-28 -96 -68 -155q-58 -82 -135 -82
q-46 0 -75 37q-31 39 -40 120q-3 31 -2.5 67t3.5 78q3 35 7.5 66.5t8.5 55.5t7 38.5t3 16.5q2 12 12.5 18.5t22.5 4.5t19 -12.5t4 -23.5q-5 -24 -9 -51q-4 -23 -8.5 -54t-6.5 -65q-5 -56 -3.5 -95t6 -65t11 -40.5t12.5 -21.5q11 -14 28 -14q46 0 85 56q35 50 61 143
q12 40 19.5 78.5t12 69t6 49.5l1.5 19q1 11 9.5 19t19.5 9zM282 538q-5 4 -18.5 23t-25.5 41.5t-17 42.5t7 26t20 1t13 -13.5t8 -17.5t3 -10q0 1 4 9t10 16.5t14.5 14t18.5 1.5q12 -5 7.5 -26.5t-14.5 -45.5q-11 -28 -30 -62zM142 538q-5 4 -18.5 23t-25.5 41.5t-17 42.5
t7 26t20 1t13 -13.5t8 -17.5t3 -10q0 1 4 9t10 16.5t14.5 14t18.5 1.5q12 -5 7.5 -26.5t-14.5 -45.5q-11 -28 -30 -62z" />
    <glyph glyph-name="Abreve" unicode="&#x102;" horiz-adv-x="614" 
d="M599 -222q2 -12 -5 -22.5t-19 -12.5q-13 -2 -23 5t-12 20l-14 84l-43 249q-6 -3 -11 -3l-302 -30h-3q-4 0 -10 2q-25 -95 -47.5 -176.5t-39.5 -130.5q-3 -9 -11 -14.5t-17 -5.5q-7 0 -10 2q-12 4 -17.5 15t-0.5 23q9 24 19 58.5t21.5 76t23.5 88t25 95.5t27 100t28 101.5
t27.5 98.5t27.5 90q14 47 27 81t24 59q13 27 29 48.5t39 21.5q17 0 31 -10t25.5 -25.5t20.5 -34.5t16 -38q15 -38 30.5 -93t32.5 -126q15 -64 29 -132.5t26 -136t22.5 -130t19.5 -113.5zM472 158q-9 47 -18 92.5t-20 90.5q-15 67 -29.5 120t-28.5 92q-14 41 -24.5 59
t-16.5 24q-4 -5 -10 -16.5t-15 -34.5q-11 -25 -22 -58t-25 -76q-23 -72 -45 -154.5t-45 -167.5l293 29h6zM299 737q-42 2 -71 27q-34 31 -32 79q1 12 10 20.5t21 8.5q13 -1 21.5 -10t7.5 -22q0 -15 6 -23.5t13.5 -13t15 -5.5t10.5 -1q7 0 16.5 1.5t18.5 7t15 14.5t7 23
q0 12 9 20.5t22 8.5q13 -1 21 -10t8 -22q-2 -49 -41 -79q-30 -24 -73 -24h-5z" />
    <glyph glyph-name="abreve" unicode="&#x103;" 
d="M401 501q11 -2 18.5 -11.5t5.5 -20.5l-1.5 -17t-4 -44.5t-5 -63t-4.5 -73.5q-6 -89 -6 -146q0 -44 2.5 -60t3.5 -19q7 -9 6.5 -20.5t-8.5 -19.5q-9 -9 -21 -9q-13 0 -22 9q-5 4 -8.5 11t-6 18.5t-4 29.5t-1.5 44q-1 24 -0.5 54.5t2.5 66.5q-14 -35 -29.5 -64.5
t-32.5 -55.5q-23 -35 -45 -57t-41.5 -33.5t-36.5 -15.5t-30 -3q-47 3 -77 47q-26 39 -34 99q-6 49 4 103.5t35 105.5q25 53 59.5 89t72.5 50q46 16 91 -2q40 -17 71 -60q3 11 6.5 22.5t6.5 23.5q2 11 12 17.5t22 4.5zM235 143q27 42 52.5 100t48.5 130q-14 2 -23 14
q-36 56 -77 56q-10 0 -23 -5q-27 -10 -53 -38t-46 -70q-21 -43 -30 -89t-4 -87q5 -42 20.5 -66.5t35.5 -26.5t46.5 20t52.5 62zM215 537q-42 2 -71 27q-34 31 -32 79q1 12 10 20.5t21 8.5q13 -1 21.5 -10t7.5 -22q0 -15 6 -23.5t13.5 -13t15 -5.5t10.5 -1q7 0 16.5 1.5
t18.5 7t15 14.5t7 23q0 12 9 20.5t22 8.5q13 -1 21 -10t8 -22q-2 -49 -41 -79q-30 -24 -73 -24h-5z" />
    <glyph glyph-name="Aogonek" unicode="&#x104;" horiz-adv-x="614" 
d="M543 -509q-15 0 -27 4q-32 9 -51 39q-14 23 -17 55t7 67q20 71 81 134q-2 14 -5 29.5t-5 32.5l-43 249q-6 -3 -11 -3l-302 -30h-3q-4 0 -10 2q-25 -95 -47.5 -176.5t-39.5 -130.5q-3 -9 -11 -14.5t-17 -5.5q-7 0 -10 2q-12 4 -17.5 15t-0.5 23q9 24 19 58.5t21.5 76
t23.5 88t25 95.5t27 100t28 101.5t27.5 98.5t27.5 90q14 47 27 81t24 59q13 27 29 48.5t39 21.5q17 0 31 -10t25.5 -25.5t20.5 -34.5t16 -38q15 -38 30.5 -93t32.5 -126q15 -64 29 -132.5t26 -136t22.5 -130t19.5 -113.5l14 -84q2 -12 -5 -22.5t-19 -12.5q-29 -30 -43 -57
t-19 -46q-6 -23 -5.5 -42.5t8.5 -31.5q14 -23 50 -11q11 5 22 -0.5t16 -17.5q5 -11 -1 -22.5t-17 -15.5q-24 -8 -43 -8zM472 158q-9 47 -18 92.5t-20 90.5q-15 67 -29.5 120t-28.5 92q-14 41 -24.5 59t-16.5 24q-4 -5 -10 -16.5t-15 -34.5q-11 -25 -22 -58t-25 -76
q-23 -72 -45 -154.5t-45 -167.5l293 29h6z" />
    <glyph glyph-name="aogonek" unicode="&#x105;" 
d="M360 -241q-15 0 -27 4q-32 9 -51 39q-14 23 -17 55t7 67q19 67 76 128q-3 21 -3 57q-1 24 -0.5 54.5t2.5 66.5q-14 -35 -29.5 -64.5t-32.5 -55.5q-23 -35 -45 -57t-41.5 -33.5t-36.5 -15.5t-30 -3q-47 3 -77 47q-26 39 -34 99q-6 49 4 103.5t35 105.5q25 53 59.5 89
t72.5 50q46 16 91 -2q40 -17 71 -60q3 11 6.5 22.5t6.5 23.5q2 11 12 17.5t22 4.5q11 -2 18.5 -11.5t5.5 -20.5l-1.5 -17t-4 -44.5t-5 -63t-4.5 -73.5q-6 -89 -6 -146q0 -36 1.5 -53t3.5 -23v-2q0 -1 1 -1q7 -9 6.5 -20.5t-8.5 -19.5q-9 -9 -21 -9q-5 0 -7 1
q-23 -27 -34 -50t-16 -40q-6 -23 -5.5 -42.5t8.5 -31.5q14 -23 50 -11q11 5 22 -0.5t16 -17.5q5 -11 -1 -22.5t-17 -15.5q-24 -8 -43 -8zM235 143q27 42 52.5 100t48.5 130q-14 2 -23 14q-36 56 -77 56q-10 0 -23 -5q-27 -10 -53 -38t-46 -70q-21 -43 -30 -89t-4 -87
q5 -42 20.5 -66.5t35.5 -26.5t46.5 20t52.5 62z" />
    <glyph glyph-name="Cacute" unicode="&#x106;" horiz-adv-x="609" 
d="M552 -134q11 5 23 1t17 -15t1 -22.5t-15 -17.5q-127 -62 -233 -68q-6 -1 -11.5 -1h-11.5q-89 0 -154 40q-75 46 -112 134q-37 81 -39 191t27.5 214t87.5 192q51 77 113 125q65 49 124 54q55 6 96 -30q39 -36 50 -107q2 -12 -5 -22t-19 -12q-13 -2 -23 5t-12 19
q-15 94 -82 88q-45 -5 -96.5 -46t-95.5 -107q-53 -80 -80 -175.5t-25 -196.5q2 -98 33.5 -168.5t88.5 -105.5q63 -39 152.5 -31t200.5 62zM234 772q1 0 6.5 4.5t17 16t29.5 31.5t44 52q7 10 20 10.5t21 -6.5q11 -9 11.5 -21t-7.5 -22q-43 -51 -70 -78t-28 -29
q-8 -8 -20.5 -9t-21.5 6v1q-10 9 -10.5 21.5t8.5 22.5z" />
    <glyph glyph-name="cacute" unicode="&#x107;" horiz-adv-x="400" 
d="M344 88q11 5 22.5 0t16.5 -16t0 -22.5t-16 -16.5q-48 -20 -87 -28t-71 -8q-38 0 -66 9.5t-47 21.5q-38 26 -59 68.5t-23 98.5q-2 57 17 111.5t54 100.5q32 42 71 67t77 29q40 5 68 -16.5t36 -63.5q2 -12 -4.5 -22.5t-19.5 -12.5q-12 -2 -22.5 4.5t-12.5 19.5
q-7 35 -39 32q-25 -3 -54 -23t-53 -51q-29 -38 -44 -82.5t-14 -91.5q2 -82 55 -118q74 -48 215 10zM130 572q1 0 6.5 4.5t17 16t29.5 31.5t44 52q7 10 20 10.5t21 -6.5q11 -9 11.5 -21t-7.5 -22q-43 -51 -70 -78t-28 -29q-8 -8 -20.5 -9t-21.5 6v1q-10 9 -10.5 21.5
t8.5 22.5z" />
    <glyph glyph-name="Ccaron" unicode="&#x10c;" horiz-adv-x="609" 
d="M552 -134q11 5 23 1t17 -15t1 -22.5t-15 -17.5q-127 -62 -233 -68q-6 -1 -11.5 -1h-11.5q-89 0 -154 40q-75 46 -112 134q-37 81 -39 191t27.5 214t87.5 192q51 77 113 125q65 49 124 54q55 6 96 -30q39 -36 50 -107q2 -12 -5 -22t-19 -12q-13 -2 -23 5t-12 19
q-15 94 -82 88q-45 -5 -96.5 -46t-95.5 -107q-53 -80 -80 -175.5t-25 -196.5q2 -98 33.5 -168.5t88.5 -105.5q63 -39 152.5 -31t200.5 62zM285 727q-3 0 -4 1q-13 2 -20 12q0 1 -5.5 8.5t-13 19.5t-16 27.5t-15.5 31.5q-5 11 -0.5 22.5t15.5 16.5t22.5 0.5t16.5 -15.5
q12 -26 27 -49q16 14 31 28.5t22 24.5q6 11 18 13.5t23 -4.5q11 -6 13.5 -18t-4.5 -23q-8 -13 -22 -27.5t-28.5 -27.5t-26 -22.5t-14.5 -11.5q-9 -7 -19 -7z" />
    <glyph glyph-name="ccaron" unicode="&#x10d;" horiz-adv-x="400" 
d="M344 88q11 5 22.5 0t16.5 -16t0 -22.5t-16 -16.5q-48 -20 -87 -28t-71 -8q-38 0 -66 9.5t-47 21.5q-38 26 -59 68.5t-23 98.5q-2 57 17 111.5t54 100.5q32 42 71 67t77 29q40 5 68 -16.5t36 -63.5q2 -12 -4.5 -22.5t-19.5 -12.5q-12 -2 -22.5 4.5t-12.5 19.5
q-7 35 -39 32q-25 -3 -54 -23t-53 -51q-29 -38 -44 -82.5t-14 -91.5q2 -82 55 -118q74 -48 215 10zM181 527q-3 0 -4 1q-13 2 -20 12q0 1 -5.5 8.5t-13 19.5t-16 27.5t-15.5 31.5q-5 11 -0.5 22.5t15.5 16.5t22.5 0.5t16.5 -15.5q12 -26 27 -49q16 14 31 28.5t22 24.5
q6 11 18 13.5t23 -4.5q11 -6 13.5 -18t-4.5 -23q-8 -13 -22 -27.5t-28.5 -27.5t-26 -22.5t-14.5 -11.5q-9 -7 -19 -7z" />
    <glyph glyph-name="Dcaron" unicode="&#x10e;" horiz-adv-x="596" 
d="M443 653q138 -88 138 -339q0 -168 -49 -290q-43 -107 -119 -174q-53 -45 -118 -72q-26 -11 -53.5 -18t-56.5 -12q-44 -6 -75 -6q-39 0 -42 3q-11 1 -18 9t-8 19q0 1 -1.5 42t-3.5 107.5t-3.5 153.5t-1.5 180t2 186.5t8 173.5q2 19 17 25q1 1 11 5.5t27.5 11t41.5 13.5
t51 13q66 14 124 9q74 -6 129 -40zM374 -104q147 129 147 418q0 219 -110 288q-26 17 -56 24t-60.5 7.5t-59.5 -3.5t-55 -10.5t-46.5 -13.5t-32.5 -12q-4 -69 -6 -147t-2.5 -157t0.5 -155t2.5 -141t3 -115t2.5 -77q14 0 33.5 1t43.5 5q115 16 196 88zM279 727q-3 0 -4 1
q-13 2 -20 12q0 1 -5.5 8.5t-13 19.5t-16 27.5t-15.5 31.5q-5 11 -0.5 22.5t15.5 16.5t22.5 0.5t16.5 -15.5q12 -26 27 -49q16 14 31 28.5t22 24.5q6 11 18 13.5t23 -4.5q11 -6 13.5 -18t-4.5 -23q-8 -13 -22 -27.5t-28.5 -27.5t-26 -22.5t-14.5 -11.5q-9 -7 -19 -7z" />
    <glyph glyph-name="dcaron" unicode="&#x10f;" horiz-adv-x="544" 
d="M392 651q12 -1 20 -10t7 -22l-1.5 -23t-4 -60.5t-5.5 -86t-5 -100.5q-4 -92 -5 -149.5t0 -91t3 -47t3 -16.5q7 -9 6 -20t-9 -19q-9 -9 -21 -9t-21 9q-14 12 -18 53q-3 27 -3 74v84q-3 -10 -6.5 -19t-7.5 -18q-68 -168 -175 -177q-57 -5 -93 37q-33 37 -42 107
q-6 49 4 103.5t35 105.5q26 53 60 89t72 50q47 17 92 -2q32 -15 58 -43q14 80 24 175q2 12 11 20t22 6zM269 203q28 70 51 173q-8 3 -13 11q-36 56 -78 56q-10 0 -23 -5q-27 -10 -53 -38t-46 -70q-21 -43 -29.5 -89t-3.5 -87q1 -14 5 -30.5t12 -30.5t21 -23t32 -7
q32 3 63 34q33 36 62 106zM536 593q9 -18 10 -41t-5 -48t-18.5 -50t-31.5 -46q-9 -11 -23 -11q-10 0 -20 8q-9 8 -10 20t7 22q30 34 37.5 69t-0.5 50q-3 7 -12 6q-12 -1 -21.5 7t-10.5 21q-1 12 7 21.5t21 10.5q23 2 41 -8.5t29 -30.5z" />
    <glyph glyph-name="Dcroat" unicode="&#x110;" horiz-adv-x="596" 
d="M443 653q138 -88 138 -339q0 -168 -49 -290q-43 -107 -119 -174q-53 -45 -118 -72q-26 -11 -53.5 -18t-56.5 -12q-44 -6 -75 -6q-39 0 -42 3q-11 1 -18 9t-8 19q0 1 -1.5 36t-3 93t-3 134t-2.5 160h-16q-13 0 -21.5 8t-9.5 22q0 11 9 21t21 8h17q0 94 2 187t8 174
q2 19 17 25q1 1 11 5.5t27.5 11t41.5 13.5t51 13q66 14 124 9q74 -6 129 -40zM157 263q13 1 22 -7.5t10 -22.5l1 -1q-1 -11 -9.5 -20t-19.5 -10q-2 0 -19.5 -1.5t-49.5 -3.5q0 -66 1 -127.5t2.5 -113t3 -91.5t2.5 -63q14 0 33.5 1t43.5 5q115 16 196 88q147 129 147 418
q0 219 -110 288q-26 17 -56 24t-60.5 7.5t-59.5 -3.5t-55 -10.5t-46.5 -13.5t-32.5 -12q-5 -77 -7 -163.5t-2 -174.5q36 2 49.5 4t15.5 3z" />
    <glyph glyph-name="dcroat" unicode="&#x111;" horiz-adv-x="438" 
d="M392 651q12 -1 20 -10t7 -22q0 -1 -0.5 -8t-1.5 -20q11 -2 18.5 -10t8.5 -20l1 -1q-1 -11 -9.5 -20t-19.5 -10h-4q-2 -38 -4.5 -84.5t-4.5 -96.5q-4 -92 -5 -149.5t0 -91t3 -47t3 -16.5q7 -9 6 -20t-9 -19q-9 -9 -21 -9t-21 9q-14 12 -18 53q-3 27 -3 74v84
q-3 -10 -6.5 -19t-7.5 -18q-68 -168 -175 -177q-57 -5 -93 37q-33 37 -42 107q-6 49 4 103.5t35 105.5q26 53 60 89t72 50q47 17 92 -2q32 -15 58 -43l12 75q-17 -1 -35 -1h-41q-13 0 -21.5 8t-9.5 22q0 11 9 21t21 8q27 -1 47.5 -0.5t36.5 1.5l5 41q2 12 11 20t22 6z
M269 203q28 70 51 173q-8 3 -13 11q-36 56 -78 56q-10 0 -23 -5q-27 -10 -53 -38t-46 -70q-21 -43 -29.5 -89t-3.5 -87q1 -14 5 -30.5t12 -30.5t21 -23t32 -7q32 3 63 34q33 36 62 106z" />
    <glyph glyph-name="Eogonek" unicode="&#x118;" horiz-adv-x="544" 
d="M488 -469q-15 0 -27 4q-32 9 -51 39q-14 23 -17 55t7 67q12 43 39 83l-384 -35h-3q-11 0 -21 8q-9 9 -9 23q0 1 1.5 40.5t3.5 105.5t3.5 152.5t1.5 181t-2 191.5t-7 185q-2 22 18 30q2 0 30 9.5t79 17.5q48 8 121 11t168 -11q12 -2 19.5 -12t5.5 -23q-2 -12 -11.5 -19.5
t-22.5 -5.5q-88 13 -156 10.5t-112 -9.5q-26 -4 -45.5 -8.5t-32.5 -8.5q4 -76 6 -157t2 -162h1l27.5 1.5t71 3.5t97.5 3.5t108 1.5q12 0 21 -9t9 -21q0 -13 -9 -21.5t-21 -8.5q-53 0 -106.5 -1.5t-96 -3.5t-70 -3.5l-27.5 -1.5h-5q0 -71 -1 -136.5t-2.5 -121t-3 -99
t-2.5 -69.5l426 38q13 1 22 -7t11 -20q1 -10 -4 -17.5t-13 -12.5q-32 -32 -46.5 -60t-20.5 -48q-6 -23 -5.5 -42.5t8.5 -31.5q14 -23 50 -11q11 5 22 -0.5t16 -17.5q5 -11 -1 -22.5t-17 -15.5q-24 -8 -43 -8z" />
    <glyph glyph-name="eogonek" unicode="&#x119;" horiz-adv-x="399" 
d="M321 -241q-15 0 -27 4q-32 9 -51 39q-14 23 -17 55t7 67q10 40 37 79q-35 -6 -62 -6q-38 0 -66 9.5t-46 21.5q-39 26 -60 68.5t-23 98.5q-1 57 17.5 111.5t53.5 100.5q32 42 71 67t77 29q40 5 68 -16.5t36 -63.5q4 -19 2 -41.5t-15.5 -47.5t-41 -50.5t-74.5 -50.5
q-42 -22 -79 -34.5t-54 -17.5q6 -71 54 -103q74 -48 215 10q11 5 22.5 0t16.5 -16q4 -11 0.5 -21.5t-12.5 -15.5q-1 -8 -8 -15q-34 -33 -49.5 -62.5t-21.5 -49.5q-6 -23 -5.5 -42.5t8.5 -31.5q14 -23 50 -11q11 5 22 -0.5t16 -17.5q5 -11 -1 -22.5t-17 -15.5q-24 -8 -43 -8z
M132 370q-44 -57 -55 -125q19 6 46.5 16.5t56.5 25.5q53 28 77 58q27 33 20 67q-6 32 -32 32h-7q-25 -3 -54 -23t-52 -51z" />
    <glyph glyph-name="Ecaron" unicode="&#x11a;" horiz-adv-x="544" 
d="M509 -155q13 1 22 -7t11 -20q1 -13 -7 -22t-20 -11l-460 -41h-3q-11 0 -21 8q-9 9 -9 23q0 1 1.5 40.5t3.5 105.5t3.5 152.5t1.5 181t-2 191.5t-7 185q-2 22 18 30q2 0 30 9.5t79 17.5q48 8 121 11t168 -11q12 -2 19.5 -12t5.5 -23q-2 -12 -11.5 -19.5t-22.5 -5.5
q-88 13 -156 10.5t-112 -9.5q-26 -4 -45.5 -8.5t-32.5 -8.5q4 -76 6 -157t2 -162h1l27.5 1.5t71 3.5t97.5 3.5t108 1.5q12 0 21 -9t9 -21q0 -13 -9 -21.5t-21 -8.5q-53 0 -106.5 -1.5t-96 -3.5t-70 -3.5l-27.5 -1.5h-5q0 -71 -1 -136.5t-2.5 -121t-3 -99t-2.5 -69.5z
M253 727q-3 0 -4 1q-13 2 -20 12q0 1 -5.5 8.5t-13 19.5t-16 27.5t-15.5 31.5q-5 11 -0.5 22.5t15.5 16.5t22.5 0.5t16.5 -15.5q12 -26 27 -49q16 14 31 28.5t22 24.5q6 11 18 13.5t23 -4.5q11 -6 13.5 -18t-4.5 -23q-8 -13 -22 -27.5t-28.5 -27.5t-26 -22.5t-14.5 -11.5
q-9 -7 -19 -7z" />
    <glyph glyph-name="ecaron" unicode="&#x11b;" horiz-adv-x="399" 
d="M343 88q11 5 22.5 0t16.5 -16t0 -22.5t-16 -16.5q-48 -20 -87 -28t-71 -8q-38 0 -66 9.5t-46 21.5q-39 26 -60 68.5t-23 98.5q-1 57 17.5 111.5t53.5 100.5q32 42 71 67t77 29q40 5 68 -16.5t36 -63.5q4 -19 2 -41.5t-15.5 -47.5t-41 -50.5t-74.5 -50.5
q-42 -22 -79 -34.5t-54 -17.5q6 -71 54 -103q74 -48 215 10zM132 370q-44 -57 -55 -125q19 6 46.5 16.5t56.5 25.5q53 28 77 58q27 33 20 67q-6 32 -32 32h-7q-25 -3 -54 -23t-52 -51zM180 527q-3 0 -4 1q-13 2 -20 12q0 1 -5.5 8.5t-13 19.5t-16 27.5t-15.5 31.5
q-5 11 -0.5 22.5t15.5 16.5t22.5 0.5t16.5 -15.5q12 -26 27 -49q16 14 31 28.5t22 24.5q6 11 18 13.5t23 -4.5q11 -6 13.5 -18t-4.5 -23q-8 -13 -22 -27.5t-28.5 -27.5t-26 -22.5t-14.5 -11.5q-9 -7 -19 -7z" />
    <glyph glyph-name="dotlessi" unicode="&#x131;" horiz-adv-x="136" 
d="M119 29q1 -13 -7.5 -22t-21.5 -10h-1q-12 0 -20.5 8.5t-9.5 20.5q0 1 -1.5 38.5t-4 94t-4 123t-1.5 124.5q0 13 8.5 21.5t21.5 8.5q12 0 21 -8.5t9 -21.5q0 -38 1 -81t2 -84.5t2.5 -79.5t2.5 -67.5t2 -47z" />
    <glyph glyph-name="Lacute" unicode="&#x139;" horiz-adv-x="248" 
d="M511 -155q13 2 22 -6.5t11 -20.5q1 -13 -7 -22t-21 -11l-460 -41h-2q-11 0 -21 8q-5 5 -7.5 11t-1.5 12q0 1 1.5 43t3.5 111.5t3.5 160t2 188.5t-2 197t-7.5 187q-1 13 7.5 22t21.5 10q12 1 21 -7.5t10 -20.5q5 -75 7 -159.5t2.5 -169.5t-0.5 -167t-2.5 -152t-3.5 -125
t-3 -86zM54 772q1 0 6.5 4.5t17 16t29.5 31.5t44 52q7 10 20 10.5t21 -6.5q11 -9 11.5 -21t-7.5 -22q-43 -51 -70 -78t-28 -29q-8 -8 -20.5 -9t-21.5 6v1q-10 9 -10.5 21.5t8.5 22.5z" />
    <glyph glyph-name="lacute" unicode="&#x13a;" horiz-adv-x="107" 
d="M42 651q13 1 22 -7t10 -21q5 -67 8 -137.5t4.5 -136.5t1.5 -124.5t-0.5 -102t-1.5 -69.5t-1 -27q0 -12 -8.5 -20.5t-21.5 -8.5q-13 1 -21.5 10t-8.5 21q0 1 1 26.5t1.5 69t0.5 101t-1.5 123t-4.5 135t-8 136.5q-1 12 7.5 21.5t20.5 10.5zM-16 752q1 0 6.5 4.5t17 16
t29.5 31.5t44 52q7 10 20 10.5t21 -6.5q11 -9 11.5 -21t-7.5 -22q-43 -51 -70 -78t-28 -29q-8 -8 -20.5 -9t-21.5 6v1q-10 9 -10.5 21.5t8.5 22.5z" />
    <glyph glyph-name="Lcaron" unicode="&#x13d;" horiz-adv-x="248" 
d="M511 -155q13 2 22 -6.5t11 -20.5q1 -13 -7 -22t-21 -11l-460 -41h-2q-11 0 -21 8q-5 5 -7.5 11t-1.5 12q0 1 1.5 43t3.5 111.5t3.5 160t2 188.5t-2 197t-7.5 187q-1 13 7.5 22t21.5 10q12 1 21 -7.5t10 -20.5q5 -75 7 -159.5t2.5 -169.5t-0.5 -167t-2.5 -152t-3.5 -125
t-3 -86zM243 593q9 -18 10 -41t-5 -48t-18.5 -50t-31.5 -46q-9 -11 -23 -11q-10 0 -20 8q-9 8 -10 20t7 22q30 34 37.5 69t-0.5 50q-3 7 -12 6q-12 -1 -21.5 7t-10.5 21q-1 12 7 21.5t21 10.5q23 2 41 -8.5t29 -30.5z" />
    <glyph glyph-name="lcaron" unicode="&#x13e;" horiz-adv-x="220" 
d="M42 651q13 1 22 -7t10 -21q5 -67 8 -137.5t4.5 -136.5t1.5 -124.5t-0.5 -102t-1.5 -69.5t-1 -27q0 -12 -8.5 -20.5t-21.5 -8.5q-13 1 -21.5 10t-8.5 21q0 1 1 26.5t1.5 69t0.5 101t-1.5 123t-4.5 135t-8 136.5q-1 12 7.5 21.5t20.5 10.5zM213 593q9 -18 10 -41t-5 -48
t-18.5 -50t-31.5 -46q-9 -11 -23 -11q-10 0 -20 8q-9 8 -10 20t7 22q30 34 37.5 69t-0.5 50q-3 7 -12 6q-12 -1 -21.5 7t-10.5 21q-1 12 7 21.5t21 10.5q23 2 41 -8.5t29 -30.5z" />
    <glyph glyph-name="Lslash" unicode="&#x141;" horiz-adv-x="248" 
d="M511 -155q13 2 22 -6.5t11 -20.5q1 -13 -7 -22t-21 -11l-460 -41h-2q-11 0 -21 8q-5 5 -7.5 11t-1.5 12q0 1 1 32t2.5 83t3.5 121.5t3 148.5q-11 -6 -22 -4.5t-19 12.5q-6 9 -4.5 22.5t12.5 18.5l33 23q1 109 -1 220.5t-8 209.5q-1 13 7.5 22t21.5 10q12 1 21 -7.5
t10 -20.5q5 -89 7 -188t2 -199q10 9 13.5 13t4.5 5q11 8 23.5 6.5t20.5 -12.5h1q6 -10 4 -22t-10 -20q-2 0 -16.5 -12t-40.5 -32q0 -66 -1.5 -127.5t-3 -113t-2.5 -92t-2 -65.5l426 38v0z" />
    <glyph glyph-name="lslash" unicode="&#x142;" horiz-adv-x="186" 
d="M80 651q13 1 22 -7t10 -21q4 -53 6.5 -107t4.5 -107l7 8q11 8 23.5 6.5t20.5 -12.5h1q6 -10 4 -22t-10 -20q-2 0 -13 -9.5t-31 -25.5q1 -63 1 -119t-1 -97.5t-1.5 -66t-0.5 -25.5q0 -12 -8.5 -20.5t-21.5 -8.5q-13 1 -21.5 10t-8.5 21q0 1 0.5 21t1 55.5t1 83t-0.5 102.5
l-12 -9q-11 -7 -22.5 -5.5t-19.5 12.5q-6 9 -4.5 22.5t12.5 18.5q14 9 25 16.5t20 15.5q-2 63 -4.5 128.5t-7.5 129.5q-1 12 7.5 21.5t20.5 10.5z" />
    <glyph glyph-name="Nacute" unicode="&#x143;" horiz-adv-x="577" 
d="M526 690q13 0 21.5 -8.5t8.5 -21.5q0 -48 -1 -111t-3 -134.5t-4.5 -146.5t-5 -146t-5 -134.5t-4.5 -111.5t-3.5 -76.5t-1.5 -29.5q0 -11 -6.5 -18.5t-17.5 -9.5q-2 0 -3 -0.5t-3 -0.5q-19 0 -27 17l-369 778q-1 -50 -3 -114t-3 -134.5t-1.5 -143t0.5 -140.5t3.5 -127.5
t6.5 -102.5q2 -12 -6 -21.5t-21 -10.5q-12 -2 -21.5 6t-10.5 20q-5 45 -7.5 106t-3.5 130.5t-0.5 144t1.5 146t2.5 135.5t3 114t2.5 81t1 36q1 11 7.5 19t16.5 10q11 2 20 -2.5t14 -14.5l371 -780q2 49 4.5 112t5 133t4.5 143t4 142t3 130t1 107q0 13 9 21.5t21 8.5z
M218 772q1 0 6.5 4.5t17 16t29.5 31.5t44 52q7 10 20 10.5t21 -6.5q11 -9 11.5 -21t-7.5 -22q-43 -51 -70 -78t-28 -29q-8 -8 -20.5 -9t-21.5 6v1q-10 9 -10.5 21.5t8.5 22.5z" />
    <glyph glyph-name="nacute" unicode="&#x144;" horiz-adv-x="431" 
d="M370 464q31 -40 40 -121q3 -30 2.5 -66t-3.5 -78q-3 -35 -7.5 -67t-8.5 -56t-7 -39t-3 -16q-2 -12 -12.5 -18.5t-22.5 -4.5q-13 3 -19.5 13.5t-3.5 22.5l2.5 14.5t6.5 37.5t8 54t7 64q4 56 3 95.5t-5.5 65t-11 40t-12.5 21.5q-10 14 -28 14q-46 0 -86 -56
q-36 -53 -61 -144q-11 -40 -18.5 -78.5t-12 -68.5t-6 -49l-1.5 -19q-2 -11 -10 -19t-20 -9q-12 0 -20 8t-10 19q0 3 -2.5 27.5t-6 62t-6 84.5t-4 95.5t0 95t7.5 82.5q2 12 12 19.5t22 5.5q13 -2 20 -12t5 -23q-6 -38 -7 -91t1 -107q28 97 68 155q58 82 135 82q45 0 75 -36z
M145 572q1 0 6.5 4.5t17 16t29.5 31.5t44 52q7 10 20 10.5t21 -6.5q11 -9 11.5 -21t-7.5 -22q-43 -51 -70 -78t-28 -29q-8 -8 -20.5 -9t-21.5 6v1q-10 9 -10.5 21.5t8.5 22.5z" />
    <glyph glyph-name="Ncaron" unicode="&#x147;" horiz-adv-x="577" 
d="M526 690q13 0 21.5 -8.5t8.5 -21.5q0 -48 -1 -111t-3 -134.5t-4.5 -146.5t-5 -146t-5 -134.5t-4.5 -111.5t-3.5 -76.5t-1.5 -29.5q0 -11 -6.5 -18.5t-17.5 -9.5q-2 0 -3 -0.5t-3 -0.5q-19 0 -27 17l-369 778q-1 -50 -3 -114t-3 -134.5t-1.5 -143t0.5 -140.5t3.5 -127.5
t6.5 -102.5q2 -12 -6 -21.5t-21 -10.5q-12 -2 -21.5 6t-10.5 20q-5 45 -7.5 106t-3.5 130.5t-0.5 144t1.5 146t2.5 135.5t3 114t2.5 81t1 36q1 11 7.5 19t16.5 10q11 2 20 -2.5t14 -14.5l371 -780q2 49 4.5 112t5 133t4.5 143t4 142t3 130t1 107q0 13 9 21.5t21 8.5z
M269 727q-3 0 -4 1q-13 2 -20 12q0 1 -5.5 8.5t-13 19.5t-16 27.5t-15.5 31.5q-5 11 -0.5 22.5t15.5 16.5t22.5 0.5t16.5 -15.5q12 -26 27 -49q16 14 31 28.5t22 24.5q6 11 18 13.5t23 -4.5q11 -6 13.5 -18t-4.5 -23q-8 -13 -22 -27.5t-28.5 -27.5t-26 -22.5t-14.5 -11.5
q-9 -7 -19 -7z" />
    <glyph glyph-name="ncaron" unicode="&#x148;" horiz-adv-x="431" 
d="M370 464q31 -40 40 -121q3 -30 2.5 -66t-3.5 -78q-3 -35 -7.5 -67t-8.5 -56t-7 -39t-3 -16q-2 -12 -12.5 -18.5t-22.5 -4.5q-13 3 -19.5 13.5t-3.5 22.5l2.5 14.5t6.5 37.5t8 54t7 64q4 56 3 95.5t-5.5 65t-11 40t-12.5 21.5q-10 14 -28 14q-46 0 -86 -56
q-36 -53 -61 -144q-11 -40 -18.5 -78.5t-12 -68.5t-6 -49l-1.5 -19q-2 -11 -10 -19t-20 -9q-12 0 -20 8t-10 19q0 3 -2.5 27.5t-6 62t-6 84.5t-4 95.5t0 95t7.5 82.5q2 12 12 19.5t22 5.5q13 -2 20 -12t5 -23q-6 -38 -7 -91t1 -107q28 97 68 155q58 82 135 82q45 0 75 -36z
M196 527q-3 0 -4 1q-13 2 -20 12q0 1 -5.5 8.5t-13 19.5t-16 27.5t-15.5 31.5q-5 11 -0.5 22.5t15.5 16.5t22.5 0.5t16.5 -15.5q12 -26 27 -49q16 14 31 28.5t22 24.5q6 11 18 13.5t23 -4.5q11 -6 13.5 -18t-4.5 -23q-8 -13 -22 -27.5t-28.5 -27.5t-26 -22.5t-14.5 -11.5
q-9 -7 -19 -7z" />
    <glyph glyph-name="Ohungarumlaut" unicode="&#x150;" horiz-adv-x="754" 
d="M665 675q41 -18 58 -66q27 -77 -13 -228q-15 -59 -39 -128.5t-58 -149.5q-28 -68 -56.5 -129.5t-51.5 -108.5t-38 -75l-15 -28q-7 -13 -22 -16h-5q-11 0 -21 8q-13 13 -37.5 46t-55.5 79.5t-66.5 104t-69.5 119.5q-39 71 -69 134.5t-50 119.5q-50 138 -38 219
q6 43 25.5 65t37.5 32q37 19 74 21q34 1 66 -14q79 -38 133 -171q9 -20 15 -39q10 22 21 41q75 131 156 165q60 26 119 -1zM652 396q22 83 22 128t-7 65q-6 16 -13 22.5t-13 8.5q-35 16 -72 1q-63 -28 -127 -139q-12 -22 -21.5 -42t-16.5 -35q-8 -18 -13 -33
q-3 -10 -11.5 -15.5t-18.5 -4.5q-23 2 -28 24q-4 16 -9 34q-5 15 -11 35t-15 42q-44 111 -103 139q-18 8 -35 8q-23 0 -51 -14q-8 -5 -18 -16t-14 -37q-9 -62 29.5 -173.5t120.5 -261.5q28 -50 55.5 -95.5t52.5 -84.5t47 -70t38 -52q11 21 26.5 52.5t34 70t38 82.5t39.5 91
q32 78 56 145.5t38 124.5zM216 772q1 0 6.5 4.5t17 16t29.5 31.5t44 52q7 10 20 10.5t21 -6.5q11 -9 11.5 -21t-7.5 -22q-43 -51 -70 -78t-28 -29q-8 -8 -20.5 -9t-21.5 6v1q-10 9 -10.5 21.5t8.5 22.5zM398 772q1 0 6.5 4.5t17 16t29.5 31.5t44 52q7 10 20 10.5t21 -6.5
q11 -9 11.5 -21t-7.5 -22q-43 -51 -70 -78t-28 -29q-8 -8 -20.5 -9t-21.5 6v1q-10 9 -10.5 21.5t8.5 22.5z" />
    <glyph glyph-name="ohungarumlaut" unicode="&#x151;" horiz-adv-x="496" 
d="M429 490q34 -12 46 -47q15 -45 -12 -125q-10 -29 -25.5 -64t-35.5 -75q-17 -33 -34.5 -62.5t-31 -52t-22.5 -36.5t-10 -15q-8 -12 -20 -13q-2 -1 -5 -1q-11 0 -19 7q-9 7 -25 24t-35.5 40.5t-40.5 51.5t-41 58q-113 164 -101 245q6 45 48 64q54 23 101 -1q47 -23 80 -89
q5 8 10.5 15t11.5 15q31 37 66 55q47 23 95 6zM349 207q29 56 44 95t21 64t6 38.5t-2 19.5q-2 7 -9 10q-45 15 -94 -43q-11 -13 -19.5 -26t-14.5 -24q-7 -12 -13 -24q-8 -20 -30 -18q-20 2 -27 23q-2 9 -8 25t-15 32.5t-21.5 31.5t-27.5 23q-11 6 -23 6q-13 0 -28 -6
q-5 -2 -8 -5.5t-4 -11.5t2 -28t20 -58q12 -26 29.5 -55.5t40.5 -62.5q29 -43 57.5 -78.5t48.5 -57.5q14 23 34.5 57t40.5 73zM87 572q1 0 6.5 4.5t17 16t29.5 31.5t44 52q7 10 20 10.5t21 -6.5q11 -9 11.5 -21t-7.5 -22q-43 -51 -70 -78t-28 -29q-8 -8 -20.5 -9t-21.5 6v1
q-10 9 -10.5 21.5t8.5 22.5zM269 572q1 0 6.5 4.5t17 16t29.5 31.5t44 52q7 10 20 10.5t21 -6.5q11 -9 11.5 -21t-7.5 -22q-43 -51 -70 -78t-28 -29q-8 -8 -20.5 -9t-21.5 6v1q-10 9 -10.5 21.5t8.5 22.5z" />
    <glyph glyph-name="OE" unicode="&#x152;" horiz-adv-x="1207" 
d="M669 675q13 -6 24 -15q1 0 1 0.5t1 0.5q2 0 30 9.5t79 17.5q48 8 121 11t168 -11q12 -2 19.5 -12t5.5 -23q-2 -12 -11.5 -19.5t-22.5 -5.5q-88 13 -156 10.5t-112 -9.5q-26 -4 -45.5 -8.5t-32.5 -8.5q4 -76 6 -157t2 -162h1l27.5 1.5t71 3.5t97.5 3.5t108 1.5q12 0 21 -9
t9 -21q0 -13 -9 -21.5t-21 -8.5q-53 0 -106.5 -1.5t-96 -3.5t-70 -3.5l-27.5 -1.5h-5q0 -71 -1 -136.5t-2.5 -121t-3 -99t-2.5 -69.5l426 38q13 1 22 -7t11 -20q1 -13 -7 -22t-20 -11l-460 -41h-3q-11 0 -21 8q-9 9 -9 23q0 1 1.5 44t3.5 113.5t3.5 162t1.5 190.5
q-28 -86 -69 -182q-28 -68 -56.5 -129.5t-51.5 -108.5t-38 -75l-15 -28q-7 -13 -22 -16h-5q-11 0 -21 8q-13 13 -37.5 46t-55.5 79.5t-66.5 104t-69.5 119.5q-39 71 -69 134.5t-50 119.5q-50 138 -38 219q6 43 25.5 65t37.5 32q37 19 74 21q34 1 66 -14q79 -38 133 -171
q9 -20 15 -39q10 22 21 41q75 131 156 165q60 26 119 -1zM656 396q22 83 22 128t-7 65q-6 16 -13 22.5t-13 8.5q-35 16 -72 1q-63 -28 -127 -139q-12 -22 -21.5 -42t-16.5 -35q-8 -18 -13 -33q-3 -10 -11.5 -15.5t-18.5 -4.5q-23 2 -28 24q-4 16 -9 34q-5 15 -11 35t-15 42
q-44 111 -103 139q-18 8 -35 8q-23 0 -51 -14q-8 -5 -18 -16t-14 -37q-9 -62 29.5 -173.5t120.5 -261.5q28 -50 55.5 -95.5t52.5 -84.5t47 -70t38 -52q11 21 26.5 52.5t34 70t38 82.5t39.5 91q32 78 56 145.5t38 124.5z" />
    <glyph glyph-name="oe" unicode="&#x153;" horiz-adv-x="779" 
d="M434 490q34 -12 46 -47q2 -6 2 -8q29 29 61 47t63 21q40 5 68 -16.5t36 -63.5q4 -19 2 -41.5t-15.5 -47.5t-41 -50.5t-74.5 -50.5q-42 -22 -79 -34.5t-54 -17.5q6 -71 54 -103q74 -48 215 10q11 5 22.5 0t16.5 -16t0 -22.5t-16 -16.5q-48 -20 -87 -28t-71 -8
q-38 0 -66 9.5t-46 21.5q-63 41 -78 123q-16 -29 -30.5 -53.5t-26 -43t-18.5 -29.5t-8 -12q-8 -12 -20 -13q-2 -1 -5 -1q-11 0 -19 7q-9 7 -25 24t-35.5 40.5t-40.5 51.5t-41 58q-113 164 -101 245q6 45 48 64q54 23 101 -1q47 -23 80 -89q5 8 10.5 15t11.5 15q31 37 66 55
q47 23 95 6zM354 207q29 56 44 95t21 64t6 38.5t-2 19.5q-2 7 -9 10q-45 15 -94 -43q-11 -13 -19.5 -26t-14.5 -24q-7 -12 -13 -24q-8 -20 -30 -18q-20 2 -27 23q-2 9 -8 25t-15 32.5t-21.5 31.5t-27.5 23q-11 6 -23 6q-13 0 -28 -6q-5 -2 -8 -5.5t-4 -11.5t2 -28t20 -58
q12 -26 29.5 -55.5t40.5 -62.5q29 -43 57.5 -78.5t48.5 -57.5q14 23 34.5 57t40.5 73zM506 370q-44 -57 -55 -125q19 6 46.5 16.5t56.5 25.5q53 28 77 58q27 33 20 67q-6 32 -32 32h-7q-25 -3 -54 -23t-52 -51z" />
    <glyph glyph-name="Racute" unicode="&#x154;" horiz-adv-x="629" 
d="M403 41q24 -17 59.5 -46t68.5 -64.5t57 -75.5t24 -79q0 -13 -9 -21.5t-21 -8.5q-13 0 -21.5 8.5t-8.5 21.5q0 38 -51 98q-24 29 -57.5 59t-75.5 59q-39 28 -81 52.5t-81 42.5q-28 13 -53.5 21t-46.5 13q-4 0 -7 0.5t-6 0.5q0 -71 1 -133.5t2 -109t2 -74t1 -28.5
q0 -13 -8.5 -22t-20.5 -9h-1q-12 0 -20.5 8.5t-9.5 20.5q0 1 -1 45.5t-2.5 117t-2.5 165t-0.5 191t2.5 195.5t8 177q1 13 10.5 21t21.5 7q13 -1 21 -10t7 -22l-3 -59q23 22 49.5 39.5t57.5 29.5q26 11 52.5 17t54.5 8q56 3 106 -12q89 -29 134 -112q23 -45 30.5 -100.5
t-3.5 -123.5q-13 -99 -88 -158q-59 -47 -154 -65q-15 -3 -30 -4.5t-30 -3.5q31 -17 62.5 -36t61.5 -41zM115 180q39 -4 96.5 -5t116.5 10q173 33 194 173q16 106 -15.5 176t-104.5 93q-42 13 -87 10t-87 -20.5t-76.5 -47.5t-55.5 -69q-2 -77 -3 -157.5t-1 -158.5
q6 -1 11.5 -1.5t11.5 -2.5zM244 772q1 0 6.5 4.5t17 16t29.5 31.5t44 52q7 10 20 10.5t21 -6.5q11 -9 11.5 -21t-7.5 -22q-43 -51 -70 -78t-28 -29q-8 -8 -20.5 -9t-21.5 6v1q-10 9 -10.5 21.5t8.5 22.5z" />
    <glyph glyph-name="racute" unicode="&#x155;" horiz-adv-x="414" 
d="M410 340q2 -12 -6.5 -21.5t-20.5 -10.5q-13 -2 -22 6t-11 21q-9 105 -55 105q-47 0 -85 -56q-35 -50 -61 -143q-12 -40 -19.5 -78.5t-12 -69t-6 -49.5l-1.5 -19q-1 -11 -9.5 -19t-20.5 -9q-11 0 -19.5 8t-10.5 19q0 3 -2.5 27.5t-6 62t-6 84.5t-4 95.5t0 95t7.5 82.5
q2 12 12 19.5t23 5.5q12 -2 19 -12t5 -23q-6 -38 -7 -91t1 -107q28 97 68 155q58 82 135 82q20 0 44 -10t43 -44q22 -38 28 -106zM137 572q1 0 6.5 4.5t17 16t29.5 31.5t44 52q7 10 20 10.5t21 -6.5q11 -9 11.5 -21t-7.5 -22q-43 -51 -70 -78t-28 -29q-8 -8 -20.5 -9
t-21.5 6v1q-10 9 -10.5 21.5t8.5 22.5z" />
    <glyph glyph-name="Rcaron" unicode="&#x158;" horiz-adv-x="629" 
d="M403 41q24 -17 59.5 -46t68.5 -64.5t57 -75.5t24 -79q0 -13 -9 -21.5t-21 -8.5q-13 0 -21.5 8.5t-8.5 21.5q0 38 -51 98q-24 29 -57.5 59t-75.5 59q-39 28 -81 52.5t-81 42.5q-28 13 -53.5 21t-46.5 13q-4 0 -7 0.5t-6 0.5q0 -71 1 -133.5t2 -109t2 -74t1 -28.5
q0 -13 -8.5 -22t-20.5 -9h-1q-12 0 -20.5 8.5t-9.5 20.5q0 1 -1 45.5t-2.5 117t-2.5 165t-0.5 191t2.5 195.5t8 177q1 13 10.5 21t21.5 7q13 -1 21 -10t7 -22l-3 -59q23 22 49.5 39.5t57.5 29.5q26 11 52.5 17t54.5 8q56 3 106 -12q89 -29 134 -112q23 -45 30.5 -100.5
t-3.5 -123.5q-13 -99 -88 -158q-59 -47 -154 -65q-15 -3 -30 -4.5t-30 -3.5q31 -17 62.5 -36t61.5 -41zM115 180q39 -4 96.5 -5t116.5 10q173 33 194 173q16 106 -15.5 176t-104.5 93q-42 13 -87 10t-87 -20.5t-76.5 -47.5t-55.5 -69q-2 -77 -3 -157.5t-1 -158.5
q6 -1 11.5 -1.5t11.5 -2.5zM295 727q-3 0 -4 1q-13 2 -20 12q0 1 -5.5 8.5t-13 19.5t-16 27.5t-15.5 31.5q-5 11 -0.5 22.5t15.5 16.5t22.5 0.5t16.5 -15.5q12 -26 27 -49q16 14 31 28.5t22 24.5q6 11 18 13.5t23 -4.5q11 -6 13.5 -18t-4.5 -23q-8 -13 -22 -27.5
t-28.5 -27.5t-26 -22.5t-14.5 -11.5q-9 -7 -19 -7z" />
    <glyph glyph-name="rcaron" unicode="&#x159;" horiz-adv-x="414" 
d="M410 340q2 -12 -6.5 -21.5t-20.5 -10.5q-13 -2 -22 6t-11 21q-9 105 -55 105q-47 0 -85 -56q-35 -50 -61 -143q-12 -40 -19.5 -78.5t-12 -69t-6 -49.5l-1.5 -19q-1 -11 -9.5 -19t-20.5 -9q-11 0 -19.5 8t-10.5 19q0 3 -2.5 27.5t-6 62t-6 84.5t-4 95.5t0 95t7.5 82.5
q2 12 12 19.5t23 5.5q12 -2 19 -12t5 -23q-6 -38 -7 -91t1 -107q28 97 68 155q58 82 135 82q20 0 44 -10t43 -44q22 -38 28 -106zM188 527q-3 0 -4 1q-13 2 -20 12q0 1 -5.5 8.5t-13 19.5t-16 27.5t-15.5 31.5q-5 11 -0.5 22.5t15.5 16.5t22.5 0.5t16.5 -15.5q12 -26 27 -49
q16 14 31 28.5t22 24.5q6 11 18 13.5t23 -4.5q11 -6 13.5 -18t-4.5 -23q-8 -13 -22 -27.5t-28.5 -27.5t-26 -22.5t-14.5 -11.5q-9 -7 -19 -7z" />
    <glyph glyph-name="Sacute" unicode="&#x15a;" horiz-adv-x="582" 
d="M443 619q18 -15 37.5 -37t37 -52t31 -68t20.5 -85q2 -12 -6 -22t-20 -12t-22 5.5t-12 20.5q-9 67 -37 118t-66 84.5t-82.5 49t-87.5 13.5q-28 -2 -56 -12t-50.5 -31.5t-37.5 -54.5t-16 -79q-2 -52 15.5 -89.5t48 -65t70.5 -49t83 -41.5q36 -17 71.5 -35.5t64 -42
t47.5 -54t22 -70.5q8 -105 -61 -178q-29 -29 -66.5 -49.5t-81.5 -28.5q-12 -2 -24 -3t-24 -1q-39 0 -72 12q-62 23 -79 79q-4 12 2 23t18 15q12 3 23 -3t14 -18q5 -16 18.5 -26.5t31.5 -15.5t39 -6t42 3q32 6 62.5 21t53 39.5t35 57.5t9.5 75q-2 27 -16.5 48.5t-37.5 39
t-53.5 33t-63.5 31.5q-45 21 -89.5 45t-80.5 57q-43 41 -63 89.5t-18 109.5q2 52 18.5 95.5t48.5 75.5q29 29 67.5 45.5t82.5 18.5q55 3 110 -17t100 -58zM221 772q1 0 6.5 4.5t17 16t29.5 31.5t44 52q7 10 20 10.5t21 -6.5q11 -9 11.5 -21t-7.5 -22q-43 -51 -70 -78
t-28 -29q-8 -8 -20.5 -9t-21.5 6v1q-10 9 -10.5 21.5t8.5 22.5z" />
    <glyph glyph-name="sacute" unicode="&#x15b;" horiz-adv-x="378" 
d="M309 242q57 -44 54 -112q-3 -61 -44 -96q-38 -33 -93 -36h-12q-32 0 -65 10.5t-61 32t-48.5 53.5t-27.5 74q-2 13 5.5 23t19.5 12t22.5 -5.5t12.5 -19.5q5 -31 20 -54.5t36 -38.5t45.5 -22t48.5 -5q7 0 20.5 3t26.5 10.5t23 22t11 38.5q1 20 -7 35t-23.5 27.5t-38 23
t-50.5 21.5q-23 9 -43.5 18.5t-37.5 20.5q-44 30 -49 75q-5 59 36 98q35 33 86 44q45 9 82 0q23 -6 38.5 -19t21.5 -31q5 -12 -0.5 -23t-17.5 -16q-12 -4 -23 1.5t-15 17.5q-3 8 -23.5 13t-49.5 -1q-5 -1 -18 -5.5t-26.5 -13.5t-23 -23.5t-7.5 -36.5q2 -20 29.5 -34.5
t62.5 -28.5q27 -11 53.5 -23.5t49.5 -29.5zM119 572q1 0 6.5 4.5t17 16t29.5 31.5t44 52q7 10 20 10.5t21 -6.5q11 -9 11.5 -21t-7.5 -22q-43 -51 -70 -78t-28 -29q-8 -8 -20.5 -9t-21.5 6v1q-10 9 -10.5 21.5t8.5 22.5z" />
    <glyph glyph-name="Scedilla" unicode="&#x15e;" horiz-adv-x="582" 
d="M333 -337q9 -18 10 -41t-5 -48t-18.5 -50t-31.5 -46q-9 -11 -23 -11q-10 0 -20 8q-9 8 -10 20t7 22q30 34 37.5 69t-0.5 50q-3 7 -12 6q-12 -1 -21.5 7t-10.5 21q-1 12 7 21.5t21 10.5q23 2 41 -8.5t29 -30.5zM443 619q18 -15 37.5 -37t37 -52t31 -68t20.5 -85
q2 -12 -6 -22t-20 -12t-22 5.5t-12 20.5q-9 67 -37 118t-66 84.5t-82.5 49t-87.5 13.5q-28 -2 -56 -12t-50.5 -31.5t-37.5 -54.5t-16 -79q-2 -52 15.5 -89.5t48 -65t70.5 -49t83 -41.5q36 -17 71.5 -35.5t64 -42t47.5 -54t22 -70.5q8 -105 -61 -178q-29 -29 -66.5 -49.5
t-81.5 -28.5q-12 -2 -24 -3t-24 -1q-39 0 -72 12q-62 23 -79 79q-4 12 2 23t18 15q12 3 23 -3t14 -18q5 -16 18.5 -26.5t31.5 -15.5t39 -6t42 3q32 6 62.5 21t53 39.5t35 57.5t9.5 75q-2 27 -16.5 48.5t-37.5 39t-53.5 33t-63.5 31.5q-45 21 -89.5 45t-80.5 57
q-43 41 -63 89.5t-18 109.5q2 52 18.5 95.5t48.5 75.5q29 29 67.5 45.5t82.5 18.5q55 3 110 -17t100 -58z" />
    <glyph glyph-name="scedilla" unicode="&#x15f;" horiz-adv-x="378" 
d="M309 242q57 -44 54 -112q-3 -61 -44 -96q-38 -33 -93 -36h-12q-32 0 -65 10.5t-61 32t-48.5 53.5t-27.5 74q-2 13 5.5 23t19.5 12t22.5 -5.5t12.5 -19.5q5 -31 20 -54.5t36 -38.5t45.5 -22t48.5 -5q7 0 20.5 3t26.5 10.5t23 22t11 38.5q1 20 -7 35t-23.5 27.5t-38 23
t-50.5 21.5q-23 9 -43.5 18.5t-37.5 20.5q-44 30 -49 75q-5 59 36 98q35 33 86 44q45 9 82 0q23 -6 38.5 -19t21.5 -31q5 -12 -0.5 -23t-17.5 -16q-12 -4 -23 1.5t-15 17.5q-3 8 -23.5 13t-49.5 -1q-5 -1 -18 -5.5t-26.5 -13.5t-23 -23.5t-7.5 -36.5q2 -20 29.5 -34.5
t62.5 -28.5q27 -11 53.5 -23.5t49.5 -29.5zM263 -77q9 -18 10 -41t-5 -48t-18.5 -50t-31.5 -46q-9 -11 -23 -11q-10 0 -20 8q-9 8 -10 20t7 22q30 34 37.5 69t-0.5 50q-3 7 -12 6q-12 -1 -21.5 7t-10.5 21q-1 12 7 21.5t21 10.5q23 2 41 -8.5t29 -30.5z" />
    <glyph glyph-name="Scaron" unicode="&#x160;" horiz-adv-x="582" 
d="M443 619q18 -15 37.5 -37t37 -52t31 -68t20.5 -85q2 -12 -6 -22t-20 -12t-22 5.5t-12 20.5q-9 67 -37 118t-66 84.5t-82.5 49t-87.5 13.5q-28 -2 -56 -12t-50.5 -31.5t-37.5 -54.5t-16 -79q-2 -52 15.5 -89.5t48 -65t70.5 -49t83 -41.5q36 -17 71.5 -35.5t64 -42
t47.5 -54t22 -70.5q8 -105 -61 -178q-29 -29 -66.5 -49.5t-81.5 -28.5q-12 -2 -24 -3t-24 -1q-39 0 -72 12q-62 23 -79 79q-4 12 2 23t18 15q12 3 23 -3t14 -18q5 -16 18.5 -26.5t31.5 -15.5t39 -6t42 3q32 6 62.5 21t53 39.5t35 57.5t9.5 75q-2 27 -16.5 48.5t-37.5 39
t-53.5 33t-63.5 31.5q-45 21 -89.5 45t-80.5 57q-43 41 -63 89.5t-18 109.5q2 52 18.5 95.5t48.5 75.5q29 29 67.5 45.5t82.5 18.5q55 3 110 -17t100 -58zM272 727q-3 0 -4 1q-13 2 -20 12q0 1 -5.5 8.5t-13 19.5t-16 27.5t-15.5 31.5q-5 11 -0.5 22.5t15.5 16.5t22.5 0.5
t16.5 -15.5q12 -26 27 -49q16 14 31 28.5t22 24.5q6 11 18 13.5t23 -4.5q11 -6 13.5 -18t-4.5 -23q-8 -13 -22 -27.5t-28.5 -27.5t-26 -22.5t-14.5 -11.5q-9 -7 -19 -7z" />
    <glyph glyph-name="scaron" unicode="&#x161;" horiz-adv-x="378" 
d="M309 242q57 -44 54 -112q-3 -61 -44 -96q-38 -33 -93 -36h-12q-32 0 -65 10.5t-61 32t-48.5 53.5t-27.5 74q-2 13 5.5 23t19.5 12t22.5 -5.5t12.5 -19.5q5 -31 20 -54.5t36 -38.5t45.5 -22t48.5 -5q7 0 20.5 3t26.5 10.5t23 22t11 38.5q1 20 -7 35t-23.5 27.5t-38 23
t-50.5 21.5q-23 9 -43.5 18.5t-37.5 20.5q-44 30 -49 75q-5 59 36 98q35 33 86 44q45 9 82 0q23 -6 38.5 -19t21.5 -31q5 -12 -0.5 -23t-17.5 -16q-12 -4 -23 1.5t-15 17.5q-3 8 -23.5 13t-49.5 -1q-5 -1 -18 -5.5t-26.5 -13.5t-23 -23.5t-7.5 -36.5q2 -20 29.5 -34.5
t62.5 -28.5q27 -11 53.5 -23.5t49.5 -29.5zM170 527q-3 0 -4 1q-13 2 -20 12q0 1 -5.5 8.5t-13 19.5t-16 27.5t-15.5 31.5q-5 11 -0.5 22.5t15.5 16.5t22.5 0.5t16.5 -15.5q12 -26 27 -49q16 14 31 28.5t22 24.5q6 11 18 13.5t23 -4.5q11 -6 13.5 -18t-4.5 -23
q-8 -13 -22 -27.5t-28.5 -27.5t-26 -22.5t-14.5 -11.5q-9 -7 -19 -7z" />
    <glyph glyph-name="uni0162" unicode="&#x162;" horiz-adv-x="557" 
d="M523 698q12 0 21 -8.5t10 -20.5q0 -13 -8.5 -22t-20.5 -9q-54 -2 -110 -4.5t-110 -4.5q5 -88 7 -185.5t2 -192t-2 -181t-3.5 -152t-3 -105t-1.5 -40.5q-1 -12 -9.5 -20.5t-20.5 -8.5h-2q-12 1 -20.5 10t-7.5 21q0 1 1.5 40.5t3 104.5t3.5 151t2 180t-2 190.5t-7 184.5
q-44 -3 -82 -5t-66 -4t-44.5 -3l-16.5 -1h-2q-12 0 -20.5 8t-9.5 20t7 21.5t21 10.5l21.5 1.5t57.5 3.5t84 5t102 5.5t112 5t114 4.5zM333 -337q9 -18 10 -41t-5 -48t-18.5 -50t-31.5 -46q-9 -11 -23 -11q-10 0 -20 8q-9 8 -10 20t7 22q30 34 37.5 69t-0.5 50q-3 7 -12 6
q-12 -1 -21.5 7t-10.5 21q-1 12 7 21.5t21 10.5q23 2 41 -8.5t29 -30.5z" />
    <glyph glyph-name="uni0163" unicode="&#x163;" horiz-adv-x="408" 
d="M372 344q12 -1 20.5 -10t7.5 -22q0 -1 -0.5 -11.5t-2.5 -27.5t-5.5 -39t-8.5 -46q-30 -140 -94 -177q-10 -5 -22 -9.5t-28 -4.5q-12 0 -26 3t-29 11q-67 33 -94 143q-20 83 -20 204q0 13 0.5 25.5t0.5 24.5h-33q-12 1 -20.5 10t-8.5 21q1 12 9.5 20.5t20.5 8.5h1h9.5
t24.5 1q2 33 5 60.5t5.5 48.5t4 33t1.5 14q2 12 12 19.5t23 5.5q12 -2 19.5 -12t5.5 -22q-1 -1 -6 -41.5t-10 -102.5q45 5 101.5 15.5t113.5 32.5q11 5 22 -0.5t16 -16.5q5 -12 0 -23t-17 -16q-65 -25 -128 -36.5t-111 -15.5q0 -14 -0.5 -27.5t-0.5 -27.5q0 -123 20.5 -198
t59.5 -94q20 -9 31 -7.5t17 5.5q20 11 37.5 46.5t28.5 90.5q5 22 8 43t5 37q2 18 3 35q1 13 10 21t22 8zM273 -77q9 -18 10 -41t-5 -48t-18.5 -50t-31.5 -46q-9 -11 -23 -11q-10 0 -20 8q-9 8 -10 20t7 22q30 34 37.5 69t-0.5 50q-3 7 -12 6q-12 -1 -21.5 7t-10.5 21
q-1 12 7 21.5t21 10.5q23 2 41 -8.5t29 -30.5z" />
    <glyph glyph-name="Tcaron" unicode="&#x164;" horiz-adv-x="557" 
d="M523 698q12 0 21 -8.5t10 -20.5q0 -13 -8.5 -22t-20.5 -9q-54 -2 -110 -4.5t-110 -4.5q5 -88 7 -185.5t2 -192t-2 -181t-3.5 -152t-3 -105t-1.5 -40.5q-1 -12 -9.5 -20.5t-20.5 -8.5h-2q-12 1 -20.5 10t-7.5 21q0 1 1.5 40.5t3 104.5t3.5 151t2 180t-2 190.5t-7 184.5
q-44 -3 -82 -5t-66 -4t-44.5 -3l-16.5 -1h-2q-12 0 -20.5 8t-9.5 20t7 21.5t21 10.5l21.5 1.5t57.5 3.5t84 5t102 5.5t112 5t114 4.5zM259 727q-3 0 -4 1q-13 2 -20 12q0 1 -5.5 8.5t-13 19.5t-16 27.5t-15.5 31.5q-5 11 -0.5 22.5t15.5 16.5t22.5 0.5t16.5 -15.5
q12 -26 27 -49q16 14 31 28.5t22 24.5q6 11 18 13.5t23 -4.5q11 -6 13.5 -18t-4.5 -23q-8 -13 -22 -27.5t-28.5 -27.5t-26 -22.5t-14.5 -11.5q-9 -7 -19 -7z" />
    <glyph glyph-name="tcaron" unicode="&#x165;" horiz-adv-x="408" 
d="M372 344q12 -1 20.5 -10t7.5 -22q0 -1 -0.5 -11.5t-2.5 -27.5t-5.5 -39t-8.5 -46q-30 -140 -94 -177q-10 -5 -22 -9.5t-28 -4.5q-12 0 -26 3t-29 11q-67 33 -94 143q-20 83 -20 204q0 13 0.5 25.5t0.5 24.5h-33q-12 1 -20.5 10t-8.5 21q1 12 9.5 20.5t20.5 8.5h1h9.5
t24.5 1q2 33 5 60.5t5.5 48.5t4 33t1.5 14q2 12 12 19.5t23 5.5q12 -2 19.5 -12t5.5 -22q-1 -1 -6 -41.5t-10 -102.5q45 5 101.5 15.5t113.5 32.5q11 5 22 -0.5t16 -16.5q5 -12 0 -23t-17 -16q-65 -25 -128 -36.5t-111 -15.5q0 -14 -0.5 -27.5t-0.5 -27.5q0 -123 20.5 -198
t59.5 -94q20 -9 31 -7.5t17 5.5q20 11 37.5 46.5t28.5 90.5q5 22 8 43t5 37q2 18 3 35q1 13 10 21t22 8zM303 713q9 -18 10 -41t-5 -48t-18.5 -50t-31.5 -46q-9 -11 -23 -11q-10 0 -20 8q-9 8 -10 20t7 22q30 34 37.5 69t-0.5 50q-3 7 -12 6q-12 -1 -21.5 7t-10.5 21
q-1 12 7 21.5t21 10.5q23 2 41 -8.5t29 -30.5z" />
    <glyph glyph-name="Uring" unicode="&#x16e;" horiz-adv-x="616" 
d="M564 670l2 -23.5t4.5 -64.5t6 -96.5t6.5 -121.5q3 -61 5 -133.5t2 -150t-1.5 -156.5t-6.5 -152q-1 -12 -9.5 -20t-20.5 -8h-2q-12 1 -20.5 10t-7.5 22q4 66 6 137.5t2 143.5t-1.5 142t-4.5 134q-5 -29 -11 -59l-12 -60q-23 -100 -49.5 -178.5t-58.5 -136.5
q-84 -155 -201 -155q-55 0 -94 45q-54 65 -69 220q-6 60 -6.5 133t4.5 160q4 72 11 139t14 118t11.5 82t4.5 32q2 12 12 19t23 5q12 -2 19 -12t5 -22q0 -1 -4.5 -31.5t-11 -80.5t-13.5 -116t-11 -137q-5 -84 -4.5 -154.5t5.5 -128.5q4 -43 11 -74t14.5 -53.5t15.5 -36.5
t15 -23q21 -24 48 -24q81 0 149 124q59 109 101 299q18 82 30 161t19.5 141.5t10.5 101t3 39.5q0 11 8.5 19.5t20.5 8.5t20.5 -8t9.5 -20zM313 697q-20 1 -38.5 10t-32.5 26q-12 14 -18.5 32.5t-6.5 36.5q0 16 6 32t18 28.5t30 20t43 7.5q47 0 70 -40q14 -26 13 -58
q-2 -32 -17 -55q-11 -20 -28 -30t-37 -10h-2zM314 830q-37 0 -37 -28q0 -14 9.5 -29.5t28.5 -15.5q7 0 14 10q7 12 7.5 27.5t-4.5 26.5q-6 9 -18 9z" />
    <glyph glyph-name="uring" unicode="&#x16f;" horiz-adv-x="425" 
d="M351 500q11 0 19.5 -7.5t10.5 -19.5q0 -4 4 -47t7.5 -107.5t4.5 -141t-5 -148.5q-1 -13 -10.5 -21t-21.5 -7q-13 2 -21 11t-7 22q4 46 5 95.5t-1 97.5q-27 -92 -65 -148q-58 -82 -135 -82q-46 0 -75 37q-31 39 -40 120q-3 30 -2.5 66.5t3.5 78.5q3 35 7.5 66.5t8.5 55.5
t7 38.5t3 16.5q2 12 12.5 18.5t22.5 4.5q12 -3 19 -13t4 -23l-3 -14t-6.5 -37.5t-7.5 -54t-7 -64.5q-5 -56 -3.5 -95t6 -65t11 -40.5t12.5 -21.5q11 -14 28 -14q46 0 85 56q35 50 61 143q12 40 19.5 78.5t12 69t6 49.5l1.5 19q1 12 9.5 20t20.5 8zM218 497q-20 1 -38.5 10
t-32.5 26q-12 14 -18.5 32.5t-6.5 36.5q0 16 6 32t18 28.5t30 20t43 7.5q47 0 70 -40q14 -26 13 -58q-2 -32 -17 -55q-11 -20 -28 -30t-37 -10h-2zM219 630q-37 0 -37 -28q0 -14 9.5 -29.5t28.5 -15.5q7 0 14 10q7 12 7.5 27.5t-4.5 26.5q-6 9 -18 9z" />
    <glyph glyph-name="Uhungarumlaut" unicode="&#x170;" horiz-adv-x="616" 
d="M564 670l2 -23.5t4.5 -64.5t6 -96.5t6.5 -121.5q3 -61 5 -133.5t2 -150t-1.5 -156.5t-6.5 -152q-1 -12 -9.5 -20t-20.5 -8h-2q-12 1 -20.5 10t-7.5 22q4 66 6 137.5t2 143.5t-1.5 142t-4.5 134q-5 -29 -11 -59l-12 -60q-23 -100 -49.5 -178.5t-58.5 -136.5
q-84 -155 -201 -155q-55 0 -94 45q-54 65 -69 220q-6 60 -6.5 133t4.5 160q4 72 11 139t14 118t11.5 82t4.5 32q2 12 12 19t23 5q12 -2 19 -12t5 -22q0 -1 -4.5 -31.5t-11 -80.5t-13.5 -116t-11 -137q-5 -84 -4.5 -154.5t5.5 -128.5q4 -43 11 -74t14.5 -53.5t15.5 -36.5
t15 -23q21 -24 48 -24q81 0 149 124q59 109 101 299q18 82 30 161t19.5 141.5t10.5 101t3 39.5q0 11 8.5 19.5t20.5 8.5t20.5 -8t9.5 -20zM329 772q1 0 6.5 4.5t17 16t29.5 31.5t44 52q7 10 20 10.5t21 -6.5q11 -9 11.5 -21t-7.5 -22q-43 -51 -70 -78t-28 -29
q-8 -8 -20.5 -9t-21.5 6v1q-10 9 -10.5 21.5t8.5 22.5zM147 772q1 0 6.5 4.5t17 16t29.5 31.5t44 52q7 10 20 10.5t21 -6.5q11 -9 11.5 -21t-7.5 -22q-43 -51 -70 -78t-28 -29q-8 -8 -20.5 -9t-21.5 6v1q-10 9 -10.5 21.5t8.5 22.5z" />
    <glyph glyph-name="uhungarumlaut" unicode="&#x171;" horiz-adv-x="425" 
d="M351 500q11 0 19.5 -7.5t10.5 -19.5q0 -4 4 -47t7.5 -107.5t4.5 -141t-5 -148.5q-1 -13 -10.5 -21t-21.5 -7q-13 2 -21 11t-7 22q4 46 5 95.5t-1 97.5q-27 -92 -65 -148q-58 -82 -135 -82q-46 0 -75 37q-31 39 -40 120q-3 30 -2.5 66.5t3.5 78.5q3 35 7.5 66.5t8.5 55.5
t7 38.5t3 16.5q2 12 12.5 18.5t22.5 4.5q12 -3 19 -13t4 -23l-3 -14t-6.5 -37.5t-7.5 -54t-7 -64.5q-5 -56 -3.5 -95t6 -65t11 -40.5t12.5 -21.5q11 -14 28 -14q46 0 85 56q35 50 61 143q12 40 19.5 78.5t12 69t6 49.5l1.5 19q1 12 9.5 20t20.5 8zM233 572q1 0 6.5 4.5
t17 16t29.5 31.5t44 52q7 10 20 10.5t21 -6.5q11 -9 11.5 -21t-7.5 -22q-43 -51 -70 -78t-28 -29q-8 -8 -20.5 -9t-21.5 6v1q-10 9 -10.5 21.5t8.5 22.5zM51 572q1 0 6.5 4.5t17 16t29.5 31.5t44 52q7 10 20 10.5t21 -6.5q11 -9 11.5 -21t-7.5 -22q-43 -51 -70 -78t-28 -29
q-8 -8 -20.5 -9t-21.5 6v1q-10 9 -10.5 21.5t8.5 22.5z" />
    <glyph glyph-name="Ydieresis" unicode="&#x178;" horiz-adv-x="555" 
d="M512 673q0 -2 4 -26.5t8.5 -65t8.5 -95t4 -115.5q1 -74 -5 -139.5t-17 -122.5q-30 -148 -98 -237q-88 -115 -235 -129h-3q-11 0 -19.5 8t-10.5 19q-1 13 7 22t20 11q121 10 193 105q54 72 81.5 188.5t26.5 272.5q0 22 -0.5 42t-1.5 40q-5 -19 -10 -37.5t-12 -38.5
q-41 -131 -99 -205q-78 -101 -183 -101q-65 0 -105 51t-49 152q-8 77 3 182q4 44 10 83t11.5 69t10 48t4.5 20q3 12 13.5 18.5t22.5 4.5q12 -3 18.5 -13.5t3.5 -23.5l-4 -17.5t-9.5 -47t-11.5 -68t-10 -80.5q-9 -98 -3 -170q9 -85 37 -120q22 -28 58 -28q75 0 135 78
q52 65 90 186q16 51 27 100.5t17.5 88.5t9 63.5l2.5 24.5q2 11 10 19t19 9t20 -6.5t11 -18.5zM356 738q-5 4 -18.5 23t-25.5 41.5t-17 42.5t7 26t20 1t13 -13.5t8 -17.5t3 -10q0 1 4 9t10 16.5t14.5 14t18.5 1.5q12 -5 7.5 -26.5t-14.5 -45.5q-11 -28 -30 -62zM216 738
q-5 4 -18.5 23t-25.5 41.5t-17 42.5t7 26t20 1t13 -13.5t8 -17.5t3 -10q0 1 4 9t10 16.5t14.5 14t18.5 1.5q12 -5 7.5 -26.5t-14.5 -45.5q-11 -28 -30 -62z" />
    <glyph glyph-name="Zacute" unicode="&#x179;" horiz-adv-x="594" 
d="M578 -165q5 -12 0 -23t-17 -16q-1 0 -12 -4.5t-30 -10.5t-45 -12.5t-56 -11.5t-58.5 -8t-55.5 -3h-17q-76 3 -135 31q-88 44 -116 144q-38 132 31 284q26 59 68 119.5t99 122.5t111.5 110t94.5 80q-29 1 -64.5 1t-73.5 -4t-77.5 -11.5t-75.5 -21.5q-12 -5 -23 0.5
t-16 16.5q-5 12 0.5 23t16.5 16q109 41 264 41h1q58 0 95 -4t39 -4q21 -3 26 -23q2 -9 -1.5 -18t-11.5 -14l-24 -17t-61.5 -47t-84 -72t-92.5 -93q-41 -45 -81.5 -100.5t-69 -116t-39.5 -125t7 -127.5q21 -75 85 -106q33 -16 72.5 -21t79.5 -3t77.5 9.5t66.5 15t46.5 14
t18.5 6.5q11 5 22 -0.5t16 -16.5zM227 772q1 0 6.5 4.5t17 16t29.5 31.5t44 52q7 10 20 10.5t21 -6.5q11 -9 11.5 -21t-7.5 -22q-43 -51 -70 -78t-28 -29q-8 -8 -20.5 -9t-21.5 6v1q-10 9 -10.5 21.5t8.5 22.5z" />
    <glyph glyph-name="zacute" unicode="&#x17a;" horiz-adv-x="423" 
d="M406 61q3 -12 -3 -22.5t-18 -14.5q-1 0 -13.5 -3.5t-33 -7.5t-46.5 -8t-55 -5q-5 -1 -11 -1h-11q-46 0 -78.5 8.5t-54 22.5t-34 30.5t-18.5 33.5q-29 74 21 157q37 61 113 124q23 19 46.5 35.5t44.5 30.5q-34 -1 -71 -5t-70 -13q-12 -4 -22.5 2t-14.5 18t2.5 23t17.5 14
q42 12 87.5 16t84 4.5t64.5 -1.5t28 -2q22 -3 27 -25q3 -22 -16 -32l-15.5 -8t-40 -23t-54.5 -35.5t-60 -45.5q-26 -21 -51 -46.5t-43 -53.5t-25.5 -56.5t3.5 -56.5q12 -32 52 -45q35 -13 96 -11q26 1 50 4.5t43 7.5q22 4 41 10q12 4 23 -2t15 -18zM141 572q1 0 6.5 4.5
t17 16t29.5 31.5t44 52q7 10 20 10.5t21 -6.5q11 -9 11.5 -21t-7.5 -22q-43 -51 -70 -78t-28 -29q-8 -8 -20.5 -9t-21.5 6v1q-10 9 -10.5 21.5t8.5 22.5z" />
    <glyph glyph-name="Zdotaccent" unicode="&#x17b;" horiz-adv-x="594" 
d="M578 -165q5 -12 0 -23t-17 -16q-1 0 -12 -4.5t-30 -10.5t-45 -12.5t-56 -11.5t-58.5 -8t-55.5 -3h-17q-76 3 -135 31q-88 44 -116 144q-38 132 31 284q26 59 68 119.5t99 122.5t111.5 110t94.5 80q-29 1 -64.5 1t-73.5 -4t-77.5 -11.5t-75.5 -21.5q-12 -5 -23 0.5
t-16 16.5q-5 12 0.5 23t16.5 16q109 41 264 41h1q58 0 95 -4t39 -4q21 -3 26 -23q2 -9 -1.5 -18t-11.5 -14l-24 -17t-61.5 -47t-84 -72t-92.5 -93q-41 -45 -81.5 -100.5t-69 -116t-39.5 -125t7 -127.5q21 -75 85 -106q33 -16 72.5 -21t79.5 -3t77.5 9.5t66.5 15t46.5 14
t18.5 6.5q11 5 22 -0.5t16 -16.5zM305 738q-5 4 -18.5 23t-25.5 41.5t-17 42.5t7 26t20 1t13 -13.5t8 -17.5t3 -10q0 1 4 9t10 16.5t14.5 14t18.5 1.5q12 -5 7.5 -26.5t-14.5 -45.5q-11 -28 -30 -62z" />
    <glyph glyph-name="zdotaccent" unicode="&#x17c;" horiz-adv-x="423" 
d="M406 61q3 -12 -3 -22.5t-18 -14.5q-1 0 -13.5 -3.5t-33 -7.5t-46.5 -8t-55 -5q-5 -1 -11 -1h-11q-46 0 -78.5 8.5t-54 22.5t-34 30.5t-18.5 33.5q-29 74 21 157q37 61 113 124q23 19 46.5 35.5t44.5 30.5q-34 -1 -71 -5t-70 -13q-12 -4 -22.5 2t-14.5 18t2.5 23t17.5 14
q42 12 87.5 16t84 4.5t64.5 -1.5t28 -2q22 -3 27 -25q3 -22 -16 -32l-15.5 -8t-40 -23t-54.5 -35.5t-60 -45.5q-26 -21 -51 -46.5t-43 -53.5t-25.5 -56.5t3.5 -56.5q12 -32 52 -45q35 -13 96 -11q26 1 50 4.5t43 7.5q22 4 41 10q12 4 23 -2t15 -18zM220 538q-5 4 -18.5 23
t-25.5 41.5t-17 42.5t7 26t20 1t13 -13.5t8 -17.5t3 -10q0 1 4 9t10 16.5t14.5 14t18.5 1.5q12 -5 7.5 -26.5t-14.5 -45.5q-11 -28 -30 -62z" />
    <glyph glyph-name="Zcaron" unicode="&#x17d;" horiz-adv-x="594" 
d="M578 -165q5 -12 0 -23t-17 -16q-1 0 -12 -4.5t-30 -10.5t-45 -12.5t-56 -11.5t-58.5 -8t-55.5 -3h-17q-76 3 -135 31q-88 44 -116 144q-38 132 31 284q26 59 68 119.5t99 122.5t111.5 110t94.5 80q-29 1 -64.5 1t-73.5 -4t-77.5 -11.5t-75.5 -21.5q-12 -5 -23 0.5
t-16 16.5q-5 12 0.5 23t16.5 16q109 41 264 41h1q58 0 95 -4t39 -4q21 -3 26 -23q2 -9 -1.5 -18t-11.5 -14l-24 -17t-61.5 -47t-84 -72t-92.5 -93q-41 -45 -81.5 -100.5t-69 -116t-39.5 -125t7 -127.5q21 -75 85 -106q33 -16 72.5 -21t79.5 -3t77.5 9.5t66.5 15t46.5 14
t18.5 6.5q11 5 22 -0.5t16 -16.5zM308 727q-3 0 -4 1q-13 2 -20 12q0 1 -5.5 8.5t-13 19.5t-16 27.5t-15.5 31.5q-5 11 -0.5 22.5t15.5 16.5t22.5 0.5t16.5 -15.5q12 -26 27 -49q16 14 31 28.5t22 24.5q6 11 18 13.5t23 -4.5q11 -6 13.5 -18t-4.5 -23q-8 -13 -22 -27.5
t-28.5 -27.5t-26 -22.5t-14.5 -11.5q-9 -7 -19 -7z" />
    <glyph glyph-name="zcaron" unicode="&#x17e;" horiz-adv-x="423" 
d="M406 61q3 -12 -3 -22.5t-18 -14.5q-1 0 -13.5 -3.5t-33 -7.5t-46.5 -8t-55 -5q-5 -1 -11 -1h-11q-46 0 -78.5 8.5t-54 22.5t-34 30.5t-18.5 33.5q-29 74 21 157q37 61 113 124q23 19 46.5 35.5t44.5 30.5q-34 -1 -71 -5t-70 -13q-12 -4 -22.5 2t-14.5 18t2.5 23t17.5 14
q42 12 87.5 16t84 4.5t64.5 -1.5t28 -2q22 -3 27 -25q3 -22 -16 -32l-15.5 -8t-40 -23t-54.5 -35.5t-60 -45.5q-26 -21 -51 -46.5t-43 -53.5t-25.5 -56.5t3.5 -56.5q12 -32 52 -45q35 -13 96 -11q26 1 50 4.5t43 7.5q22 4 41 10q12 4 23 -2t15 -18zM232 527q-3 0 -4 1
q-13 2 -20 12q0 1 -5.5 8.5t-13 19.5t-16 27.5t-15.5 31.5q-5 11 -0.5 22.5t15.5 16.5t22.5 0.5t16.5 -15.5q12 -26 27 -49q16 14 31 28.5t22 24.5q6 11 18 13.5t23 -4.5q11 -6 13.5 -18t-4.5 -23q-8 -13 -22 -27.5t-28.5 -27.5t-26 -22.5t-14.5 -11.5q-9 -7 -19 -7z" />
    <glyph glyph-name="circumflex" unicode="&#x2c6;" horiz-adv-x="239" 
d="M136 673q3 0 4 -1q13 -2 20 -12q0 -1 5.5 -8.5t13 -19.5t16 -27.5t15.5 -31.5q5 -11 0.5 -22.5t-15.5 -16.5t-22.5 -0.5t-16.5 15.5q-12 26 -27 49q-16 -14 -31 -28.5t-22 -24.5q-6 -11 -18 -13.5t-23 4.5q-11 6 -13.5 18t4.5 23q8 13 22 27.5t28.5 27.5t26 22.5
t14.5 11.5q9 7 19 7z" />
    <glyph glyph-name="caron" unicode="&#x2c7;" horiz-adv-x="238" 
d="M103 527q-3 0 -4 1q-13 2 -20 12q0 1 -5.5 8.5t-13 19.5t-16 27.5t-15.5 31.5q-5 11 -0.5 22.5t15.5 16.5t22.5 0.5t16.5 -15.5q12 -26 27 -49q16 14 31 28.5t22 24.5q6 11 18 13.5t23 -4.5q11 -6 13.5 -18t-4.5 -23q-8 -13 -22 -27.5t-28.5 -27.5t-26 -22.5t-14.5 -11.5
q-9 -7 -19 -7z" />
    <glyph glyph-name="breve" unicode="&#x2d8;" horiz-adv-x="279" 
d="M132 537q-42 2 -71 27q-34 31 -32 79q1 12 10 20.5t21 8.5q13 -1 21.5 -10t7.5 -22q0 -15 6 -23.5t13.5 -13t15 -5.5t10.5 -1q7 0 16.5 1.5t18.5 7t15 14.5t7 23q0 12 9 20.5t22 8.5q13 -1 21 -10t8 -22q-2 -49 -41 -79q-30 -24 -73 -24h-5z" />
    <glyph glyph-name="dotaccent" unicode="&#x2d9;" horiz-adv-x="172" 
d="M93 538q-5 4 -18.5 23t-25.5 41.5t-17 42.5t7 26t20 1t13 -13.5t8 -17.5t3 -10q0 1 4 9t10 16.5t14.5 14t18.5 1.5q12 -5 7.5 -26.5t-14.5 -45.5q-11 -28 -30 -62z" />
    <glyph glyph-name="ring" unicode="&#x2da;" horiz-adv-x="234" 
d="M122 497q-20 1 -38.5 10t-32.5 26q-12 14 -18.5 32.5t-6.5 36.5q0 16 6 32t18 28.5t30 20t43 7.5q47 0 70 -40q14 -26 13 -58q-2 -32 -17 -55q-11 -20 -28 -30t-37 -10h-2zM123 630q-37 0 -37 -28q0 -14 9.5 -29.5t28.5 -15.5q7 0 14 10q7 12 7.5 27.5t-4.5 26.5
q-6 9 -18 9z" />
    <glyph glyph-name="ogonek" unicode="&#x2db;" horiz-adv-x="209" 
d="M117 -241q-15 0 -27 4q-32 9 -51 39q-14 23 -17 55t7 67q21 75 87 139q9 8 21.5 8t21.5 -9q8 -9 8 -21.5t-9 -20.5q-34 -33 -49.5 -62.5t-21.5 -49.5q-6 -23 -5.5 -42.5t8.5 -31.5q14 -23 50 -11q11 5 22 -0.5t16 -17.5q5 -11 -1 -22.5t-17 -15.5q-24 -8 -43 -8z" />
    <glyph glyph-name="tilde" unicode="&#x2dc;" horiz-adv-x="292" 
d="M198 537q-14 0 -36 10q-10 6 -20 13t-20 15q-6 5 -13.5 10t-14.5 9q-1 -4 -1.5 -10t-0.5 -16q0 -13 -9 -21.5t-21 -8.5q-13 0 -21.5 9t-8.5 21q1 24 6.5 49t27.5 36q23 12 55 -5q19 -11 37 -26l27 -18q3 -2 5 -3l4 -2q3 6 6 31q1 13 10 21t22 7q12 -1 20.5 -10t6.5 -22
q-1 -11 -2.5 -23.5t-6 -24t-12 -21.5t-19.5 -15q-10 -5 -21 -5z" />
    <glyph glyph-name="hungarumlaut" unicode="&#x2dd;" horiz-adv-x="364" 
d="M21 572q1 0 6.5 4.5t17 16t29.5 31.5t44 52q7 10 20 10.5t21 -6.5q11 -9 11.5 -21t-7.5 -22q-43 -51 -70 -78t-28 -29q-8 -8 -20.5 -9t-21.5 6v1q-10 9 -10.5 21.5t8.5 22.5zM203 572q1 0 6.5 4.5t17 16t29.5 31.5t44 52q7 10 20 10.5t21 -6.5q11 -9 11.5 -21t-7.5 -22
q-43 -51 -70 -78t-28 -29q-8 -8 -20.5 -9t-21.5 6v1q-10 9 -10.5 21.5t8.5 22.5z" />
    <glyph glyph-name="quoteleft" unicode="&#x2018;" horiz-adv-x="166" 
d="M36 478q-9 18 -10 41t5 48t18.5 50t31.5 46q9 11 23 11q10 0 20 -8q9 -8 10 -20t-7 -22q-30 -34 -37.5 -69t0.5 -50q3 -7 12 -6q12 1 21.5 -7t10.5 -21q1 -12 -7 -21.5t-21 -10.5q-23 -2 -41 8.5t-29 30.5z" />
    <glyph glyph-name="quoteright" unicode="&#x2019;" horiz-adv-x="168" 
d="M133 633q9 -18 10 -41t-5 -48t-18.5 -50t-31.5 -46q-9 -11 -23 -11q-10 0 -20 8q-9 8 -10 20t7 22q30 34 37.5 69t-0.5 50q-3 7 -12 6q-12 -1 -21.5 7t-10.5 21q-1 12 7 21.5t21 10.5q23 2 41 -8.5t29 -30.5z" />
    <glyph glyph-name="quotesinglbase" unicode="&#x201a;" horiz-adv-x="168" 
d="M133 43q9 -18 10 -41t-5 -48t-18.5 -50t-31.5 -46q-9 -11 -23 -11q-10 0 -20 8q-9 8 -10 20t7 22q30 34 37.5 69t-0.5 50q-3 7 -12 6q-12 -1 -21.5 7t-10.5 21q-1 12 7 21.5t21 10.5q23 2 41 -8.5t29 -30.5z" />
    <glyph glyph-name="quotedblleft" unicode="&#x201c;" horiz-adv-x="311" 
d="M177 478q-9 18 -10 41t5 48t18.5 50t31.5 46q9 11 23 11q10 0 20 -8q9 -8 10 -20t-7 -22q-30 -34 -37.5 -69t0.5 -50q3 -7 12 -6q12 1 21.5 -7t10.5 -21q1 -12 -7 -21.5t-21 -10.5q-23 -2 -41 8.5t-29 30.5zM47 478q-9 18 -10 41t5 48t18.5 50t31.5 46q9 11 23 11
q10 0 20 -8q9 -8 10 -20t-7 -22q-30 -34 -37.5 -69t0.5 -50q3 -7 12 -6q12 1 21.5 -7t10.5 -21q1 -12 -7 -21.5t-21 -10.5q-23 -2 -41 8.5t-29 30.5z" />
    <glyph glyph-name="quotedblright" unicode="&#x201d;" horiz-adv-x="313" 
d="M136 633q9 -18 10 -41t-5 -48t-18.5 -50t-31.5 -46q-9 -11 -23 -11q-10 0 -20 8q-9 8 -10 20t7 22q30 34 37.5 69t-0.5 50q-3 7 -12 6q-12 -1 -21.5 7t-10.5 21q-1 12 7 21.5t21 10.5q23 2 41 -8.5t29 -30.5zM266 633q9 -18 10 -41t-5 -48t-18.5 -50t-31.5 -46
q-9 -11 -23 -11q-10 0 -20 8q-9 8 -10 20t7 22q30 34 37.5 69t-0.5 50q-3 7 -12 6q-12 -1 -21.5 7t-10.5 21q-1 12 7 21.5t21 10.5q23 2 41 -8.5t29 -30.5z" />
    <glyph glyph-name="quotedblbase" unicode="&#x201e;" horiz-adv-x="313" 
d="M136 43q9 -18 10 -41t-5 -48t-18.5 -50t-31.5 -46q-9 -11 -23 -11q-10 0 -20 8q-9 8 -10 20t7 22q30 34 37.5 69t-0.5 50q-3 7 -12 6q-12 -1 -21.5 7t-10.5 21q-1 12 7 21.5t21 10.5q23 2 41 -8.5t29 -30.5zM266 43q9 -18 10 -41t-5 -48t-18.5 -50t-31.5 -46
q-9 -11 -23 -11q-10 0 -20 8q-9 8 -10 20t7 22q30 34 37.5 69t-0.5 50q-3 7 -12 6q-12 -1 -21.5 7t-10.5 21q-1 12 7 21.5t21 10.5q23 2 41 -8.5t29 -30.5z" />
    <glyph glyph-name="Euro" unicode="&#x20ac;" horiz-adv-x="515" 
d="M289 443q13 1 22 -7.5t10 -22.5l1 -1q-1 -11 -9.5 -20t-19.5 -10q-1 0 -15.5 -0.5t-37 -1.5t-51.5 -1.5t-58 -1.5q-12 -51 -10 -107v-15q33 1 63 2t53 2.5t37 2.5t15 1q13 1 22 -7.5t10 -22.5l1 -1q-1 -11 -9.5 -20t-19.5 -10q-1 0 -15.5 -0.5t-37.5 -1.5t-52 -1.5
t-59 -1.5q20 -82 75 -115q43 -26 104.5 -20.5t137.5 43.5q11 5 23 1t17 -15q6 -11 2 -23t-15 -17q-92 -44 -170 -49q-4 -1 -8 -1h-9q-65 0 -113 30q-82 50 -105 165h-20q-13 0 -21.5 8t-9.5 22q0 11 9 21t21 8h14v14q-2 54 9 107h-22q-13 0 -21.5 8t-9.5 22q0 11 9 21t21 8
h37q22 69 60 127q38 57 83 91q47 36 92 41q45 3 75 -24q31 -29 38 -81q2 -12 -5 -22.5t-19 -12.5q-13 -2 -23 5.5t-12 19.5q-3 22 -10 33.5t-14.5 16.5t-14 5h-10.5q-27 -3 -61 -28q-36 -29 -69 -77q-30 -45 -47 -93q28 1 53.5 2t45 2t31 2t12.5 1z" />
    </font>
</defs>
</svg>
